SplineFontDB: 3.0
FontName: AVHersheyComplexHeavy
FullName: AVHershey Complex Heavy
FamilyName: AVHershey Complex
Weight: Heavy
Copyright: Made in 2016 by Stewart C. Russell - scruss.com\n\nLicence: Dual-licensed CC0/WTFPL (srsly)\n\nDerived from character stroke coordinates by Allen V. Hershey published in "Calligraphy for Computers" (US Naval Weapons Laboratory, 1967-08-01, NWL Report No. 2101, NTIS accession number AD-662 398) and elsewhere. These coordinates were published without copyright.\n\nThe efforts of the Usenet Font Consortium (James Hurt, et al) who reformatted Hershey's data and published it to mod.sources on 1986-04-01 [Volume 4, Issue 42] are greatly appreciated.
UComments: "2016-2-6: Created with FontForge (http://fontforge.org)"
Version: 000.001
ItalicAngle: 0
UnderlinePosition: -100
UnderlineWidth: 50
Ascent: 800
Descent: 200
InvalidEm: 0
LayerCount: 2
Layer: 0 0 "Back" 1
Layer: 1 0 "Fore" 0
XUID: [1021 356 -1261808477 9646182]
FSType: 0
OS2Version: 0
OS2_WeightWidthSlopeOnly: 0
OS2_UseTypoMetrics: 1
CreationTime: 1454820444
ModificationTime: 1454974372
PfmFamily: 17
TTFWeight: 800
TTFWidth: 5
LineGap: 90
VLineGap: 0
OS2TypoAscent: 0
OS2TypoAOffset: 1
OS2TypoDescent: 0
OS2TypoDOffset: 1
OS2TypoLinegap: 90
OS2WinAscent: 0
OS2WinAOffset: 1
OS2WinDescent: 0
OS2WinDOffset: 1
HheadAscent: 0
HheadAOffset: 1
HheadDescent: 0
HheadDOffset: 1
OS2Vendor: 'PfEd'
MarkAttachClasses: 1
DEI: 91125
LangName: 1033
Encoding: ISO8859-1
UnicodeInterp: none
NameList: AGL For New Fonts
DisplaySize: -48
AntiAlias: 1
FitToEm: 1
WinInfo: 58 29 11
BeginPrivate: 0
EndPrivate
TeXData: 1 0 0 282066 141033 94022 448791 1048576 94022 783286 444596 497025 792723 393216 433062 380633 303038 157286 324010 404750 52429 2506097 1059062 262144
BeginChars: 373 196

StartChar: exclam
Encoding: 33 33 0
Width: 247
VWidth: 0
Flags: W
HStem: 0 21G<107 139> 580 20G<110 142>
VStem: 56 134
LayerCount: 2
Back
Fore
SplineSet
69 96 m 1
 93 121 l 1
 107 130 l 1
 123 133 l 1
 139 130 l 1
 153 121 l 1
 177 96 l 1
 186 83 l 1
 190 67 l 1
 186 50 l 1
 177 37 l 1
 153 12 l 1
 139 3 l 1
 123 0 l 1
 107 3 l 1
 93 12 l 1
 69 37 l 1
 60 50 l 1
 56 67 l 1
 60 83 l 1
 69 96 l 1
61 528 m 1
 91 586 l 1
 110 598 l 1
 126 600 l 1
 142 596 l 1
 155 586 l 1
 185 528 l 1
 189 505 l 1
 165 211 l 1
 161 196 l 1
 151 183 l 1
 138 175 l 1
 123 172 l 1
 108 175 l 1
 95 183 l 1
 85 196 l 1
 81 211 l 1
 57 505 l 1
 61 528 l 1
EndSplineSet
EndChar

StartChar: parenleft
Encoding: 40 40 1
Width: 344
VWidth: 0
Flags: W
HStem: -172 21G<254 286>
VStem: 56 109<182.696 343.304>
LayerCount: 2
Back
Fore
SplineSet
256 582 m 1
 211 493 l 1
 188 424 l 1
 165 308 l 1
 165 218 l 1
 188 102 l 1
 211 34 l 1
 256 -56 l 1
 300 -100 l 1
 309 -114 l 1
 312 -130 l 1
 309 -146 l 1
 300 -160 l 1
 286 -169 l 1
 270 -172 l 1
 254 -169 l 1
 241 -160 l 1
 191 -111 l 1
 134 -26 l 1
 82 83 l 1
 56 214 l 1
 57 321 l 1
 85 454 l 1
 134 552 l 1
 186 630 l 1
 241 686 l 1
 254 695 l 1
 270 698 l 1
 286 695 l 1
 300 686 l 1
 309 672 l 1
 312 656 l 1
 309 640 l 1
 300 627 l 1
 256 582 l 1
EndSplineSet
EndChar

StartChar: parenright
Encoding: 41 41 2
Width: 344
VWidth: 0
Flags: W
HStem: -172 21G<57 89>
VStem: 178 109<182.696 343.304>
LayerCount: 2
Back
Fore
SplineSet
87 582 m 1
 43 627 l 1
 34 640 l 1
 31 656 l 1
 34 672 l 1
 43 686 l 1
 57 695 l 1
 73 698 l 1
 89 695 l 1
 102 686 l 1
 157 630 l 1
 209 552 l 1
 258 454 l 1
 286 321 l 1
 287 214 l 1
 261 83 l 1
 209 -26 l 1
 152 -111 l 1
 102 -160 l 1
 89 -169 l 1
 73 -172 l 1
 57 -169 l 1
 43 -160 l 1
 34 -146 l 1
 31 -130 l 1
 34 -114 l 1
 43 -100 l 1
 87 -56 l 1
 132 34 l 1
 155 102 l 1
 178 218 l 1
 178 308 l 1
 155 424 l 1
 132 493 l 1
 87 582 l 1
EndSplineSet
EndChar

StartChar: asterisk
Encoding: 42 42 3
Width: 393
VWidth: 0
Flags: W
HStem: 580 20G<180 212>
VStem: 154 84<247 336 485 574>
LayerCount: 2
Back
Fore
SplineSet
52 373 m 1
 114 411 l 1
 52 448 l 1
 39 459 l 1
 32 474 l 1
 32 490 l 1
 37 506 l 1
 48 518 l 1
 63 525 l 1
 79 526 l 1
 95 520 l 1
 154 485 l 1
 154 558 l 1
 157 574 l 1
 166 588 l 1
 180 597 l 1
 196 600 l 1
 212 597 l 1
 226 588 l 1
 235 574 l 1
 238 558 l 1
 238 485 l 1
 297 520 l 1
 313 526 l 1
 329 525 l 1
 344 518 l 1
 355 506 l 1
 360 490 l 1
 360 474 l 1
 353 459 l 1
 340 448 l 1
 278 411 l 1
 340 373 l 1
 353 362 l 1
 360 347 l 1
 360 331 l 1
 355 315 l 1
 344 303 l 1
 329 296 l 1
 313 295 l 1
 297 301 l 1
 238 336 l 1
 238 263 l 1
 235 247 l 1
 226 233 l 1
 212 224 l 1
 196 221 l 1
 180 224 l 1
 166 233 l 1
 157 247 l 1
 154 263 l 1
 154 336 l 1
 95 301 l 1
 79 295 l 1
 63 296 l 1
 48 303 l 1
 37 315 l 1
 32 331 l 1
 32 347 l 1
 39 362 l 1
 52 373 l 1
EndSplineSet
EndChar

StartChar: comma
Encoding: 44 44 4
Width: 247
VWidth: 0
Flags: W
HStem: -95 225
VStem: 56 134
LayerCount: 2
Back
Fore
SplineSet
97 10 m 1
 69 37 l 1
 60 50 l 1
 56 67 l 1
 60 83 l 1
 69 96 l 1
 93 121 l 1
 107 130 l 1
 123 133 l 1
 139 130 l 1
 153 121 l 1
 177 96 l 1
 186 83 l 1
 190 67 l 1
 190 17 l 1
 185 -1 l 1
 153 -61 l 1
 128 -86 l 1
 115 -95 l 1
 98 -98 l 1
 82 -95 l 1
 69 -86 l 1
 60 -72 l 1
 56 -56 l 1
 60 -40 l 1
 69 -27 l 1
 88 -7 l 1
 97 10 l 1
EndSplineSet
EndChar

StartChar: period
Encoding: 46 46 5
Width: 247
VWidth: 0
Flags: W
HStem: 3 127
VStem: 56 134
LayerCount: 2
Back
Fore
SplineSet
69 96 m 1
 93 121 l 1
 107 130 l 1
 123 133 l 1
 139 130 l 1
 153 121 l 1
 177 96 l 1
 186 83 l 1
 190 67 l 1
 186 50 l 1
 177 37 l 1
 153 12 l 1
 139 3 l 1
 123 0 l 1
 107 3 l 1
 93 12 l 1
 69 37 l 1
 60 50 l 1
 56 67 l 1
 60 83 l 1
 69 96 l 1
EndSplineSet
EndChar

StartChar: slash
Encoding: 47 47 6
Width: 541
VWidth: 0
Flags: W
HStem: -172 21G<28 60>
LayerCount: 2
Back
Fore
SplineSet
12 -109 m 1
 455 677 l 1
 465 689 l 1
 480 697 l 1
 496 698 l 1
 512 693 l 1
 524 682 l 1
 532 668 l 1
 533 651 l 1
 528 636 l 1
 85 -151 l 1
 75 -163 l 1
 60 -170 l 1
 44 -172 l 1
 28 -167 l 1
 16 -156 l 1
 8 -141 l 1
 7 -125 l 1
 12 -109 l 1
EndSplineSet
EndChar

StartChar: zero
Encoding: 48 48 7
Width: 491
VWidth: 0
Flags: W
HStem: 0 84<230 260> 516 84<230 260>
VStem: 32 108<231.045 368.955> 350 109<231.045 368.955>
LayerCount: 2
Back
Fore
SplineSet
133 573 m 1
 217 600 l 1
 270 600 l 1
 357 573 l 1
 369 567 l 1
 378 557 l 1
 427 483 l 1
 434 468 l 1
 458 345 l 1
 459 263 l 1
 434 132 l 1
 427 117 l 1
 369 33 l 1
 283 2 l 1
 217 0 l 1
 133 27 l 1
 121 33 l 1
 63 117 l 1
 56 132 l 1
 32 255 l 1
 32 345 l 1
 56 468 l 1
 63 483 l 1
 112 557 l 1
 121 567 l 1
 133 573 l 1
260 84 m 1
 294 101 l 1
 309 116 l 1
 328 154 l 1
 350 267 l 1
 350 333 l 1
 328 446 l 1
 309 484 l 1
 294 499 l 1
 260 516 l 1
 230 516 l 1
 196 499 l 1
 181 484 l 1
 162 446 l 1
 140 333 l 1
 140 267 l 1
 162 154 l 1
 181 116 l 1
 196 101 l 1
 230 84 l 1
 260 84 l 1
EndSplineSet
EndChar

StartChar: one
Encoding: 49 49 8
Width: 492
VWidth: 0
Flags: W
HStem: 0 84<131 203 312 384> 580 20G<253 286>
VStem: 203 109<84 441>
LayerCount: 2
Back
Fore
SplineSet
203 441 m 1
 165 422 l 1
 150 418 l 1
 133 420 l 1
 119 428 l 1
 109 441 l 1
 105 457 l 1
 107 473 l 1
 115 487 l 1
 128 497 l 1
 171 519 l 1
 240 588 l 1
 253 597 l 1
 270 600 l 1
 286 597 l 1
 299 588 l 1
 308 574 l 1
 312 558 l 1
 312 84 l 1
 368 84 l 1
 384 81 l 1
 398 72 l 1
 407 58 l 1
 410 42 l 1
 407 26 l 1
 398 12 l 1
 384 3 l 1
 368 0 l 1
 147 0 l 1
 131 3 l 1
 117 12 l 1
 108 26 l 1
 105 42 l 1
 108 58 l 1
 117 72 l 1
 131 81 l 1
 147 84 l 1
 203 84 l 1
 203 441 l 1
EndSplineSet
EndChar

StartChar: two
Encoding: 50 50 9
Width: 492
VWidth: 0
Flags: W
HStem: 0 109<279 334> 516 84<182.632 285>
VStem: 32 84<26 74> 376 84<133 181>
LayerCount: 2
Back
Fore
SplineSet
32 91 m 1
 34 129 l 1
 59 203 l 1
 69 219 l 1
 129 276 l 1
 274 349 l 1
 336 390 l 1
 351 420 l 1
 351 450 l 1
 334 484 l 1
 319 499 l 1
 285 516 l 1
 204 516 l 1
 146 497 l 1
 133 484 l 1
 153 465 l 1
 162 451 l 1
 165 435 l 1
 162 419 l 1
 153 405 l 1
 128 381 l 1
 115 372 l 1
 99 369 l 1
 82 372 l 1
 69 381 l 1
 44 405 l 1
 35 419 l 1
 32 435 l 1
 32 460 l 1
 36 478 l 1
 69 539 l 1
 93 563 l 1
 110 573 l 1
 197 600 l 1
 298 600 l 1
 382 573 l 1
 399 563 l 1
 431 528 l 1
 456 478 l 1
 460 460 l 1
 460 411 l 1
 456 392 l 1
 431 343 l 1
 417 326 l 1
 343 277 l 1
 214 225 l 1
 173 204 l 1
 135 167 l 1
 132 158 l 1
 163 155 l 1
 279 109 l 1
 334 109 l 1
 369 126 l 1
 376 133 l 1
 376 165 l 1
 379 181 l 1
 388 195 l 1
 402 204 l 1
 418 207 l 1
 434 204 l 1
 448 195 l 1
 457 181 l 1
 460 165 l 1
 460 116 l 1
 456 97 l 1
 423 37 l 1
 399 12 l 1
 385 3 l 1
 369 0 l 1
 271 0 l 1
 249 6 l 1
 136 74 l 1
 116 74 l 1
 116 42 l 1
 113 26 l 1
 104 12 l 1
 90 3 l 1
 74 0 l 1
 58 3 l 1
 44 12 l 1
 35 26 l 1
 32 42 l 1
 32 91 l 1
EndSplineSet
EndChar

StartChar: three
Encoding: 51 51 10
Width: 492
VWidth: 0
Flags: W
HStem: 0 84<182.632 285> 295 84<205 285> 516 84<182.632 285>
VStem: 327 108<420 474> 351 109<150 228.368>
LayerCount: 2
Back
Fore
SplineSet
133 484 m 1xf0
 153 465 l 1
 162 451 l 1
 165 435 l 1
 162 419 l 1
 153 405 l 1
 128 381 l 1
 115 372 l 1
 99 369 l 1
 82 372 l 1
 69 381 l 1
 44 405 l 1
 35 419 l 1
 32 460 l 1
 36 478 l 1
 61 528 l 1
 93 563 l 1
 110 573 l 1
 197 600 l 1
 298 600 l 1
 382 573 l 1
 396 565 l 1
 406 552 l 1
 431 503 l 1
 435 484 l 1
 435 411 l 1xf0
 431 392 l 1
 406 343 l 1
 390 326 l 1
 431 282 l 1
 456 233 l 1
 460 214 l 1
 460 140 l 1
 456 122 l 1
 431 72 l 1
 399 37 l 1
 382 27 l 1
 298 0 l 1
 197 0 l 1
 110 27 l 1
 93 37 l 1
 61 72 l 1
 36 122 l 1
 32 140 l 1
 32 165 l 1
 35 181 l 1
 44 195 l 1
 69 219 l 1
 82 228 l 1
 99 231 l 1
 115 228 l 1
 128 219 l 1
 153 195 l 1
 162 181 l 1
 165 165 l 1
 162 149 l 1
 153 135 l 1
 133 116 l 1
 146 103 l 1
 204 84 l 1
 285 84 l 1
 319 101 l 1
 334 116 l 1
 351 150 l 1
 351 207 l 1xe8
 332 265 l 1
 319 278 l 1
 285 295 l 1
 221 295 l 1
 205 298 l 1
 192 307 l 1
 183 321 l 1
 179 337 l 1
 183 353 l 1
 192 367 l 1
 205 376 l 1
 221 379 l 1
 285 379 l 1
 313 393 l 1
 327 420 l 1
 327 474 l 1
 313 502 l 1
 285 516 l 1
 204 516 l 1
 146 497 l 1
 133 484 l 1xf0
EndSplineSet
EndChar

StartChar: four
Encoding: 52 52 11
Width: 492
VWidth: 0
Flags: W
HStem: 0 84<204 252 361 409> 147 84<131 252 361 458> 580 20G<303 335>
VStem: 252 109<84 147 231 396>
LayerCount: 2
Back
Fore
SplineSet
15 214 m 1
 289 588 l 1
 303 597 l 1
 319 600 l 1
 335 597 l 1
 348 588 l 1
 358 574 l 1
 361 558 l 1
 361 231 l 1
 442 231 l 1
 458 228 l 1
 471 219 l 1
 480 206 l 1
 484 189 l 1
 480 173 l 1
 471 160 l 1
 458 151 l 1
 442 147 l 1
 361 147 l 1
 361 84 l 1
 392 84 l 1
 409 81 l 1
 422 72 l 1
 431 58 l 1
 434 42 l 1
 431 26 l 1
 422 12 l 1
 409 3 l 1
 392 0 l 1
 220 0 l 1
 204 3 l 1
 191 12 l 1
 182 26 l 1
 178 42 l 1
 182 58 l 1
 191 72 l 1
 204 81 l 1
 220 84 l 1
 252 84 l 1
 252 147 l 1
 48 147 l 1
 33 150 l 1
 20 158 l 1
 11 170 l 1
 7 185 l 1
 8 200 l 1
 15 214 l 1
252 396 m 1
 131 231 l 1
 252 231 l 1
 252 396 l 1
EndSplineSet
EndChar

StartChar: five
Encoding: 53 53 12
Width: 492
VWidth: 0
Flags: W
HStem: 0 84<184 261> 344 84<182.632 261> 491 109<153 286.75>
VStem: 351 109<174.632 252>
LayerCount: 2
Back
Fore
SplineSet
33 308 m 1
 33 321 l 1
 82 566 l 1
 88 581 l 1
 100 593 l 1
 123 600 l 1
 369 600 l 1
 385 597 l 1
 404 581 l 1
 410 566 l 1
 410 550 l 1
 399 528 l 1
 385 519 l 1
 254 492 l 1
 153 491 l 1
 136 410 l 1
 197 428 l 1
 284 426 l 1
 358 401 l 1
 374 391 l 1
 423 342 l 1
 433 326 l 1
 458 252 l 1
 460 189 l 1
 433 102 l 1
 423 86 l 1
 374 37 l 1
 358 27 l 1
 274 0 l 1
 184 2 l 1
 110 27 l 1
 93 37 l 1
 61 72 l 1
 36 122 l 1
 32 140 l 1
 35 181 l 1
 44 195 l 1
 69 219 l 1
 82 228 l 1
 99 231 l 1
 115 228 l 1
 128 219 l 1
 153 195 l 1
 162 181 l 1
 165 165 l 1
 162 149 l 1
 153 135 l 1
 133 116 l 1
 146 103 l 1
 204 84 l 1
 261 84 l 1
 295 101 l 1
 332 138 l 1
 351 196 l 1
 351 232 l 1
 332 290 l 1
 295 327 l 1
 261 344 l 1
 204 344 l 1
 146 325 l 1
 97 277 l 1
 74 270 l 1
 58 273 l 1
 44 283 l 1
 35 296 l 1
 33 308 l 1
EndSplineSet
EndChar

StartChar: six
Encoding: 54 54 13
Width: 492
VWidth: 0
Flags: W
HStem: 0 84<231 261> 319 82<231.632 261> 516 84<256 310>
VStem: 34 107<176 228.368>
LayerCount: 2
Back
Fore
SplineSet
151 371 m 1
 159 377 l 1
 233 401 l 1
 274 403 l 1
 358 377 l 1
 374 367 l 1
 423 317 l 1
 433 301 l 1
 458 227 l 1
 460 189 l 1
 458 176 l 1
 433 102 l 1
 423 86 l 1
 374 37 l 1
 358 27 l 1
 284 2 l 1
 221 0 l 1
 134 27 l 1
 118 37 l 1
 69 86 l 1
 59 102 l 1
 34 176 l 1
 32 337 l 1
 58 445 l 1
 86 503 l 1
 143 563 l 1
 159 573 l 1
 243 600 l 1
 320 600 l 1
 338 596 l 1
 399 563 l 1
 431 503 l 1
 435 484 l 1
 435 460 l 1
 432 444 l 1
 423 430 l 1
 399 405 l 1
 385 396 l 1
 369 393 l 1
 353 396 l 1
 339 405 l 1
 315 430 l 1
 305 444 l 1
 302 460 l 1
 305 476 l 1
 331 506 l 1
 310 516 l 1
 256 516 l 1
 222 499 l 1
 182 459 l 1
 163 420 l 1
 151 371 l 1
261 84 m 1
 295 101 l 1
 332 138 l 1
 351 196 l 1
 351 207 l 1
 332 265 l 1
 295 302 l 1
 261 319 l 1
 253 319 l 1
 195 300 l 1
 160 265 l 1
 141 207 l 1
 141 196 l 1
 160 138 l 1
 197 101 l 1
 231 84 l 1
 261 84 l 1
EndSplineSet
EndChar

StartChar: seven
Encoding: 55 55 14
Width: 492
VWidth: 0
Flags: W
HStem: 0 21G<205 262> 580 20G<58 90 132 218 402 434>
VStem: 32 84<394 450> 179 109<26 179.333>
LayerCount: 2
Back
Fore
SplineSet
32 411 m 1
 32 558 l 1
 35 574 l 1
 44 588 l 1
 58 597 l 1
 74 600 l 1
 90 597 l 1
 104 588 l 1
 109 579 l 1
 132 597 l 1
 148 600 l 1
 197 600 l 1
 218 594 l 1
 331 526 l 1
 351 526 l 1
 359 534 l 1
 380 577 l 1
 388 588 l 1
 402 597 l 1
 418 600 l 1
 434 597 l 1
 448 588 l 1
 457 574 l 1
 460 558 l 1
 460 484 l 1
 433 397 l 1
 426 384 l 1
 331 265 l 1
 309 222 l 1
 288 158 l 1
 288 42 l 1
 285 26 l 1
 276 12 l 1
 262 3 l 1
 221 0 l 1
 205 3 l 1
 192 12 l 1
 183 26 l 1
 179 42 l 1
 182 178 l 1
 206 252 l 1
 233 306 l 1
 357 433 l 1
 360 442 l 1
 320 442 l 1
 304 445 l 1
 189 491 l 1
 158 491 l 1
 130 478 l 1
 116 450 l 1
 116 411 l 1
 113 394 l 1
 104 381 l 1
 90 372 l 1
 74 369 l 1
 58 372 l 1
 44 381 l 1
 35 394 l 1
 32 411 l 1
EndSplineSet
EndChar

StartChar: eight
Encoding: 56 56 15
Width: 492
VWidth: 0
Flags: W
HStem: 0 84<207 285> 295 84<207 285> 516 84<207 285>
VStem: 32 109<150 229> 57 108<420 474> 327 108<420 474> 351 109<150 229>
LayerCount: 2
Back
Fore
SplineSet
89 338 m 1xf2
 61 392 l 1
 57 411 l 1
 57 484 l 1
 61 503 l 1
 86 552 l 1
 96 565 l 1
 110 573 l 1
 194 600 l 1
 295 600 l 1
 382 573 l 1
 396 565 l 1
 406 552 l 1
 431 503 l 1
 435 484 l 1
 435 411 l 1xec
 431 392 l 1
 403 338 l 1
 431 306 l 1
 456 257 l 1
 460 239 l 1
 460 140 l 1
 456 122 l 1
 423 61 l 1
 399 37 l 1
 382 27 l 1
 298 0 l 1
 194 0 l 1
 110 27 l 1
 93 37 l 1
 61 72 l 1
 36 122 l 1
 32 140 l 1
 32 239 l 1
 36 257 l 1
 61 306 l 1
 89 338 l 1xf2
207 379 m 1
 285 379 l 1
 313 393 l 1
 327 420 l 1
 327 474 l 1
 313 502 l 1
 285 516 l 1
 207 516 l 1
 179 502 l 1
 165 474 l 1
 165 420 l 1
 179 393 l 1
 207 379 l 1
285 84 m 1
 319 101 l 1
 334 116 l 1
 351 150 l 1
 351 229 l 1
 334 263 l 1
 319 278 l 1
 285 295 l 1
 207 295 l 1
 173 278 l 1
 158 263 l 1
 141 229 l 1
 141 150 l 1xf2
 158 116 l 1
 173 101 l 1
 207 84 l 1
 285 84 l 1
EndSplineSet
EndChar

StartChar: nine
Encoding: 57 57 16
Width: 492
VWidth: 0
Flags: W
HStem: 0 84<182 236> 516 84<231 261>
VStem: 351 109<371.632 425.368>
LayerCount: 2
Back
Fore
SplineSet
161 94 m 1
 182 84 l 1
 236 84 l 1
 270 101 l 1
 310 141 l 1
 329 180 l 1
 341 229 l 1
 333 223 l 1
 259 199 l 1
 221 197 l 1
 134 223 l 1
 118 233 l 1
 69 283 l 1
 59 299 l 1
 34 373 l 1
 32 411 l 1
 34 424 l 1
 59 498 l 1
 69 514 l 1
 118 563 l 1
 134 573 l 1
 208 598 l 1
 271 600 l 1
 284 598 l 1
 358 573 l 1
 374 563 l 1
 423 514 l 1
 433 498 l 1
 460 411 l 1
 459 253 l 1
 434 155 l 1
 406 97 l 1
 349 37 l 1
 333 27 l 1
 249 0 l 1
 172 0 l 1
 154 4 l 1
 93 37 l 1
 61 97 l 1
 57 116 l 1
 57 140 l 1
 60 156 l 1
 69 170 l 1
 93 195 l 1
 107 204 l 1
 123 207 l 1
 139 204 l 1
 153 195 l 1
 177 170 l 1
 187 156 l 1
 190 140 l 1
 187 124 l 1
 161 94 l 1
231 281 m 1
 239 281 l 1
 297 300 l 1
 332 335 l 1
 351 393 l 1
 351 404 l 1
 332 462 l 1
 295 499 l 1
 261 516 l 1
 231 516 l 1
 197 499 l 1
 160 462 l 1
 141 404 l 1
 141 393 l 1
 160 335 l 1
 197 298 l 1
 231 281 l 1
EndSplineSet
EndChar

StartChar: colon
Encoding: 58 58 17
Width: 247
VWidth: 0
Flags: W
HStem: 0 21G<107 139> 408 20G<107 139>
VStem: 56 134
LayerCount: 2
Back
Fore
SplineSet
69 96 m 1
 93 121 l 1
 107 130 l 1
 123 133 l 1
 139 130 l 1
 153 121 l 1
 177 96 l 1
 186 83 l 1
 190 67 l 1
 186 50 l 1
 177 37 l 1
 153 12 l 1
 139 3 l 1
 123 0 l 1
 107 3 l 1
 93 12 l 1
 69 37 l 1
 60 50 l 1
 56 67 l 1
 60 83 l 1
 69 96 l 1
69 391 m 1
 93 416 l 1
 107 425 l 1
 123 428 l 1
 139 425 l 1
 153 416 l 1
 177 391 l 1
 186 378 l 1
 190 361 l 1
 186 345 l 1
 177 332 l 1
 153 307 l 1
 139 298 l 1
 123 295 l 1
 107 298 l 1
 93 307 l 1
 69 332 l 1
 60 345 l 1
 56 361 l 1
 60 378 l 1
 69 391 l 1
EndSplineSet
EndChar

StartChar: semicolon
Encoding: 59 59 18
Width: 247
VWidth: 0
Flags: W
HStem: 408 20G<107 139>
VStem: 56 134
LayerCount: 2
Back
Fore
SplineSet
69 391 m 1
 93 416 l 1
 107 425 l 1
 123 428 l 1
 139 425 l 1
 153 416 l 1
 177 391 l 1
 186 378 l 1
 190 361 l 1
 186 345 l 1
 177 332 l 1
 153 307 l 1
 139 298 l 1
 123 295 l 1
 107 298 l 1
 93 307 l 1
 69 332 l 1
 60 345 l 1
 56 361 l 1
 60 378 l 1
 69 391 l 1
97 10 m 1
 69 37 l 1
 60 50 l 1
 56 67 l 1
 60 83 l 1
 69 96 l 1
 93 121 l 1
 107 130 l 1
 123 133 l 1
 139 130 l 1
 153 121 l 1
 177 96 l 1
 186 83 l 1
 190 67 l 1
 190 17 l 1
 185 -1 l 1
 153 -61 l 1
 128 -86 l 1
 115 -95 l 1
 98 -98 l 1
 82 -95 l 1
 69 -86 l 1
 60 -72 l 1
 56 -56 l 1
 60 -40 l 1
 69 -27 l 1
 88 -7 l 1
 97 10 l 1
EndSplineSet
EndChar

StartChar: question
Encoding: 63 63 19
Width: 441
VWidth: 0
Flags: W
HStem: 0 21G<204 236> 516 84<181 235>
VStem: 178 84<198 262>
LayerCount: 2
Back
Fore
SplineSet
132 484 m 1
 151 465 l 1
 161 451 l 1
 164 435 l 1
 161 419 l 1
 151 405 l 1
 127 381 l 1
 113 372 l 1
 97 369 l 1
 81 372 l 1
 67 381 l 1
 43 405 l 1
 34 419 l 1
 31 460 l 1
 35 478 l 1
 60 528 l 1
 92 563 l 1
 152 596 l 1
 171 600 l 1
 248 600 l 1
 332 573 l 1
 348 563 l 1
 373 539 l 1
 405 478 l 1
 409 460 l 1
 409 411 l 1
 405 392 l 1
 380 343 l 1
 373 332 l 1
 337 299 l 1
 262 262 l 1
 262 214 l 1
 259 198 l 1
 250 184 l 1
 236 175 l 1
 220 172 l 1
 204 175 l 1
 190 184 l 1
 181 198 l 1
 178 214 l 1
 178 288 l 1
 181 303 l 1
 189 316 l 1
 201 325 l 1
 244 347 l 1
 284 386 l 1
 301 420 l 1
 301 450 l 1
 284 484 l 1
 269 499 l 1
 235 516 l 1
 181 516 l 1
 147 499 l 1
 132 484 l 1
166 96 m 1
 190 121 l 1
 204 130 l 1
 220 133 l 1
 236 130 l 1
 250 121 l 1
 274 96 l 1
 283 83 l 1
 287 67 l 1
 283 50 l 1
 274 37 l 1
 250 12 l 1
 236 3 l 1
 220 0 l 1
 204 3 l 1
 190 12 l 1
 166 37 l 1
 157 50 l 1
 153 67 l 1
 157 83 l 1
 166 96 l 1
EndSplineSet
EndChar

StartChar: A
Encoding: 65 65 20
Width: 491
VWidth: 0
Flags: W
HStem: 0 84<131 187> 147 84<180 285> 580 20G<232 264>
LayerCount: 2
Back
Fore
SplineSet
43 84 m 1
 207 577 l 1
 217 590 l 1
 232 598 l 1
 248 600 l 1
 264 596 l 1
 277 586 l 1
 285 571 l 1
 447 84 l 1
 482 81 l 1
 496 72 l 1
 505 58 l 1
 508 42 l 1
 505 26 l 1
 496 12 l 1
 482 3 l 1
 466 0 l 1
 319 0 l 1
 303 3 l 1
 289 12 l 1
 280 26 l 1
 277 42 l 1
 280 58 l 1
 289 72 l 1
 303 81 l 1
 334 84 l 1
 313 147 l 1
 152 147 l 1
 131 84 l 1
 171 84 l 1
 187 81 l 1
 201 72 l 1
 210 58 l 1
 213 42 l 1
 210 26 l 1
 201 12 l 1
 187 3 l 1
 171 0 l 1
 24 0 l 1
 8 3 l 1
 -6 12 l 1
 -15 26 l 1
 -18 42 l 1
 -15 58 l 1
 -6 72 l 1
 8 81 l 1
 43 84 l 1
233 388 m 1
 180 231 l 1
 285 231 l 1
 233 388 l 1
EndSplineSet
EndChar

StartChar: B
Encoding: 66 66 21
Width: 540
VWidth: 0
Flags: W
HStem: 0 84<32 80 188 333> 270 84<188 333> 516 84<32 80 188 333>
VStem: 80 108<84 270 354 516> 399 109<150 204 420 450>
LayerCount: 2
Back
Fore
SplineSet
80 516 m 1
 48 516 l 1
 32 519 l 1
 18 528 l 1
 9 542 l 1
 6 558 l 1
 9 574 l 1
 18 588 l 1
 32 597 l 1
 48 600 l 1
 346 600 l 1
 430 573 l 1
 446 563 l 1
 471 539 l 1
 503 478 l 1
 508 460 l 1
 508 411 l 1
 503 392 l 1
 479 343 l 1
 451 312 l 1
 479 282 l 1
 503 233 l 1
 508 214 l 1
 508 140 l 1
 503 122 l 1
 479 72 l 1
 446 37 l 1
 430 27 l 1
 346 0 l 1
 48 0 l 1
 32 3 l 1
 18 12 l 1
 9 26 l 1
 6 42 l 1
 9 58 l 1
 18 72 l 1
 32 81 l 1
 48 84 l 1
 80 84 l 1
 80 516 l 1
188 516 m 1
 188 354 l 1
 333 354 l 1
 367 371 l 1
 382 386 l 1
 399 420 l 1
 399 450 l 1
 382 484 l 1
 367 499 l 1
 333 516 l 1
 188 516 l 1
188 84 m 1
 333 84 l 1
 367 101 l 1
 382 116 l 1
 399 150 l 1
 399 204 l 1
 382 238 l 1
 367 253 l 1
 333 270 l 1
 188 270 l 1
 188 84 l 1
EndSplineSet
EndChar

StartChar: C
Encoding: 67 67 22
Width: 516
VWidth: 0
Flags: W
HStem: 2 82<255 309.368> 516 83<255 308>
VStem: 31 109<223.667 376.333>
LayerCount: 2
Back
Fore
SplineSet
239 599 m 1
 308 598 l 1
 382 573 l 1
 399 562 l 1
 411 586 l 1
 424 596 l 1
 440 600 l 1
 457 597 l 1
 471 588 l 1
 481 574 l 1
 484 558 l 1
 484 411 l 1
 481 394 l 1
 471 380 l 1
 457 371 l 1
 440 369 l 1
 424 373 l 1
 411 383 l 1
 402 397 l 1
 381 462 l 1
 346 497 l 1
 288 516 l 1
 255 516 l 1
 221 499 l 1
 182 459 l 1
 161 419 l 1
 140 355 l 1
 140 245 l 1
 161 181 l 1
 182 141 l 1
 221 101 l 1
 255 84 l 1
 288 84 l 1
 346 103 l 1
 383 141 l 1
 404 184 l 1
 414 197 l 1
 429 205 l 1
 445 207 l 1
 461 202 l 1
 474 192 l 1
 482 178 l 1
 484 162 l 1
 480 146 l 1
 455 97 l 1
 398 37 l 1
 382 27 l 1
 295 0 l 1
 232 2 l 1
 158 27 l 1
 142 37 l 1
 85 97 l 1
 58 152 l 1
 31 239 l 1
 34 375 l 1
 58 448 l 1
 85 503 l 1
 142 563 l 1
 158 573 l 1
 239 599 l 1
EndSplineSet
EndChar

StartChar: D
Encoding: 68 68 23
Width: 540
VWidth: 0
Flags: W
HStem: 0 84<32 80 188 284> 516 84<32 80 188 284>
VStem: 80 108<84 516> 399 109<223.667 376.333>
LayerCount: 2
Back
Fore
SplineSet
80 516 m 1
 48 516 l 1
 32 519 l 1
 18 528 l 1
 9 542 l 1
 6 558 l 1
 9 574 l 1
 18 588 l 1
 32 597 l 1
 48 600 l 1
 297 600 l 1
 381 573 l 1
 397 563 l 1
 454 503 l 1
 481 448 l 1
 505 375 l 1
 508 239 l 1
 481 152 l 1
 454 97 l 1
 397 37 l 1
 381 27 l 1
 294 0 l 1
 48 0 l 1
 32 3 l 1
 18 12 l 1
 9 26 l 1
 6 42 l 1
 9 58 l 1
 18 72 l 1
 32 81 l 1
 48 84 l 1
 80 84 l 1
 80 516 l 1
188 516 m 1
 188 84 l 1
 284 84 l 1
 318 101 l 1
 357 141 l 1
 378 181 l 1
 399 245 l 1
 399 355 l 1
 378 419 l 1
 357 459 l 1
 318 499 l 1
 284 516 l 1
 188 516 l 1
EndSplineSet
EndChar

StartChar: E
Encoding: 69 69 24
Width: 515
VWidth: 0
Flags: W
HStem: 0 84<32 80 188 381> 270 84<188 252> 516 84<32 80 188 381>
VStem: 80 108<84 270 354 516> 252 84<198 270 354 427>
LayerCount: 2
Back
Fore
SplineSet
80 516 m 1
 48 516 l 1
 32 519 l 1
 18 528 l 1
 9 542 l 1
 6 558 l 1
 9 574 l 1
 18 588 l 1
 32 597 l 1
 48 600 l 1
 441 600 l 1
 457 597 l 1
 471 588 l 1
 480 574 l 1
 483 558 l 1
 483 411 l 1
 480 395 l 1
 472 382 l 1
 459 373 l 1
 444 369 l 1
 429 370 l 1
 415 377 l 1
 405 389 l 1
 400 404 l 1
 381 516 l 1
 188 516 l 1
 188 354 l 1
 252 354 l 1
 252 411 l 1
 255 427 l 1
 264 440 l 1
 277 449 l 1
 294 453 l 1
 310 449 l 1
 323 440 l 1
 332 427 l 1
 336 411 l 1
 336 214 l 1
 332 198 l 1
 323 184 l 1
 310 175 l 1
 294 172 l 1
 277 175 l 1
 264 184 l 1
 255 198 l 1
 252 214 l 1
 252 270 l 1
 188 270 l 1
 188 84 l 1
 381 84 l 1
 400 196 l 1
 405 211 l 1
 415 223 l 1
 429 230 l 1
 444 231 l 1
 459 227 l 1
 472 218 l 1
 480 205 l 1
 483 189 l 1
 483 42 l 1
 480 26 l 1
 471 12 l 1
 457 3 l 1
 441 0 l 1
 48 0 l 1
 32 3 l 1
 18 12 l 1
 9 26 l 1
 6 42 l 1
 9 58 l 1
 18 72 l 1
 32 81 l 1
 48 84 l 1
 80 84 l 1
 80 516 l 1
EndSplineSet
EndChar

StartChar: F
Encoding: 70 70 25
Width: 490
VWidth: 0
Flags: W
HStem: 0 84<32 80 188 236> 270 84<188 252> 516 84<32 80 188 381>
VStem: 80 108<84 270 354 516> 252 84<198 270 354 427>
LayerCount: 2
Back
Fore
SplineSet
80 516 m 1
 48 516 l 1
 32 519 l 1
 18 528 l 1
 9 542 l 1
 6 558 l 1
 9 574 l 1
 18 588 l 1
 32 597 l 1
 48 600 l 1
 441 600 l 1
 457 597 l 1
 471 588 l 1
 480 574 l 1
 483 558 l 1
 483 411 l 1
 480 395 l 1
 472 382 l 1
 459 373 l 1
 444 369 l 1
 429 370 l 1
 415 377 l 1
 405 389 l 1
 400 404 l 1
 381 516 l 1
 188 516 l 1
 188 354 l 1
 252 354 l 1
 252 411 l 1
 255 427 l 1
 264 440 l 1
 277 449 l 1
 294 453 l 1
 310 449 l 1
 323 440 l 1
 332 427 l 1
 336 411 l 1
 336 214 l 1
 332 198 l 1
 323 184 l 1
 310 175 l 1
 294 172 l 1
 277 175 l 1
 264 184 l 1
 255 198 l 1
 252 214 l 1
 252 270 l 1
 188 270 l 1
 188 84 l 1
 220 84 l 1
 236 81 l 1
 250 72 l 1
 259 58 l 1
 262 42 l 1
 259 26 l 1
 250 12 l 1
 236 3 l 1
 220 0 l 1
 48 0 l 1
 32 3 l 1
 18 12 l 1
 9 26 l 1
 6 42 l 1
 9 58 l 1
 18 72 l 1
 32 81 l 1
 48 84 l 1
 80 84 l 1
 80 516 l 1
EndSplineSet
EndChar

StartChar: G
Encoding: 71 71 26
Width: 566
VWidth: 0
Flags: W
HStem: 0 84<255 308> 197 84<328 375 484 532> 516 83<255 308>
VStem: 31 109<223.667 376.333> 375 109<133 197>
LayerCount: 2
Back
Fore
SplineSet
239 599 m 1
 308 598 l 1
 382 573 l 1
 399 562 l 1
 411 586 l 1
 424 596 l 1
 440 600 l 1
 457 597 l 1
 471 588 l 1
 481 574 l 1
 484 558 l 1
 484 411 l 1
 481 394 l 1
 471 380 l 1
 457 371 l 1
 440 369 l 1
 424 373 l 1
 411 383 l 1
 402 397 l 1
 381 462 l 1
 346 497 l 1
 288 516 l 1
 255 516 l 1
 221 499 l 1
 182 459 l 1
 161 419 l 1
 140 355 l 1
 140 245 l 1
 161 181 l 1
 182 141 l 1
 221 101 l 1
 255 84 l 1
 288 84 l 1
 346 103 l 1
 375 133 l 1
 375 197 l 1
 344 197 l 1
 328 200 l 1
 314 209 l 1
 305 222 l 1
 302 239 l 1
 305 255 l 1
 314 268 l 1
 328 277 l 1
 344 281 l 1
 516 281 l 1
 532 277 l 1
 545 268 l 1
 555 255 l 1
 558 239 l 1
 555 222 l 1
 545 209 l 1
 532 200 l 1
 516 197 l 1
 484 197 l 1
 484 42 l 1
 481 26 l 1
 472 12 l 1
 458 3 l 1
 417 0 l 1
 401 3 l 1
 388 12 l 1
 379 26 l 1
 308 2 l 1
 242 0 l 1
 158 27 l 1
 142 37 l 1
 93 86 l 1
 58 152 l 1
 31 239 l 1
 31 361 l 1
 58 448 l 1
 93 514 l 1
 142 563 l 1
 158 573 l 1
 239 599 l 1
EndSplineSet
EndChar

StartChar: H
Encoding: 72 72 27
Width: 591
VWidth: 0
Flags: W
HStem: 0 84<33 81 190 237 353 400 509 557> 270 84<190 400> 516 84<33 81 190 237 353 400 509 557>
VStem: 81 109<84 270 354 516> 400 109<84 270 354 516>
LayerCount: 2
Back
Fore
SplineSet
81 516 m 1
 49 516 l 1
 33 519 l 1
 20 528 l 1
 10 542 l 1
 7 558 l 1
 10 574 l 1
 20 588 l 1
 33 597 l 1
 49 600 l 1
 221 600 l 1
 237 597 l 1
 251 588 l 1
 260 574 l 1
 263 558 l 1
 260 542 l 1
 251 528 l 1
 237 519 l 1
 221 516 l 1
 190 516 l 1
 190 354 l 1
 400 354 l 1
 400 516 l 1
 369 516 l 1
 353 519 l 1
 339 528 l 1
 330 542 l 1
 327 558 l 1
 330 574 l 1
 339 588 l 1
 353 597 l 1
 369 600 l 1
 541 600 l 1
 557 597 l 1
 570 588 l 1
 580 574 l 1
 583 558 l 1
 580 542 l 1
 570 528 l 1
 557 519 l 1
 541 516 l 1
 509 516 l 1
 509 84 l 1
 541 84 l 1
 557 81 l 1
 570 72 l 1
 580 58 l 1
 583 42 l 1
 580 26 l 1
 570 12 l 1
 557 3 l 1
 541 0 l 1
 369 0 l 1
 353 3 l 1
 339 12 l 1
 330 26 l 1
 327 42 l 1
 330 58 l 1
 339 72 l 1
 353 81 l 1
 369 84 l 1
 400 84 l 1
 400 270 l 1
 190 270 l 1
 190 84 l 1
 221 84 l 1
 237 81 l 1
 251 72 l 1
 260 58 l 1
 263 42 l 1
 260 26 l 1
 251 12 l 1
 237 3 l 1
 221 0 l 1
 49 0 l 1
 33 3 l 1
 20 12 l 1
 10 26 l 1
 7 42 l 1
 10 58 l 1
 20 72 l 1
 33 81 l 1
 49 84 l 1
 81 84 l 1
 81 516 l 1
EndSplineSet
EndChar

StartChar: I
Encoding: 73 73 28
Width: 270
VWidth: 0
Flags: W
HStem: 0 84<33 81 190 237> 516 84<33 81 190 237>
VStem: 81 109<84 516>
LayerCount: 2
Back
Fore
SplineSet
81 516 m 1
 49 516 l 1
 33 519 l 1
 20 528 l 1
 10 542 l 1
 7 558 l 1
 10 574 l 1
 20 588 l 1
 33 597 l 1
 49 600 l 1
 221 600 l 1
 237 597 l 1
 251 588 l 1
 260 574 l 1
 263 558 l 1
 260 542 l 1
 251 528 l 1
 237 519 l 1
 221 516 l 1
 190 516 l 1
 190 84 l 1
 221 84 l 1
 237 81 l 1
 251 72 l 1
 260 58 l 1
 263 42 l 1
 260 26 l 1
 251 12 l 1
 237 3 l 1
 221 0 l 1
 49 0 l 1
 33 3 l 1
 20 12 l 1
 10 26 l 1
 7 42 l 1
 10 58 l 1
 20 72 l 1
 33 81 l 1
 49 84 l 1
 81 84 l 1
 81 516 l 1
EndSplineSet
EndChar

StartChar: J
Encoding: 74 74 29
Width: 369
VWidth: 0
Flags: W
HStem: 0 21G<104 188> 516 84<131 179 288 336>
VStem: 179 109<125.632 516>
LayerCount: 2
Back
Fore
SplineSet
100 108 m 1
 105 98 l 1
 133 84 l 1
 155 84 l 1
 160 89 l 1
 179 147 l 1
 179 516 l 1
 147 516 l 1
 131 519 l 1
 118 528 l 1
 109 542 l 1
 105 558 l 1
 109 574 l 1
 118 588 l 1
 131 597 l 1
 147 600 l 1
 319 600 l 1
 336 597 l 1
 349 588 l 1
 358 574 l 1
 361 558 l 1
 358 542 l 1
 349 528 l 1
 336 519 l 1
 319 516 l 1
 288 516 l 1
 288 140 l 1
 261 53 l 1
 253 39 l 1
 240 29 l 1
 188 3 l 1
 172 0 l 1
 123 0 l 1
 104 4 l 1
 44 37 l 1
 12 97 l 1
 7 116 l 1
 7 165 l 1
 10 181 l 1
 19 195 l 1
 44 219 l 1
 58 228 l 1
 74 231 l 1
 90 228 l 1
 103 219 l 1
 128 195 l 1
 137 181 l 1
 140 165 l 1
 137 149 l 1
 128 135 l 1
 100 108 l 1
EndSplineSet
EndChar

StartChar: K
Encoding: 75 75 30
Width: 541
VWidth: 0
Flags: W
HStem: 0 84<33 81 190 237> 516 84<33 81 190 237 353 366 484 532>
VStem: 81 109<84 221 340 516>
LayerCount: 2
Back
Fore
SplineSet
81 516 m 1
 49 516 l 1
 33 519 l 1
 20 528 l 1
 10 542 l 1
 7 558 l 1
 10 574 l 1
 20 588 l 1
 33 597 l 1
 49 600 l 1
 221 600 l 1
 237 597 l 1
 251 588 l 1
 260 574 l 1
 263 558 l 1
 260 542 l 1
 251 528 l 1
 237 519 l 1
 221 516 l 1
 190 516 l 1
 190 340 l 1
 366 517 l 1
 353 519 l 1
 339 528 l 1
 330 542 l 1
 327 558 l 1
 330 574 l 1
 339 588 l 1
 353 597 l 1
 369 600 l 1
 516 600 l 1
 532 597 l 1
 546 588 l 1
 555 574 l 1
 558 558 l 1
 555 542 l 1
 546 528 l 1
 532 519 l 1
 516 516 l 1
 484 516 l 1
 315 346 l 1
 489 84 l 1
 532 81 l 1
 546 72 l 1
 555 58 l 1
 558 42 l 1
 555 26 l 1
 546 12 l 1
 532 3 l 1
 516 0 l 1
 369 0 l 1
 353 3 l 1
 339 12 l 1
 330 26 l 1
 327 42 l 1
 330 58 l 1
 339 72 l 1
 353 81 l 1
 365 83 l 1
 239 271 l 1
 190 221 l 1
 190 84 l 1
 221 84 l 1
 237 81 l 1
 251 72 l 1
 260 58 l 1
 263 42 l 1
 260 26 l 1
 251 12 l 1
 237 3 l 1
 221 0 l 1
 49 0 l 1
 33 3 l 1
 20 12 l 1
 10 26 l 1
 7 42 l 1
 10 58 l 1
 20 72 l 1
 33 81 l 1
 49 84 l 1
 81 84 l 1
 81 516 l 1
EndSplineSet
EndChar

StartChar: L
Encoding: 76 76 31
Width: 443
VWidth: 0
Flags: W
HStem: 0 84<33 81 189 357> 516 84<33 81 189 237>
VStem: 81 108<84 516> 357 103<84 125.263>
LayerCount: 2
Back
Fore
SplineSet
81 516 m 1
 49 516 l 1
 33 519 l 1
 19 528 l 1
 10 542 l 1
 7 558 l 1
 10 574 l 1
 19 588 l 1
 33 597 l 1
 49 600 l 1
 221 600 l 1
 237 597 l 1
 251 588 l 1
 260 574 l 1
 263 558 l 1
 260 542 l 1
 251 528 l 1
 237 519 l 1
 221 516 l 1
 189 516 l 1
 189 84 l 1
 357 84 l 1
 376 196 l 1
 381 211 l 1
 392 223 l 1
 406 230 l 1
 421 231 l 1
 436 227 l 1
 448 218 l 1
 457 205 l 1
 460 189 l 1
 460 42 l 1
 456 26 l 1
 447 12 l 1
 434 3 l 1
 418 0 l 1
 49 0 l 1
 33 3 l 1
 19 12 l 1
 10 26 l 1
 7 42 l 1
 10 58 l 1
 19 72 l 1
 33 81 l 1
 49 84 l 1
 81 84 l 1
 81 516 l 1
EndSplineSet
EndChar

StartChar: M
Encoding: 77 77 32
Width: 614
VWidth: 0
Flags: W
HStem: 0 84<33 81 165 213 377 425 534 581> 516 84<33 81 534 581>
VStem: 81 84<84 299> 425 109<84 299>
LayerCount: 2
Back
Fore
SplineSet
81 516 m 1
 49 516 l 1
 33 519 l 1
 20 528 l 1
 10 542 l 1
 7 558 l 1
 10 574 l 1
 20 588 l 1
 33 597 l 1
 49 600 l 1
 148 600 l 1
 166 596 l 1
 179 586 l 1
 187 571 l 1
 307 212 l 1
 427 571 l 1
 435 586 l 1
 451 597 l 1
 467 600 l 1
 565 600 l 1
 581 597 l 1
 595 588 l 1
 604 574 l 1
 607 558 l 1
 604 542 l 1
 595 528 l 1
 581 519 l 1
 565 516 l 1
 534 516 l 1
 534 84 l 1
 565 84 l 1
 581 81 l 1
 595 72 l 1
 604 58 l 1
 607 42 l 1
 604 26 l 1
 595 12 l 1
 581 3 l 1
 565 0 l 1
 393 0 l 1
 377 3 l 1
 364 12 l 1
 354 26 l 1
 351 42 l 1
 354 58 l 1
 364 72 l 1
 377 81 l 1
 393 84 l 1
 425 84 l 1
 425 299 l 1
 333 23 l 1
 323 10 l 1
 308 2 l 1
 292 0 l 1
 276 4 l 1
 263 14 l 1
 255 29 l 1
 165 299 l 1
 165 84 l 1
 197 84 l 1
 213 81 l 1
 226 72 l 1
 236 58 l 1
 239 42 l 1
 236 26 l 1
 226 12 l 1
 213 3 l 1
 197 0 l 1
 49 0 l 1
 33 3 l 1
 20 12 l 1
 10 26 l 1
 7 42 l 1
 10 58 l 1
 20 72 l 1
 33 81 l 1
 49 84 l 1
 81 84 l 1
 81 516 l 1
EndSplineSet
EndChar

StartChar: N
Encoding: 78 78 33
Width: 565
VWidth: 0
Flags: W
HStem: 0 84<32 80 164 211> 516 84<32 80 351 399 483 531>
VStem: 80 84<84 403> 399 84<236 516>
LayerCount: 2
Back
Fore
SplineSet
80 516 m 1
 48 516 l 1
 32 519 l 1
 18 528 l 1
 9 542 l 1
 6 558 l 1
 9 574 l 1
 18 588 l 1
 32 597 l 1
 48 600 l 1
 146 600 l 1
 162 597 l 1
 176 588 l 1
 399 236 l 1
 399 516 l 1
 367 516 l 1
 351 519 l 1
 338 528 l 1
 328 542 l 1
 325 558 l 1
 328 574 l 1
 338 588 l 1
 351 597 l 1
 367 600 l 1
 515 600 l 1
 531 597 l 1
 544 588 l 1
 554 574 l 1
 557 558 l 1
 554 542 l 1
 544 528 l 1
 531 519 l 1
 515 516 l 1
 483 516 l 1
 483 42 l 1
 480 26 l 1
 463 6 l 1
 448 1 l 1
 432 1 l 1
 417 8 l 1
 405 20 l 1
 164 403 l 1
 164 84 l 1
 195 84 l 1
 211 81 l 1
 225 72 l 1
 234 58 l 1
 237 42 l 1
 234 26 l 1
 225 12 l 1
 211 3 l 1
 195 0 l 1
 48 0 l 1
 32 3 l 1
 18 12 l 1
 9 26 l 1
 6 42 l 1
 9 58 l 1
 18 72 l 1
 32 81 l 1
 48 84 l 1
 80 84 l 1
 80 516 l 1
EndSplineSet
EndChar

StartChar: O
Encoding: 79 79 34
Width: 540
VWidth: 0
Flags: W
HStem: 0 84<254 284> 516 84<254 284>
VStem: 32 107<240 360> 399 109<240 360>
LayerCount: 2
Back
Fore
SplineSet
157 573 m 1
 241 600 l 1
 294 600 l 1
 381 573 l 1
 397 563 l 1
 446 514 l 1
 482 445 l 1
 506 347 l 1
 508 263 l 1
 479 146 l 1
 446 86 l 1
 397 37 l 1
 381 27 l 1
 307 2 l 1
 241 0 l 1
 157 27 l 1
 141 37 l 1
 92 86 l 1
 56 155 l 1
 32 253 l 1
 32 347 l 1
 56 445 l 1
 84 503 l 1
 141 563 l 1
 157 573 l 1
284 84 m 1
 318 101 l 1
 357 141 l 1
 377 180 l 1
 399 268 l 1
 399 332 l 1
 377 420 l 1
 357 459 l 1
 318 499 l 1
 284 516 l 1
 254 516 l 1
 220 499 l 1
 181 459 l 1
 161 420 l 1
 139 332 l 1
 139 268 l 1
 161 180 l 1
 181 141 l 1
 220 101 l 1
 254 84 l 1
 284 84 l 1
EndSplineSet
EndChar

StartChar: P
Encoding: 80 80 35
Width: 540
VWidth: 0
Flags: W
HStem: 0 84<32 80 188 236> 246 84<188 333> 516 84<32 80 188 333>
VStem: 80 108<84 246 330 516> 399 109<396 450>
LayerCount: 2
Back
Fore
SplineSet
80 516 m 1
 48 516 l 1
 32 519 l 1
 18 528 l 1
 9 542 l 1
 6 558 l 1
 9 574 l 1
 18 588 l 1
 32 597 l 1
 48 600 l 1
 346 600 l 1
 430 573 l 1
 446 563 l 1
 479 528 l 1
 503 478 l 1
 508 460 l 1
 508 386 l 1
 503 367 l 1
 479 318 l 1
 446 283 l 1
 430 272 l 1
 346 246 l 1
 188 246 l 1
 188 84 l 1
 220 84 l 1
 236 81 l 1
 250 72 l 1
 259 58 l 1
 262 42 l 1
 259 26 l 1
 250 12 l 1
 236 3 l 1
 220 0 l 1
 48 0 l 1
 32 3 l 1
 18 12 l 1
 9 26 l 1
 6 42 l 1
 9 58 l 1
 18 72 l 1
 32 81 l 1
 48 84 l 1
 80 84 l 1
 80 516 l 1
188 516 m 1
 188 330 l 1
 333 330 l 1
 367 347 l 1
 382 362 l 1
 399 396 l 1
 399 450 l 1
 382 484 l 1
 367 499 l 1
 333 516 l 1
 188 516 l 1
EndSplineSet
EndChar

StartChar: Q
Encoding: 81 81 36
Width: 540
VWidth: 0
Flags: W
HStem: 0 84<254 284> 516 84<254 284>
VStem: 32 107<240.667 360> 399 107<240 360>
LayerCount: 2
Back
Fore
SplineSet
295 600 m 1
 381 573 l 1
 397 563 l 1
 446 514 l 1
 482 445 l 1
 506 347 l 1
 506 253 l 1
 482 155 l 1
 454 97 l 1
 404 44 l 1
 407 32 l 1
 424 -3 l 1
 427 9 l 1
 436 23 l 1
 449 32 l 1
 466 35 l 1
 482 32 l 1
 495 23 l 1
 504 9 l 1
 508 -7 l 1
 504 -48 l 1
 479 -100 l 1
 469 -112 l 1
 456 -120 l 1
 441 -123 l 1
 392 -123 l 1
 376 -120 l 1
 362 -111 l 1
 330 -75 l 1
 316 5 l 1
 297 0 l 1
 241 0 l 1
 157 27 l 1
 141 37 l 1
 84 97 l 1
 56 155 l 1
 32 253 l 1
 32 347 l 1
 56 445 l 1
 92 514 l 1
 141 563 l 1
 157 573 l 1
 241 600 l 1
 295 600 l 1
160 186 m 1
 177 202 l 1
 226 227 l 1
 244 231 l 1
 269 231 l 1
 288 227 l 1
 348 195 l 1
 367 160 l 1
 377 180 l 1
 399 268 l 1
 399 332 l 1
 377 420 l 1
 357 459 l 1
 318 499 l 1
 284 516 l 1
 254 516 l 1
 220 499 l 1
 181 459 l 1
 161 420 l 1
 139 332 l 1
 139 268 l 1
 160 186 l 1
303 94 m 1
 302 103 l 1
 287 134 l 1
 259 147 l 1
 227 134 l 1
 214 108 l 1
 220 101 l 1
 254 84 l 1
 284 84 l 1
 303 94 l 1
EndSplineSet
EndChar

StartChar: R
Encoding: 82 82 37
Width: 539
VWidth: 0
Flags: W
HStem: 0 84<32 80 188 236> 270 84<188 259> 516 84<32 80 188 333>
VStem: 80 108<84 270 354 516>
LayerCount: 2
Back
Fore
SplineSet
80 516 m 1
 48 516 l 1
 32 519 l 1
 18 528 l 1
 9 542 l 1
 6 558 l 1
 9 574 l 1
 18 588 l 1
 32 597 l 1
 48 600 l 1
 346 600 l 1
 430 573 l 1
 446 563 l 1
 471 539 l 1
 503 478 l 1
 508 460 l 1
 508 411 l 1
 503 392 l 1
 479 343 l 1
 446 307 l 1
 430 297 l 1
 381 281 l 1
 449 121 l 1
 451 132 l 1
 460 145 l 1
 474 155 l 1
 490 158 l 1
 506 155 l 1
 520 145 l 1
 529 132 l 1
 532 91 l 1
 529 75 l 1
 503 23 l 1
 494 11 l 1
 481 3 l 1
 466 0 l 1
 416 0 l 1
 400 3 l 1
 387 12 l 1
 362 37 l 1
 351 55 l 1
 303 223 l 1
 287 256 l 1
 259 270 l 1
 188 270 l 1
 188 84 l 1
 220 84 l 1
 236 81 l 1
 250 72 l 1
 259 58 l 1
 262 42 l 1
 259 26 l 1
 250 12 l 1
 236 3 l 1
 220 0 l 1
 48 0 l 1
 32 3 l 1
 18 12 l 1
 9 26 l 1
 6 42 l 1
 9 58 l 1
 18 72 l 1
 32 81 l 1
 48 84 l 1
 80 84 l 1
 80 516 l 1
188 516 m 1
 188 354 l 1
 333 354 l 1
 367 371 l 1
 382 386 l 1
 399 420 l 1
 399 450 l 1
 382 484 l 1
 367 499 l 1
 333 516 l 1
 188 516 l 1
EndSplineSet
EndChar

StartChar: S
Encoding: 83 83 38
Width: 492
VWidth: 0
Flags: W
HStem: 0 21G<59 92> 2 82<208 308> 516 82<184 285.368> 580 20G<400 433>
VStem: 376 84<133 197>
LayerCount: 2
Back
Fore
SplineSet
32 435 m 1x48
 32 484 l 1
 35 500 l 1
 44 514 l 1
 93 563 l 1
 110 573 l 1
 184 598 l 1x68
 271 600 l 1
 358 573 l 1
 375 562 l 1
 387 586 l 1
 400 596 l 1
 416 600 l 1x18
 433 597 l 1
 447 588 l 1
 457 574 l 1
 460 558 l 1
 460 411 l 1
 457 394 l 1
 447 380 l 1
 433 371 l 1
 416 369 l 1
 400 373 l 1
 387 383 l 1
 378 397 l 1
 357 462 l 1
 322 497 l 1
 264 516 l 1
 204 516 l 1
 146 497 l 1
 116 467 l 1
 116 453 l 1
 148 421 l 1
 188 400 l 1
 338 350 l 1
 388 325 l 1
 423 293 l 1
 456 233 l 1
 460 214 l 1
 460 116 l 1
 457 100 l 1
 448 86 l 1
 399 37 l 1
 382 27 l 1
 308 2 l 1x68
 221 0 l 1x88
 208 2 l 1x48
 134 27 l 1
 117 38 l 1
 105 14 l 1
 92 4 l 1
 76 0 l 1x88
 59 3 l 1
 45 12 l 1
 35 26 l 1
 32 42 l 1
 32 189 l 1
 35 206 l 1
 45 220 l 1
 59 229 l 1
 76 231 l 1
 92 227 l 1
 105 217 l 1
 114 203 l 1
 135 138 l 1
 170 103 l 1
 228 84 l 1
 288 84 l 1
 346 103 l 1
 376 133 l 1
 376 197 l 1
 344 229 l 1
 304 249 l 1
 159 297 l 1
 104 324 l 1
 69 356 l 1
 61 367 l 1
 35 419 l 1
 32 435 l 1x48
EndSplineSet
EndChar

StartChar: T
Encoding: 84 84 39
Width: 468
VWidth: 0
Flags: W
HStem: 0 84<131 179 288 335> 516 84<109 179 288 357>
VStem: 179 109<84 516>
LayerCount: 2
Back
Fore
SplineSet
109 516 m 1
 90 404 l 1
 85 389 l 1
 75 377 l 1
 61 370 l 1
 46 369 l 1
 31 373 l 1
 18 382 l 1
 10 395 l 1
 7 411 l 1
 7 558 l 1
 10 574 l 1
 19 588 l 1
 33 597 l 1
 49 600 l 1
 418 600 l 1
 434 597 l 1
 447 588 l 1
 456 574 l 1
 460 558 l 1
 460 411 l 1
 457 395 l 1
 448 382 l 1
 436 373 l 1
 421 369 l 1
 406 370 l 1
 392 377 l 1
 381 389 l 1
 376 404 l 1
 357 516 l 1
 288 516 l 1
 288 84 l 1
 319 84 l 1
 335 81 l 1
 349 72 l 1
 358 58 l 1
 361 42 l 1
 358 26 l 1
 349 12 l 1
 335 3 l 1
 319 0 l 1
 147 0 l 1
 131 3 l 1
 118 12 l 1
 108 26 l 1
 105 42 l 1
 108 58 l 1
 118 72 l 1
 131 81 l 1
 147 84 l 1
 179 84 l 1
 179 516 l 1
 109 516 l 1
EndSplineSet
EndChar

StartChar: U
Encoding: 85 85 40
Width: 591
VWidth: 0
Flags: W
HStem: 0 84<280 333> 516 84<33 81 190 237 377 425 509 557>
VStem: 81 109<174.632 516> 425 84<176 516>
LayerCount: 2
Back
Fore
SplineSet
81 516 m 1
 49 516 l 1
 33 519 l 1
 20 528 l 1
 10 542 l 1
 7 558 l 1
 10 574 l 1
 20 588 l 1
 33 597 l 1
 49 600 l 1
 221 600 l 1
 237 597 l 1
 251 588 l 1
 260 574 l 1
 263 558 l 1
 260 542 l 1
 251 528 l 1
 237 519 l 1
 221 516 l 1
 190 516 l 1
 190 196 l 1
 209 138 l 1
 246 101 l 1
 280 84 l 1
 313 84 l 1
 371 103 l 1
 406 138 l 1
 425 196 l 1
 425 516 l 1
 393 516 l 1
 377 519 l 1
 364 528 l 1
 354 542 l 1
 351 558 l 1
 354 574 l 1
 364 588 l 1
 377 597 l 1
 393 600 l 1
 541 600 l 1
 557 597 l 1
 570 588 l 1
 580 574 l 1
 583 558 l 1
 580 542 l 1
 570 528 l 1
 557 519 l 1
 541 516 l 1
 509 516 l 1
 509 189 l 1
 507 176 l 1
 482 102 l 1
 472 86 l 1
 423 37 l 1
 407 27 l 1
 333 2 l 1
 267 0 l 1
 183 27 l 1
 167 37 l 1
 118 86 l 1
 108 102 l 1
 81 189 l 1
 81 516 l 1
EndSplineSet
EndChar

StartChar: V
Encoding: 86 86 41
Width: 491
VWidth: 0
Flags: W
HStem: 0 21G<232 264> 516 84<303 359>
LayerCount: 2
Back
Fore
SplineSet
43 516 m 1
 8 519 l 1
 -6 528 l 1
 -15 542 l 1
 -18 558 l 1
 -15 574 l 1
 -6 588 l 1
 8 597 l 1
 24 600 l 1
 171 600 l 1
 187 597 l 1
 201 588 l 1
 210 574 l 1
 213 558 l 1
 210 542 l 1
 201 528 l 1
 187 519 l 1
 156 516 l 1
 257 212 l 1
 359 516 l 1
 319 516 l 1
 303 519 l 1
 289 528 l 1
 280 542 l 1
 277 558 l 1
 280 574 l 1
 289 588 l 1
 303 597 l 1
 319 600 l 1
 466 600 l 1
 482 597 l 1
 496 588 l 1
 505 574 l 1
 508 558 l 1
 505 542 l 1
 496 528 l 1
 482 519 l 1
 447 516 l 1
 285 29 l 1
 277 14 l 1
 264 4 l 1
 248 0 l 1
 232 2 l 1
 217 10 l 1
 207 23 l 1
 43 516 l 1
EndSplineSet
EndChar

StartChar: W
Encoding: 87 87 42
Width: 589
VWidth: 0
Flags: W
HStem: 1 21G<172 219 369 416> 516 84<8 63 173 212 401 440 525 580>
LayerCount: 2
Back
Fore
SplineSet
63 516 m 1
 24 516 l 1
 8 519 l 1
 -6 528 l 1
 -15 542 l 1
 -18 558 l 1
 -15 574 l 1
 -6 588 l 1
 8 597 l 1
 24 600 l 1
 196 600 l 1
 212 597 l 1
 225 588 l 1
 235 574 l 1
 238 558 l 1
 235 542 l 1
 225 528 l 1
 212 519 l 1
 173 516 l 1
 208 329 l 1
 253 567 l 1
 259 581 l 1
 271 593 l 1
 286 599 l 1
 327 599 l 1
 342 593 l 1
 354 581 l 1
 360 566 l 1
 404 329 l 1
 440 516 l 1
 401 519 l 1
 387 528 l 1
 378 542 l 1
 375 558 l 1
 378 574 l 1
 387 588 l 1
 401 597 l 1
 417 600 l 1
 564 600 l 1
 580 597 l 1
 594 588 l 1
 603 574 l 1
 606 558 l 1
 603 542 l 1
 594 528 l 1
 580 519 l 1
 564 516 l 1
 525 516 l 1
 433 33 l 1
 427 18 l 1
 416 7 l 1
 400 1 l 1
 384 1 l 1
 369 7 l 1
 357 19 l 1
 351 33 l 1
 294 334 l 1
 237 33 l 1
 231 19 l 1
 219 7 l 1
 204 1 l 1
 187 1 l 1
 172 7 l 1
 161 18 l 1
 154 34 l 1
 63 516 l 1
EndSplineSet
EndChar

StartChar: X
Encoding: 88 88 43
Width: 491
VWidth: 0
Flags: W
HStem: 0 21G<8 187 303 482> 580 20G<8 187 303 482>
LayerCount: 2
Back
Fore
SplineSet
51 84 m 1
 189 291 l 1
 50 516 l 1
 8 519 l 1
 -6 528 l 1
 -15 542 l 1
 -18 558 l 1
 -15 574 l 1
 -6 588 l 1
 8 597 l 1
 24 600 l 1
 171 600 l 1
 187 597 l 1
 201 588 l 1
 210 574 l 1
 213 558 l 1
 210 542 l 1
 201 528 l 1
 187 519 l 1
 173 516 l 1
 253 387 l 1
 339 516 l 1
 303 519 l 1
 289 528 l 1
 280 542 l 1
 277 558 l 1
 280 574 l 1
 289 588 l 1
 303 597 l 1
 319 600 l 1
 466 600 l 1
 482 597 l 1
 496 588 l 1
 505 574 l 1
 508 558 l 1
 505 542 l 1
 496 528 l 1
 482 519 l 1
 439 516 l 1
 301 309 l 1
 440 84 l 1
 482 81 l 1
 496 72 l 1
 505 58 l 1
 508 42 l 1
 505 26 l 1
 496 12 l 1
 482 3 l 1
 466 0 l 1
 319 0 l 1
 303 3 l 1
 289 12 l 1
 280 26 l 1
 277 42 l 1
 280 58 l 1
 289 72 l 1
 303 81 l 1
 317 84 l 1
 237 213 l 1
 151 84 l 1
 187 81 l 1
 201 72 l 1
 210 58 l 1
 213 42 l 1
 210 26 l 1
 201 12 l 1
 187 3 l 1
 171 0 l 1
 24 0 l 1
 8 3 l 1
 -6 12 l 1
 -15 26 l 1
 -18 42 l 1
 -15 58 l 1
 -6 72 l 1
 8 81 l 1
 51 84 l 1
EndSplineSet
EndChar

StartChar: Y
Encoding: 89 89 44
Width: 516
VWidth: 0
Flags: W
HStem: 0 84<155 203 312 359> 580 20G<8 187 327 507>
VStem: 203 109<84 275>
LayerCount: 2
Back
Fore
SplineSet
50 516 m 1
 8 519 l 1
 -6 528 l 1
 -15 542 l 1
 -18 558 l 1
 -15 574 l 1
 -6 588 l 1
 8 597 l 1
 24 600 l 1
 171 600 l 1
 187 597 l 1
 201 588 l 1
 210 574 l 1
 213 558 l 1
 210 542 l 1
 201 528 l 1
 187 519 l 1
 174 516 l 1
 270 366 l 1
 365 516 l 1
 327 519 l 1
 314 528 l 1
 304 542 l 1
 301 558 l 1
 304 574 l 1
 314 588 l 1
 327 597 l 1
 343 600 l 1
 491 600 l 1
 507 597 l 1
 520 588 l 1
 530 574 l 1
 533 558 l 1
 530 542 l 1
 520 528 l 1
 507 519 l 1
 465 516 l 1
 312 275 l 1
 312 84 l 1
 343 84 l 1
 359 81 l 1
 373 72 l 1
 382 58 l 1
 385 42 l 1
 382 26 l 1
 373 12 l 1
 359 3 l 1
 343 0 l 1
 171 0 l 1
 155 3 l 1
 142 12 l 1
 132 26 l 1
 129 42 l 1
 132 58 l 1
 142 72 l 1
 155 81 l 1
 171 84 l 1
 203 84 l 1
 203 275 l 1
 50 516 l 1
EndSplineSet
EndChar

StartChar: Z
Encoding: 90 90 45
Width: 492
VWidth: 0
Flags: W
HStem: 0 84<174 358> 516 84<134 318>
LayerCount: 2
Back
Fore
SplineSet
134 516 m 1
 115 404 l 1
 110 389 l 1
 100 377 l 1
 86 370 l 1
 71 369 l 1
 56 373 l 1
 43 382 l 1
 35 395 l 1
 32 411 l 1
 32 558 l 1
 35 574 l 1
 44 588 l 1
 58 597 l 1
 74 600 l 1
 418 600 l 1
 440 594 l 1
 452 583 l 1
 460 558 l 1
 454 536 l 1
 174 84 l 1
 358 84 l 1
 377 196 l 1
 382 211 l 1
 392 223 l 1
 406 230 l 1
 421 231 l 1
 436 227 l 1
 449 218 l 1
 457 205 l 1
 460 189 l 1
 460 42 l 1
 457 26 l 1
 448 12 l 1
 434 3 l 1
 418 0 l 1
 74 0 l 1
 52 6 l 1
 40 17 l 1
 32 42 l 1
 38 64 l 1
 318 516 l 1
 134 516 l 1
EndSplineSet
EndChar

StartChar: bracketleft
Encoding: 91 91 46
Width: 344
VWidth: 0
Flags: W
HStem: -172 84<165 286> 614 84<165 286>
VStem: 56 109<-88 614>
LayerCount: 2
Back
Fore
SplineSet
56 656 m 1
 59 672 l 1
 69 686 l 1
 82 695 l 1
 98 698 l 1
 270 698 l 1
 286 695 l 1
 300 686 l 1
 309 672 l 1
 312 656 l 1
 309 640 l 1
 300 627 l 1
 286 617 l 1
 270 614 l 1
 165 614 l 1
 165 -88 l 1
 270 -88 l 1
 286 -91 l 1
 300 -100 l 1
 309 -114 l 1
 312 -130 l 1
 309 -146 l 1
 300 -160 l 1
 286 -169 l 1
 270 -172 l 1
 98 -172 l 1
 82 -169 l 1
 69 -160 l 1
 59 -146 l 1
 56 -130 l 1
 56 656 l 1
EndSplineSet
EndChar

StartChar: bracketright
Encoding: 93 93 47
Width: 344
VWidth: 0
Flags: W
HStem: -172 84<57 178> 614 84<57 178>
VStem: 178 109<-88 614>
LayerCount: 2
Back
Fore
SplineSet
178 614 m 1
 73 614 l 1
 57 617 l 1
 43 627 l 1
 34 640 l 1
 31 656 l 1
 34 672 l 1
 43 686 l 1
 57 695 l 1
 73 698 l 1
 245 698 l 1
 261 695 l 1
 274 686 l 1
 284 672 l 1
 287 656 l 1
 287 -130 l 1
 284 -146 l 1
 274 -160 l 1
 261 -169 l 1
 245 -172 l 1
 73 -172 l 1
 57 -169 l 1
 43 -160 l 1
 34 -146 l 1
 31 -130 l 1
 34 -114 l 1
 43 -100 l 1
 57 -91 l 1
 73 -88 l 1
 178 -88 l 1
 178 614 l 1
EndSplineSet
EndChar

StartChar: a
Encoding: 97 97 48
Width: 490
VWidth: 0
Flags: W
HStem: 0 84<181 235> 344 84<181 259>
VStem: 301 108<133 218 305 306>
LayerCount: 2
Back
Fore
SplineSet
164 335 m 1
 161 296 l 1
 151 283 l 1
 138 273 l 1
 97 270 l 1
 81 273 l 1
 67 283 l 1
 58 296 l 1
 55 337 l 1
 58 353 l 1
 67 367 l 1
 103 399 l 1
 152 424 l 1
 171 428 l 1
 269 428 l 1
 288 424 l 1
 337 399 l 1
 373 367 l 1
 405 306 l 1
 409 288 l 1
 409 126 l 1
 427 91 l 1
 434 84 l 1
 457 81 l 1
 471 72 l 1
 480 58 l 1
 483 42 l 1
 480 26 l 1
 471 12 l 1
 457 3 l 1
 441 0 l 1
 400 3 l 1
 349 29 l 1
 332 45 l 1
 312 29 l 1
 263 4 l 1
 245 0 l 1
 168 0 l 1
 84 27 l 1
 70 35 l 1
 60 48 l 1
 35 97 l 1
 31 116 l 1
 31 165 l 1
 35 184 l 1
 60 233 l 1
 70 246 l 1
 84 254 l 1
 158 278 l 1
 298 302 l 1
 301 305 l 1
 301 319 l 1
 293 327 l 1
 259 344 l 1
 181 344 l 1
 164 335 l 1
184 198 m 1
 153 183 l 1
 139 155 l 1
 139 126 l 1
 153 98 l 1
 181 84 l 1
 235 84 l 1
 269 101 l 1
 301 133 l 1
 301 218 l 1
 184 198 l 1
EndSplineSet
EndChar

StartChar: b
Encoding: 98 98 49
Width: 515
VWidth: 0
Flags: W
HStem: 0 84<254 284> 344 84<254 284> 516 84<32 80>
VStem: 80 108<133 295 405 516> 374 109<174.632 252>
LayerCount: 2
Back
Fore
SplineSet
80 516 m 1
 48 516 l 1
 32 519 l 1
 18 528 l 1
 9 542 l 1
 6 558 l 1
 9 574 l 1
 18 588 l 1
 32 597 l 1
 48 600 l 1
 146 600 l 1
 162 597 l 1
 176 588 l 1
 185 574 l 1
 188 558 l 1
 188 405 l 1
 226 424 l 1
 244 428 l 1
 307 426 l 1
 381 401 l 1
 397 391 l 1
 446 342 l 1
 456 326 l 1
 481 252 l 1
 483 189 l 1
 456 102 l 1
 446 86 l 1
 397 37 l 1
 381 27 l 1
 294 0 l 1
 244 0 l 1
 226 4 l 1
 184 25 l 1
 176 12 l 1
 162 3 l 1
 122 0 l 1
 105 3 l 1
 92 12 l 1
 83 26 l 1
 80 42 l 1
 80 516 l 1
284 84 m 1
 318 101 l 1
 355 138 l 1
 374 196 l 1
 374 232 l 1
 355 290 l 1
 318 327 l 1
 284 344 l 1
 254 344 l 1
 220 327 l 1
 188 295 l 1
 188 133 l 1
 220 101 l 1
 254 84 l 1
 284 84 l 1
EndSplineSet
EndChar

StartChar: c
Encoding: 99 99 50
Width: 467
VWidth: 0
Flags: W
HStem: 2 82<231 285.368> 344 83<231 285>
VStem: 32 109<174.632 252>
LayerCount: 2
Back
Fore
SplineSet
215 427 m 1
 295 428 l 1
 314 424 l 1
 363 399 l 1
 423 342 l 1
 432 328 l 1
 435 312 l 1
 432 272 l 1
 423 258 l 1
 399 233 l 1
 385 224 l 1
 369 221 l 1
 353 224 l 1
 339 233 l 1
 315 258 l 1
 305 272 l 1
 302 288 l 1
 305 304 l 1
 322 325 l 1
 285 344 l 1
 231 344 l 1
 197 327 l 1
 160 290 l 1
 141 232 l 1
 141 196 l 1
 160 138 l 1
 197 101 l 1
 231 84 l 1
 264 84 l 1
 322 103 l 1
 364 145 l 1
 377 155 l 1
 393 158 l 1
 410 155 l 1
 423 145 l 1
 432 132 l 1
 435 116 l 1
 432 100 l 1
 423 86 l 1
 374 37 l 1
 358 27 l 1
 271 0 l 1
 208 2 l 1
 134 27 l 1
 118 37 l 1
 69 86 l 1
 59 102 l 1
 32 189 l 1
 34 252 l 1
 59 326 l 1
 69 342 l 1
 118 391 l 1
 134 401 l 1
 215 427 l 1
EndSplineSet
EndChar

StartChar: d
Encoding: 100 100 51
Width: 516
VWidth: 0
Flags: W
HStem: 0 84<231 261 435 483> 344 83<231 261> 516 84<279 327>
VStem: 32 109<174.632 252> 327 108<133 295 405 516>
LayerCount: 2
Back
Fore
SplineSet
215 427 m 1
 271 428 l 1
 289 424 l 1
 327 405 l 1
 327 516 l 1
 295 516 l 1
 279 519 l 1
 265 528 l 1
 256 542 l 1
 253 558 l 1
 256 574 l 1
 265 588 l 1
 279 597 l 1
 295 600 l 1
 393 600 l 1
 410 597 l 1
 423 588 l 1
 432 574 l 1
 435 558 l 1
 435 84 l 1
 467 84 l 1
 483 81 l 1
 497 72 l 1
 506 58 l 1
 509 42 l 1
 506 26 l 1
 497 12 l 1
 483 3 l 1
 467 0 l 1
 369 0 l 1
 353 3 l 1
 339 12 l 1
 331 25 l 1
 289 4 l 1
 271 0 l 1
 208 2 l 1
 134 27 l 1
 118 37 l 1
 69 86 l 1
 59 102 l 1
 32 189 l 1
 34 252 l 1
 59 326 l 1
 69 342 l 1
 118 391 l 1
 134 401 l 1
 215 427 l 1
327 295 m 1
 295 327 l 1
 261 344 l 1
 231 344 l 1
 197 327 l 1
 160 290 l 1
 141 232 l 1
 141 196 l 1
 160 138 l 1
 197 101 l 1
 231 84 l 1
 261 84 l 1
 295 101 l 1
 327 133 l 1
 327 295 l 1
EndSplineSet
EndChar

StartChar: e
Encoding: 101 101 52
Width: 467
VWidth: 0
Flags: W
HStem: 2 82<231 285.368> 197 84<157 327> 344 84<231 285>
LayerCount: 2
Back
Fore
SplineSet
220 428 m 1
 295 428 l 1
 314 424 l 1
 363 399 l 1
 399 367 l 1
 406 356 l 1
 431 306 l 1
 435 288 l 1
 435 239 l 1
 432 222 l 1
 423 209 l 1
 410 200 l 1
 393 197 l 1
 141 197 l 1
 160 138 l 1
 197 101 l 1
 231 84 l 1
 264 84 l 1
 322 103 l 1
 364 145 l 1
 377 155 l 1
 393 158 l 1
 410 155 l 1
 423 145 l 1
 432 132 l 1
 435 116 l 1
 432 100 l 1
 423 86 l 1
 374 37 l 1
 358 27 l 1
 271 0 l 1
 208 2 l 1
 134 27 l 1
 118 37 l 1
 69 86 l 1
 59 102 l 1
 32 189 l 1
 34 252 l 1
 59 326 l 1
 69 342 l 1
 118 391 l 1
 134 401 l 1
 220 428 l 1
231 344 m 1
 197 327 l 1
 160 290 l 1
 157 281 l 1
 327 281 l 1
 327 302 l 1
 313 330 l 1
 285 344 l 1
 231 344 l 1
EndSplineSet
EndChar

StartChar: f
Encoding: 102 102 53
Width: 319
VWidth: 0
Flags: W
HStem: 0 84<33 81 189 237> 344 84<33 81 189 262> 580 20G<180 262>
VStem: 81 108<84 344 428 474>
LayerCount: 2
Back
Fore
SplineSet
81 428 m 1
 81 484 l 1
 85 503 l 1
 110 552 l 1
 118 563 l 1
 129 571 l 1
 180 597 l 1
 197 600 l 1
 246 600 l 1
 262 597 l 1
 275 588 l 1
 300 563 l 1
 309 550 l 1
 312 509 l 1
 309 493 l 1
 300 479 l 1
 275 455 l 1
 262 445 l 1
 246 442 l 1
 230 445 l 1
 216 455 l 1
 192 479 l 1
 189 474 l 1
 189 428 l 1
 246 428 l 1
 262 425 l 1
 275 416 l 1
 285 402 l 1
 288 386 l 1
 285 370 l 1
 275 356 l 1
 262 347 l 1
 246 344 l 1
 189 344 l 1
 189 84 l 1
 221 84 l 1
 237 81 l 1
 251 72 l 1
 260 58 l 1
 263 42 l 1
 260 26 l 1
 251 12 l 1
 237 3 l 1
 221 0 l 1
 49 0 l 1
 33 3 l 1
 19 12 l 1
 10 26 l 1
 7 42 l 1
 10 58 l 1
 19 72 l 1
 33 81 l 1
 49 84 l 1
 81 84 l 1
 81 344 l 1
 49 344 l 1
 33 347 l 1
 19 356 l 1
 10 370 l 1
 7 386 l 1
 10 402 l 1
 19 416 l 1
 33 425 l 1
 49 428 l 1
 81 428 l 1
EndSplineSet
EndChar

StartChar: g
Encoding: 103 103 54
Width: 467
VWidth: 0
Flags: W
HStem: -172 84<154 288> -25 109<163.737 308> 98 84<206 236> 344 84<206 236>
VStem: 56 109<224 302> 277 109<224 288>
LayerCount: 2
Back
Fore
SplineSet
32 91 m 1
 32 116 l 1
 36 134 l 1
 61 184 l 1
 72 198 l 1
 61 220 l 1
 56 239 l 1
 56 288 l 1
 61 306 l 1
 85 356 l 1
 120 393 l 1
 178 424 l 1
 193 428 l 1
 246 428 l 1
 264 424 l 1
 319 395 l 1
 374 424 l 1
 391 428 l 1
 407 425 l 1
 422 417 l 1
 432 403 l 1
 435 386 l 1
 432 345 l 1
 423 332 l 1
 409 323 l 1
 375 319 l 1
 386 288 l 1
 386 239 l 1
 381 220 l 1
 349 160 l 1
 313 127 l 1
 264 103 l 1
 246 98 l 1
 196 98 l 1
 178 103 l 1
 127 128 l 1
 116 108 l 1
 121 103 l 1
 179 84 l 1
 308 82 l 1
 382 57 l 1
 396 49 l 1
 406 36 l 1
 432 -16 l 1
 435 -56 l 1
 431 -75 l 1
 406 -124 l 1
 396 -137 l 1
 382 -145 l 1
 295 -172 l 1
 147 -172 l 1
 60 -145 l 1
 46 -137 l 1
 36 -124 l 1
 11 -75 l 1
 7 -56 l 1
 7 -32 l 1
 11 -13 l 1
 36 36 l 1
 47 50 l 1
 35 75 l 1
 32 91 l 1
263 330 m 1
 236 344 l 1
 206 344 l 1
 179 330 l 1
 165 302 l 1
 165 224 l 1
 179 196 l 1
 206 182 l 1
 236 182 l 1
 263 196 l 1
 277 224 l 1
 277 302 l 1
 263 330 l 1
350 -48 m 1
 346 -44 l 1
 288 -25 l 1
 172 -25 l 1
 123 -10 l 1
 103 -17 l 1
 91 -42 l 1
 103 -71 l 1
 154 -88 l 1
 288 -88 l 1
 339 -71 l 1
 350 -48 l 1
EndSplineSet
EndChar

StartChar: h
Encoding: 104 104 55
Width: 539
VWidth: 0
Flags: W
HStem: 0 84<32 80 188 236 302 350 458 506> 344 82<256 308> 516 84<32 80>
VStem: 80 108<84 295 403 516> 350 108<84 302>
LayerCount: 2
Back
Fore
SplineSet
80 516 m 1
 48 516 l 1
 32 519 l 1
 18 528 l 1
 9 542 l 1
 6 558 l 1
 9 574 l 1
 18 588 l 1
 32 597 l 1
 48 600 l 1
 146 600 l 1
 162 597 l 1
 176 588 l 1
 185 574 l 1
 188 558 l 1
 188 403 l 1
 256 426 l 1
 321 428 l 1
 405 401 l 1
 419 393 l 1
 429 380 l 1
 454 331 l 1
 458 312 l 1
 458 84 l 1
 490 84 l 1
 506 81 l 1
 520 72 l 1
 529 58 l 1
 532 42 l 1
 529 26 l 1
 520 12 l 1
 506 3 l 1
 490 0 l 1
 318 0 l 1
 302 3 l 1
 288 12 l 1
 279 26 l 1
 276 42 l 1
 279 58 l 1
 288 72 l 1
 302 81 l 1
 318 84 l 1
 350 84 l 1
 350 302 l 1
 336 330 l 1
 308 344 l 1
 276 344 l 1
 218 325 l 1
 188 295 l 1
 188 84 l 1
 220 84 l 1
 236 81 l 1
 250 72 l 1
 259 58 l 1
 262 42 l 1
 259 26 l 1
 250 12 l 1
 236 3 l 1
 220 0 l 1
 48 0 l 1
 32 3 l 1
 18 12 l 1
 9 26 l 1
 6 42 l 1
 9 58 l 1
 18 72 l 1
 32 81 l 1
 48 84 l 1
 80 84 l 1
 80 516 l 1
EndSplineSet
EndChar

StartChar: i
Encoding: 105 105 56
Width: 270
VWidth: 0
Flags: W
HStem: 0 84<33 81 190 237> 344 84<33 81> 580 20G<107 139>
VStem: 81 109<84 344>
LayerCount: 2
Back
Fore
SplineSet
81 344 m 1
 49 344 l 1
 33 347 l 1
 20 356 l 1
 10 370 l 1
 7 386 l 1
 10 402 l 1
 20 416 l 1
 33 425 l 1
 49 428 l 1
 148 428 l 1
 164 425 l 1
 177 416 l 1
 186 402 l 1
 190 386 l 1
 190 84 l 1
 221 84 l 1
 237 81 l 1
 251 72 l 1
 260 58 l 1
 263 42 l 1
 260 26 l 1
 251 12 l 1
 237 3 l 1
 221 0 l 1
 49 0 l 1
 33 3 l 1
 20 12 l 1
 10 26 l 1
 7 42 l 1
 10 58 l 1
 20 72 l 1
 33 81 l 1
 49 84 l 1
 81 84 l 1
 81 344 l 1
69 563 m 1
 93 588 l 1
 107 597 l 1
 123 600 l 1
 139 597 l 1
 153 588 l 1
 177 563 l 1
 186 550 l 1
 190 533 l 1
 186 517 l 1
 177 504 l 1
 153 479 l 1
 139 470 l 1
 123 467 l 1
 107 470 l 1
 93 479 l 1
 69 504 l 1
 60 517 l 1
 56 533 l 1
 60 550 l 1
 69 563 l 1
EndSplineSet
EndChar

StartChar: j
Encoding: 106 106 57
Width: 269
VWidth: 0
Flags: W
HStem: -172 21G<32 114> 344 84<57 105> 580 20G<130 163>
VStem: 105 108<-46 344>
LayerCount: 2
Back
Fore
SplineSet
171 428 m 1
 187 425 l 1
 201 416 l 1
 210 402 l 1
 213 386 l 1
 213 -56 l 1
 209 -75 l 1
 184 -124 l 1
 176 -135 l 1
 165 -143 l 1
 114 -169 l 1
 97 -172 l 1
 48 -172 l 1
 32 -169 l 1
 19 -160 l 1
 -6 -135 l 1
 -15 -122 l 1
 -18 -105 l 1
 -15 -65 l 1
 -6 -51 l 1
 19 -27 l 1
 32 -17 l 1
 48 -14 l 1
 64 -17 l 1
 78 -27 l 1
 102 -51 l 1
 105 -46 l 1
 105 344 l 1
 73 344 l 1
 57 347 l 1
 43 356 l 1
 34 370 l 1
 31 386 l 1
 34 402 l 1
 43 416 l 1
 57 425 l 1
 73 428 l 1
 171 428 l 1
92 563 m 1
 117 588 l 1
 130 597 l 1
 147 600 l 1
 163 597 l 1
 176 588 l 1
 201 563 l 1
 210 550 l 1
 213 533 l 1
 210 517 l 1
 201 504 l 1
 176 479 l 1
 163 470 l 1
 147 467 l 1
 130 470 l 1
 117 479 l 1
 92 504 l 1
 83 517 l 1
 80 533 l 1
 83 550 l 1
 92 563 l 1
EndSplineSet
EndChar

StartChar: k
Encoding: 107 107 58
Width: 516
VWidth: 0
Flags: W
HStem: 0 84<32 80 188 236 437 482> 344 84<409 482> 516 84<32 80>
VStem: 80 108<84 123 242 516>
LayerCount: 2
Back
Fore
SplineSet
80 516 m 1
 48 516 l 1
 32 519 l 1
 18 528 l 1
 9 542 l 1
 6 558 l 1
 9 574 l 1
 18 588 l 1
 32 597 l 1
 48 600 l 1
 146 600 l 1
 162 597 l 1
 176 588 l 1
 185 574 l 1
 188 558 l 1
 188 242 l 1
 297 351 l 1
 288 356 l 1
 279 370 l 1
 276 386 l 1
 279 402 l 1
 288 416 l 1
 302 425 l 1
 318 428 l 1
 466 428 l 1
 482 425 l 1
 495 416 l 1
 504 402 l 1
 508 386 l 1
 504 370 l 1
 495 356 l 1
 482 347 l 1
 466 344 l 1
 409 344 l 1
 314 249 l 1
 437 84 l 1
 466 84 l 1
 482 81 l 1
 495 72 l 1
 504 58 l 1
 508 42 l 1
 504 26 l 1
 495 12 l 1
 482 3 l 1
 466 0 l 1
 318 0 l 1
 302 3 l 1
 288 12 l 1
 279 26 l 1
 276 42 l 1
 279 58 l 1
 288 72 l 1
 309 82 l 1
 240 175 l 1
 188 123 l 1
 188 84 l 1
 220 84 l 1
 236 81 l 1
 250 72 l 1
 259 58 l 1
 262 42 l 1
 259 26 l 1
 250 12 l 1
 236 3 l 1
 220 0 l 1
 48 0 l 1
 32 3 l 1
 18 12 l 1
 9 26 l 1
 6 42 l 1
 9 58 l 1
 18 72 l 1
 32 81 l 1
 48 84 l 1
 80 84 l 1
 80 516 l 1
EndSplineSet
EndChar

StartChar: l
Encoding: 108 108 59
Width: 270
VWidth: 0
Flags: W
HStem: 0 84<33 81 190 237> 516 84<33 81>
VStem: 81 109<84 516>
LayerCount: 2
Back
Fore
SplineSet
81 516 m 1
 49 516 l 1
 33 519 l 1
 20 528 l 1
 10 542 l 1
 7 558 l 1
 10 574 l 1
 20 588 l 1
 33 597 l 1
 49 600 l 1
 148 600 l 1
 164 597 l 1
 177 588 l 1
 186 574 l 1
 190 558 l 1
 190 84 l 1
 221 84 l 1
 237 81 l 1
 251 72 l 1
 260 58 l 1
 263 42 l 1
 260 26 l 1
 251 12 l 1
 237 3 l 1
 221 0 l 1
 49 0 l 1
 33 3 l 1
 20 12 l 1
 10 26 l 1
 7 42 l 1
 10 58 l 1
 20 72 l 1
 33 81 l 1
 49 84 l 1
 81 84 l 1
 81 516 l 1
EndSplineSet
EndChar

StartChar: m
Encoding: 109 109 60
Width: 812
VWidth: 0
Flags: W
HStem: 0 84<33 81 189 237 303 351 460 507 573 621 730 778> 344 84<33 81 264.789 309 534.789 580>
VStem: 81 108<84 295> 351 109<84 295> 621 109<84 302>
LayerCount: 2
Back
Fore
SplineSet
81 344 m 1
 49 344 l 1
 33 347 l 1
 19 356 l 1
 10 370 l 1
 7 386 l 1
 10 402 l 1
 19 416 l 1
 33 425 l 1
 49 428 l 1
 147 428 l 1
 163 425 l 1
 177 416 l 1
 186 402 l 1
 257 426 l 1
 322 428 l 1
 406 401 l 1
 421 393 l 1
 429 383 l 1
 453 401 l 1
 527 426 l 1
 590 428 l 1
 677 401 l 1
 691 393 l 1
 701 380 l 1
 725 331 l 1
 730 312 l 1
 730 84 l 1
 762 84 l 1
 778 81 l 1
 791 72 l 1
 800 58 l 1
 804 42 l 1
 800 26 l 1
 791 12 l 1
 778 3 l 1
 762 0 l 1
 590 0 l 1
 573 3 l 1
 560 12 l 1
 551 26 l 1
 548 42 l 1
 551 58 l 1
 560 72 l 1
 573 81 l 1
 590 84 l 1
 621 84 l 1
 621 302 l 1
 607 330 l 1
 580 344 l 1
 547 344 l 1
 489 325 l 1
 460 295 l 1
 460 84 l 1
 491 84 l 1
 507 81 l 1
 521 72 l 1
 530 58 l 1
 533 42 l 1
 530 26 l 1
 521 12 l 1
 507 3 l 1
 491 0 l 1
 319 0 l 1
 303 3 l 1
 290 12 l 1
 280 26 l 1
 277 42 l 1
 280 58 l 1
 290 72 l 1
 303 81 l 1
 319 84 l 1
 351 84 l 1
 351 302 l 1
 337 330 l 1
 309 344 l 1
 277 344 l 1
 219 325 l 1
 189 295 l 1
 189 84 l 1
 221 84 l 1
 237 81 l 1
 251 72 l 1
 260 58 l 1
 263 42 l 1
 260 26 l 1
 251 12 l 1
 237 3 l 1
 221 0 l 1
 49 0 l 1
 33 3 l 1
 19 12 l 1
 10 26 l 1
 7 42 l 1
 10 58 l 1
 19 72 l 1
 33 81 l 1
 49 84 l 1
 81 84 l 1
 81 344 l 1
EndSplineSet
EndChar

StartChar: n
Encoding: 110 110 61
Width: 539
VWidth: 0
Flags: W
HStem: 0 84<32 80 188 236 302 350 458 506> 344 84<32 80 263.789 308>
VStem: 80 108<84 295> 350 108<84 302>
LayerCount: 2
Back
Fore
SplineSet
80 344 m 1
 48 344 l 1
 32 347 l 1
 18 356 l 1
 9 370 l 1
 6 386 l 1
 9 402 l 1
 18 416 l 1
 32 425 l 1
 48 428 l 1
 146 428 l 1
 162 425 l 1
 176 416 l 1
 185 402 l 1
 256 426 l 1
 321 428 l 1
 405 401 l 1
 419 393 l 1
 429 380 l 1
 454 331 l 1
 458 312 l 1
 458 84 l 1
 490 84 l 1
 506 81 l 1
 520 72 l 1
 529 58 l 1
 532 42 l 1
 529 26 l 1
 520 12 l 1
 506 3 l 1
 490 0 l 1
 318 0 l 1
 302 3 l 1
 288 12 l 1
 279 26 l 1
 276 42 l 1
 279 58 l 1
 288 72 l 1
 302 81 l 1
 318 84 l 1
 350 84 l 1
 350 302 l 1
 336 330 l 1
 308 344 l 1
 276 344 l 1
 218 325 l 1
 188 295 l 1
 188 84 l 1
 220 84 l 1
 236 81 l 1
 250 72 l 1
 259 58 l 1
 262 42 l 1
 259 26 l 1
 250 12 l 1
 236 3 l 1
 220 0 l 1
 48 0 l 1
 32 3 l 1
 18 12 l 1
 9 26 l 1
 6 42 l 1
 9 58 l 1
 18 72 l 1
 32 81 l 1
 48 84 l 1
 80 84 l 1
 80 344 l 1
EndSplineSet
EndChar

StartChar: o
Encoding: 111 111 62
Width: 492
VWidth: 0
Flags: W
HStem: 0 84<231 261> 344 84<231 261>
VStem: 34 107<176 252> 351 109<174.632 252>
LayerCount: 2
Back
Fore
SplineSet
134 401 m 1
 218 428 l 1
 284 426 l 1
 358 401 l 1
 374 391 l 1
 423 342 l 1
 433 326 l 1
 458 252 l 1
 460 189 l 1
 433 102 l 1
 423 86 l 1
 374 37 l 1
 358 27 l 1
 284 2 l 1
 218 0 l 1
 134 27 l 1
 118 37 l 1
 69 86 l 1
 59 102 l 1
 34 176 l 1
 32 239 l 1
 34 252 l 1
 59 326 l 1
 69 342 l 1
 118 391 l 1
 134 401 l 1
261 84 m 1
 295 101 l 1
 332 138 l 1
 351 196 l 1
 351 232 l 1
 332 290 l 1
 295 327 l 1
 261 344 l 1
 231 344 l 1
 197 327 l 1
 160 290 l 1
 141 232 l 1
 141 196 l 1
 160 138 l 1
 197 101 l 1
 231 84 l 1
 261 84 l 1
EndSplineSet
EndChar

StartChar: p
Encoding: 112 112 63
Width: 515
VWidth: 0
Flags: W
HStem: -172 84<32 80 188 236> 0 84<254 284> 344 84<32 80 254 284>
VStem: 80 108<-88 23 133 295> 374 109<176 252>
LayerCount: 2
Back
Fore
SplineSet
80 344 m 1
 48 344 l 1
 32 347 l 1
 18 356 l 1
 9 370 l 1
 6 386 l 1
 9 402 l 1
 18 416 l 1
 32 425 l 1
 48 428 l 1
 146 428 l 1
 162 425 l 1
 176 416 l 1
 184 403 l 1
 226 424 l 1
 244 428 l 1
 307 426 l 1
 381 401 l 1
 397 391 l 1
 446 342 l 1
 456 326 l 1
 481 252 l 1
 483 189 l 1
 481 176 l 1
 456 102 l 1
 446 86 l 1
 397 37 l 1
 381 27 l 1
 297 0 l 1
 244 0 l 1
 226 4 l 1
 188 23 l 1
 188 -88 l 1
 220 -88 l 1
 236 -91 l 1
 250 -100 l 1
 259 -114 l 1
 262 -130 l 1
 259 -146 l 1
 250 -160 l 1
 236 -169 l 1
 220 -172 l 1
 48 -172 l 1
 32 -169 l 1
 18 -160 l 1
 9 -146 l 1
 6 -130 l 1
 9 -114 l 1
 18 -100 l 1
 32 -91 l 1
 48 -88 l 1
 80 -88 l 1
 80 344 l 1
188 295 m 1
 188 133 l 1
 220 101 l 1
 254 84 l 1
 284 84 l 1
 318 101 l 1
 355 138 l 1
 374 196 l 1
 374 232 l 1
 355 290 l 1
 318 327 l 1
 284 344 l 1
 254 344 l 1
 220 327 l 1
 188 295 l 1
EndSplineSet
EndChar

StartChar: q
Encoding: 113 113 64
Width: 492
VWidth: 0
Flags: W
HStem: -172 84<279 327 435 483> 0 84<231 261> 344 83<231 261>
VStem: 34 107<176 253.368> 327 108<-88 23 133 295>
LayerCount: 2
Back
Fore
SplineSet
215 427 m 1
 271 428 l 1
 289 424 l 1
 331 403 l 1
 339 416 l 1
 353 425 l 1
 393 428 l 1
 410 425 l 1
 423 416 l 1
 432 402 l 1
 435 386 l 1
 435 -88 l 1
 467 -88 l 1
 483 -91 l 1
 497 -100 l 1
 506 -114 l 1
 509 -130 l 1
 506 -146 l 1
 497 -160 l 1
 483 -169 l 1
 467 -172 l 1
 295 -172 l 1
 279 -169 l 1
 265 -160 l 1
 256 -146 l 1
 253 -130 l 1
 256 -114 l 1
 265 -100 l 1
 279 -91 l 1
 295 -88 l 1
 327 -88 l 1
 327 23 l 1
 289 4 l 1
 271 0 l 1
 208 2 l 1
 134 27 l 1
 118 37 l 1
 69 86 l 1
 59 102 l 1
 34 176 l 1
 32 239 l 1
 59 326 l 1
 69 342 l 1
 118 391 l 1
 134 401 l 1
 215 427 l 1
327 295 m 1
 295 327 l 1
 261 344 l 1
 231 344 l 1
 197 327 l 1
 160 290 l 1
 141 232 l 1
 141 196 l 1
 160 138 l 1
 197 101 l 1
 231 84 l 1
 261 84 l 1
 295 101 l 1
 327 133 l 1
 327 295 l 1
EndSplineSet
EndChar

StartChar: r
Encoding: 114 114 65
Width: 418
VWidth: 0
Flags: W
HStem: 0 84<33 81 189 237> 344 84<33 81>
VStem: 81 108<84 232>
LayerCount: 2
Back
Fore
SplineSet
81 344 m 1
 49 344 l 1
 33 347 l 1
 19 356 l 1
 10 370 l 1
 7 386 l 1
 10 402 l 1
 19 416 l 1
 33 425 l 1
 49 428 l 1
 147 428 l 1
 163 425 l 1
 177 416 l 1
 186 402 l 1
 189 389 l 1
 202 399 l 1
 251 424 l 1
 270 428 l 1
 344 428 l 1
 360 425 l 1
 374 416 l 1
 398 391 l 1
 407 378 l 1
 410 337 l 1
 407 321 l 1
 398 307 l 1
 374 283 l 1
 360 273 l 1
 344 270 l 1
 328 273 l 1
 314 283 l 1
 290 307 l 1
 280 321 l 1
 279 343 l 1
 246 327 l 1
 209 290 l 1
 189 232 l 1
 189 84 l 1
 221 84 l 1
 237 81 l 1
 251 72 l 1
 260 58 l 1
 263 42 l 1
 260 26 l 1
 251 12 l 1
 237 3 l 1
 221 0 l 1
 49 0 l 1
 33 3 l 1
 19 12 l 1
 10 26 l 1
 7 42 l 1
 10 58 l 1
 19 72 l 1
 33 81 l 1
 49 84 l 1
 81 84 l 1
 81 344 l 1
EndSplineSet
EndChar

StartChar: s
Encoding: 115 115 66
Width: 418
VWidth: 0
Flags: W
HStem: 0 84<182 261> 344 84<158 236>
LayerCount: 2
Back
Fore
SplineSet
32 312 m 1
 35 353 l 1
 44 367 l 1
 80 399 l 1
 129 424 l 1
 148 428 l 1
 246 428 l 1
 265 424 l 1
 306 403 l 1
 317 417 l 1
 330 426 l 1
 346 428 l 1
 362 424 l 1
 375 415 l 1
 383 402 l 1
 386 386 l 1
 386 288 l 1
 383 272 l 1
 375 259 l 1
 362 249 l 1
 346 246 l 1
 330 248 l 1
 317 256 l 1
 307 269 l 1
 285 312 l 1
 270 327 l 1
 236 344 l 1
 158 344 l 1
 121 325 l 1
 165 301 l 1
 286 253 l 1
 339 227 l 1
 374 195 l 1
 383 181 l 1
 386 165 l 1
 386 91 l 1
 383 75 l 1
 374 61 l 1
 339 29 l 1
 289 4 l 1
 271 0 l 1
 172 0 l 1
 154 4 l 1
 113 25 l 1
 102 11 l 1
 88 2 l 1
 72 0 l 1
 57 4 l 1
 44 13 l 1
 35 26 l 1
 32 42 l 1
 32 140 l 1
 35 156 l 1
 44 169 l 1
 57 179 l 1
 72 182 l 1
 88 180 l 1
 102 172 l 1
 112 159 l 1
 133 116 l 1
 148 101 l 1
 182 84 l 1
 261 84 l 1
 295 101 l 1
 302 109 l 1
 302 123 l 1
 295 130 l 1
 253 151 l 1
 132 200 l 1
 80 226 l 1
 44 258 l 1
 35 272 l 1
 32 312 l 1
EndSplineSet
EndChar

StartChar: t
Encoding: 116 116 67
Width: 369
VWidth: 0
Flags: W
HStem: 0 21G<178 264> 344 84<33 81 189 262> 580 20G<107 164>
VStem: 81 108<147 344 428 574>
LayerCount: 2
Back
Fore
SplineSet
81 428 m 1
 81 558 l 1
 84 574 l 1
 93 588 l 1
 107 597 l 1
 147 600 l 1
 164 597 l 1
 177 588 l 1
 186 574 l 1
 189 558 l 1
 189 428 l 1
 246 428 l 1
 262 425 l 1
 275 416 l 1
 285 402 l 1
 288 386 l 1
 285 370 l 1
 275 356 l 1
 262 347 l 1
 246 344 l 1
 189 344 l 1
 189 147 l 1
 209 89 l 1
 214 84 l 1
 236 84 l 1
 264 98 l 1
 282 134 l 1
 292 147 l 1
 306 156 l 1
 322 158 l 1
 338 153 l 1
 351 143 l 1
 359 129 l 1
 361 113 l 1
 357 97 l 1
 332 48 l 1
 325 37 l 1
 314 29 l 1
 264 4 l 1
 246 0 l 1
 197 0 l 1
 178 4 l 1
 129 29 l 1
 116 39 l 1
 108 53 l 1
 81 140 l 1
 81 344 l 1
 49 344 l 1
 33 347 l 1
 19 356 l 1
 10 370 l 1
 7 386 l 1
 10 402 l 1
 19 416 l 1
 33 425 l 1
 49 428 l 1
 81 428 l 1
EndSplineSet
EndChar

StartChar: u
Encoding: 117 117 68
Width: 539
VWidth: 0
Flags: W
HStem: 0 84<230 274.211 458 506> 344 84<32 80 302 350>
VStem: 80 108<126 344> 350 108<133 344>
LayerCount: 2
Back
Fore
SplineSet
80 344 m 1
 48 344 l 1
 32 347 l 1
 18 356 l 1
 9 370 l 1
 6 386 l 1
 9 402 l 1
 18 416 l 1
 32 425 l 1
 48 428 l 1
 146 428 l 1
 162 425 l 1
 176 416 l 1
 185 402 l 1
 188 386 l 1
 188 126 l 1
 202 98 l 1
 230 84 l 1
 262 84 l 1
 320 103 l 1
 350 133 l 1
 350 344 l 1
 318 344 l 1
 302 347 l 1
 288 356 l 1
 279 370 l 1
 276 386 l 1
 279 402 l 1
 288 416 l 1
 302 425 l 1
 318 428 l 1
 416 428 l 1
 433 425 l 1
 446 416 l 1
 455 402 l 1
 458 386 l 1
 458 84 l 1
 490 84 l 1
 506 81 l 1
 520 72 l 1
 529 58 l 1
 532 42 l 1
 529 26 l 1
 520 12 l 1
 506 3 l 1
 490 0 l 1
 392 0 l 1
 376 3 l 1
 362 12 l 1
 353 26 l 1
 282 2 l 1
 217 0 l 1
 133 27 l 1
 119 35 l 1
 109 48 l 1
 84 97 l 1
 80 116 l 1
 80 344 l 1
EndSplineSet
EndChar

StartChar: v
Encoding: 118 118 69
Width: 443
VWidth: 0
Flags: W
HStem: 0 21G<204 238> 344 84<254 305>
LayerCount: 2
Back
Fore
SplineSet
46 344 m 1
 8 347 l 1
 -5 356 l 1
 -14 370 l 1
 -18 386 l 1
 -14 402 l 1
 -5 416 l 1
 8 425 l 1
 24 428 l 1
 172 428 l 1
 188 425 l 1
 202 416 l 1
 211 402 l 1
 214 386 l 1
 211 370 l 1
 202 356 l 1
 188 347 l 1
 161 344 l 1
 232 174 l 1
 305 344 l 1
 270 344 l 1
 254 347 l 1
 240 356 l 1
 231 370 l 1
 228 386 l 1
 231 402 l 1
 240 416 l 1
 254 425 l 1
 270 428 l 1
 418 428 l 1
 434 425 l 1
 447 416 l 1
 456 402 l 1
 460 386 l 1
 456 370 l 1
 447 356 l 1
 434 347 l 1
 396 344 l 1
 260 25 l 1
 251 13 l 1
 238 3 l 1
 222 0 l 1
 204 3 l 1
 191 13 l 1
 182 25 l 1
 46 344 l 1
EndSplineSet
EndChar

StartChar: w
Encoding: 119 119 70
Width: 589
VWidth: 0
Flags: W
HStem: 0 21G<184 216 372 418> 344 84<8 66 177 212 401 435 522 580>
LayerCount: 2
Back
Fore
SplineSet
66 344 m 1
 24 344 l 1
 8 347 l 1
 -6 356 l 1
 -15 370 l 1
 -18 386 l 1
 -15 402 l 1
 -6 416 l 1
 8 425 l 1
 24 428 l 1
 196 428 l 1
 212 425 l 1
 225 416 l 1
 235 402 l 1
 238 386 l 1
 235 370 l 1
 225 356 l 1
 212 347 l 1
 177 344 l 1
 207 234 l 1
 257 406 l 1
 268 419 l 1
 282 426 l 1
 324 428 l 1
 339 422 l 1
 352 412 l 1
 359 397 l 1
 404 234 l 1
 435 344 l 1
 401 347 l 1
 387 356 l 1
 378 370 l 1
 375 386 l 1
 378 402 l 1
 387 416 l 1
 401 425 l 1
 417 428 l 1
 564 428 l 1
 580 425 l 1
 594 416 l 1
 603 402 l 1
 606 386 l 1
 603 370 l 1
 594 356 l 1
 580 347 l 1
 564 344 l 1
 522 344 l 1
 433 30 l 1
 418 9 l 1
 397 0 l 1
 372 5 l 1
 356 22 l 1
 294 233 l 1
 232 22 l 1
 216 5 l 1
 201 0 l 1
 184 2 l 1
 163 16 l 1
 155 30 l 1
 66 344 l 1
EndSplineSet
EndChar

StartChar: x
Encoding: 120 120 71
Width: 493
VWidth: 0
Flags: W
HStem: 0 84<33 79 414 459> 344 84<33 78 413 459>
LayerCount: 2
Back
Fore
SplineSet
79 84 m 1
 185 208 l 1
 78 344 l 1
 49 344 l 1
 33 347 l 1
 20 356 l 1
 11 370 l 1
 7 386 l 1
 11 402 l 1
 20 416 l 1
 33 425 l 1
 49 428 l 1
 197 428 l 1
 213 425 l 1
 227 416 l 1
 236 402 l 1
 239 386 l 1
 236 370 l 1
 227 356 l 1
 208 346 l 1
 254 288 l 1
 302 344 l 1
 279 347 l 1
 265 356 l 1
 256 370 l 1
 253 386 l 1
 256 402 l 1
 265 416 l 1
 279 425 l 1
 295 428 l 1
 443 428 l 1
 459 425 l 1
 472 416 l 1
 481 402 l 1
 485 386 l 1
 481 370 l 1
 472 356 l 1
 459 347 l 1
 443 344 l 1
 413 344 l 1
 307 220 l 1
 414 84 l 1
 443 84 l 1
 459 81 l 1
 472 72 l 1
 481 58 l 1
 485 42 l 1
 481 26 l 1
 472 12 l 1
 459 3 l 1
 443 0 l 1
 295 0 l 1
 279 3 l 1
 265 12 l 1
 256 26 l 1
 253 42 l 1
 256 58 l 1
 265 72 l 1
 284 82 l 1
 238 140 l 1
 190 84 l 1
 213 81 l 1
 227 72 l 1
 236 58 l 1
 239 42 l 1
 236 26 l 1
 227 12 l 1
 213 3 l 1
 197 0 l 1
 49 0 l 1
 33 3 l 1
 20 12 l 1
 11 26 l 1
 7 42 l 1
 11 58 l 1
 20 72 l 1
 33 81 l 1
 49 84 l 1
 79 84 l 1
EndSplineSet
EndChar

StartChar: y
Encoding: 121 121 72
Width: 468
VWidth: 0
Flags: W
HStem: -172 21G<58 117> 344 84<279 330>
LayerCount: 2
Back
Fore
SplineSet
123 -71 m 1
 162 -31 l 1
 200 43 l 1
 71 344 l 1
 33 347 l 1
 20 356 l 1
 11 370 l 1
 7 386 l 1
 11 402 l 1
 20 416 l 1
 33 425 l 1
 49 428 l 1
 197 428 l 1
 213 425 l 1
 227 416 l 1
 236 402 l 1
 239 386 l 1
 236 370 l 1
 227 356 l 1
 213 347 l 1
 186 344 l 1
 257 174 l 1
 330 344 l 1
 295 344 l 1
 279 347 l 1
 265 356 l 1
 256 370 l 1
 253 386 l 1
 256 402 l 1
 265 416 l 1
 279 425 l 1
 295 428 l 1
 443 428 l 1
 459 425 l 1
 472 416 l 1
 481 402 l 1
 485 386 l 1
 481 370 l 1
 472 356 l 1
 459 347 l 1
 421 344 l 1
 285 25 l 1
 227 -86 l 1
 166 -143 l 1
 117 -168 l 1
 99 -172 l 1
 58 -169 l 1
 44 -160 l 1
 20 -135 l 1
 11 -122 l 1
 7 -105 l 1
 11 -89 l 1
 20 -76 l 1
 44 -51 l 1
 58 -42 l 1
 74 -39 l 1
 90 -42 l 1
 104 -51 l 1
 123 -71 l 1
EndSplineSet
EndChar

StartChar: z
Encoding: 122 122 73
Width: 441
VWidth: 0
Flags: W
HStem: 0 84<184 310> 344 84<130 256>
LayerCount: 2
Back
Fore
SplineSet
31 40 m 1
 32 53 l 1
 40 68 l 1
 256 344 l 1
 130 344 l 1
 113 278 l 1
 106 262 l 1
 93 251 l 1
 76 246 l 1
 59 248 l 1
 44 257 l 1
 34 271 l 1
 31 288 l 1
 31 386 l 1
 34 402 l 1
 43 416 l 1
 56 425 l 1
 73 428 l 1
 367 428 l 1
 384 425 l 1
 397 416 l 1
 404 407 l 1
 409 391 l 1
 408 375 l 1
 400 360 l 1
 184 84 l 1
 310 84 l 1
 327 150 l 1
 334 166 l 1
 347 177 l 1
 364 182 l 1
 381 180 l 1
 396 171 l 1
 406 157 l 1
 409 140 l 1
 409 42 l 1
 406 26 l 1
 397 12 l 1
 384 3 l 1
 367 0 l 1
 73 0 l 1
 56 3 l 1
 43 12 l 1
 34 26 l 1
 31 40 l 1
EndSplineSet
EndChar

StartChar: braceleft
Encoding: 123 123 74
Width: 344
VWidth: 0
Flags: W
HStem: -172 21G<202 234>
VStem: 81 108<-46 -17 543 573> 155 108<150 172 354 376>
LayerCount: 2
Back
Fore
SplineSet
144 662 m 1xc0
 202 694 l 1
 218 698 l 1
 234 696 l 1
 249 688 l 1
 259 675 l 1
 263 659 l 1xa0
 261 643 l 1
 253 629 l 1
 240 619 l 1
 203 600 l 1
 189 573 l 1
 189 543 l 1xc0
 207 509 l 1
 234 478 l 1
 259 429 l 1
 263 411 l 1
 263 361 l 1
 259 343 l 1
 226 283 l 1
 192 263 l 1
 226 244 l 1
 259 184 l 1
 263 165 l 1
 263 116 l 1xa0
 259 97 l 1
 234 48 l 1
 207 17 l 1
 189 -17 l 1
 189 -46 l 1xc0
 203 -74 l 1
 240 -92 l 1
 253 -102 l 1
 261 -117 l 1
 263 -133 l 1xa0
 259 -149 l 1
 249 -162 l 1
 234 -170 l 1
 218 -172 l 1
 202 -168 l 1
 153 -143 l 1
 118 -111 l 1
 85 -50 l 1
 81 -32 l 1
 81 17 l 1xc0
 85 36 l 1
 110 85 l 1
 137 116 l 1
 155 150 l 1
 155 172 l 1
 123 204 l 1
 80 226 l 1
 67 235 l 1
 59 248 l 1
 56 263 l 1
 59 278 l 1
 67 291 l 1
 80 301 l 1
 123 322 l 1
 155 354 l 1
 155 376 l 1xa0
 137 410 l 1
 110 441 l 1
 85 490 l 1
 81 509 l 1
 81 558 l 1
 85 577 l 1
 110 626 l 1
 144 662 l 1xc0
EndSplineSet
EndChar

StartChar: bar
Encoding: 124 124 75
Width: 196
VWidth: 0
Flags: W
HStem: -172 21G<82 114>
VStem: 56 84<-146 672>
LayerCount: 2
Back
Fore
SplineSet
56 -130 m 1
 56 656 l 1
 59 672 l 1
 68 686 l 1
 82 695 l 1
 98 698 l 1
 114 695 l 1
 128 686 l 1
 137 672 l 1
 140 656 l 1
 140 -130 l 1
 137 -146 l 1
 128 -160 l 1
 114 -169 l 1
 98 -172 l 1
 82 -169 l 1
 68 -160 l 1
 59 -146 l 1
 56 -130 l 1
EndSplineSet
EndChar

StartChar: braceright
Encoding: 125 125 76
Width: 344
VWidth: 0
Flags: W
HStem: -172 21G<109 141>
VStem: 80 108<150 172 354 376> 154 108<-46 -17 543 573>
LayerCount: 2
Back
Fore
SplineSet
220 322 m 1xc0
 263 301 l 1
 276 291 l 1
 284 278 l 1
 287 263 l 1
 284 248 l 1
 276 235 l 1
 263 226 l 1
 220 204 l 1
 188 172 l 1
 188 150 l 1xc0
 206 116 l 1
 233 85 l 1
 258 36 l 1
 262 17 l 1
 262 -32 l 1xa0
 258 -50 l 1
 233 -100 l 1
 199 -137 l 1
 141 -168 l 1
 125 -172 l 1
 109 -170 l 1
 94 -162 l 1
 84 -149 l 1
 80 -133 l 1xc0
 82 -117 l 1
 90 -102 l 1
 103 -92 l 1
 140 -74 l 1
 154 -46 l 1
 154 -17 l 1xa0
 136 17 l 1
 109 48 l 1
 84 97 l 1
 80 116 l 1
 80 165 l 1
 84 184 l 1
 117 244 l 1
 151 263 l 1
 117 283 l 1
 84 343 l 1
 80 361 l 1
 80 411 l 1xc0
 84 429 l 1
 109 478 l 1
 136 509 l 1
 154 543 l 1
 154 573 l 1xa0
 140 600 l 1
 103 619 l 1
 90 629 l 1
 82 643 l 1
 80 659 l 1xc0
 84 675 l 1
 94 688 l 1
 109 696 l 1
 125 698 l 1
 141 694 l 1
 199 663 l 1
 233 626 l 1
 258 577 l 1
 262 558 l 1
 262 509 l 1xa0
 258 490 l 1
 233 441 l 1
 206 410 l 1
 188 376 l 1
 188 354 l 1
 220 322 l 1xc0
EndSplineSet
EndChar

StartChar: degree
Encoding: 176 176 77
Width: 343
VWidth: 0
Flags: W
HStem: 319 84<156 186> 516 84<156 186>
VStem: 31 84<445 474> 227 84<445 474>
LayerCount: 2
Back
Fore
SplineSet
79 571 m 1
 130 597 l 1
 143 600 l 1
 196 600 l 1
 214 596 l 1
 274 563 l 1
 307 503 l 1
 311 484 l 1
 311 435 l 1
 307 416 l 1
 274 356 l 1
 214 324 l 1
 196 319 l 1
 146 319 l 1
 128 324 l 1
 68 356 l 1
 35 416 l 1
 31 435 l 1
 31 484 l 1
 35 503 l 1
 60 552 l 1
 68 563 l 1
 79 571 l 1
156 516 m 1
 129 502 l 1
 115 474 l 1
 115 445 l 1
 129 417 l 1
 156 403 l 1
 186 403 l 1
 213 417 l 1
 227 445 l 1
 227 474 l 1
 213 502 l 1
 186 516 l 1
 156 516 l 1
EndSplineSet
EndChar

StartChar: glyph78
Encoding: 256 913 78
Width: 491
VWidth: 0
Flags: W
HStem: 0 84<131 187> 147 84<180 285> 580 20G<232 264>
LayerCount: 2
Back
Fore
SplineSet
43 84 m 1
 207 577 l 1
 217 590 l 1
 232 598 l 1
 248 600 l 1
 264 596 l 1
 277 586 l 1
 285 571 l 1
 447 84 l 1
 482 81 l 1
 496 72 l 1
 505 58 l 1
 508 42 l 1
 505 26 l 1
 496 12 l 1
 482 3 l 1
 466 0 l 1
 319 0 l 1
 303 3 l 1
 289 12 l 1
 280 26 l 1
 277 42 l 1
 280 58 l 1
 289 72 l 1
 303 81 l 1
 334 84 l 1
 313 147 l 1
 152 147 l 1
 131 84 l 1
 171 84 l 1
 187 81 l 1
 201 72 l 1
 210 58 l 1
 213 42 l 1
 210 26 l 1
 201 12 l 1
 187 3 l 1
 171 0 l 1
 24 0 l 1
 8 3 l 1
 -6 12 l 1
 -15 26 l 1
 -18 42 l 1
 -15 58 l 1
 -6 72 l 1
 8 81 l 1
 43 84 l 1
233 388 m 1
 180 231 l 1
 285 231 l 1
 233 388 l 1
EndSplineSet
EndChar

StartChar: glyph79
Encoding: 257 914 79
Width: 540
VWidth: 0
Flags: W
HStem: 0 84<32 80 188 333> 270 84<188 333> 516 84<32 80 188 333>
VStem: 80 108<84 270 354 516> 399 109<150 204 420 450>
LayerCount: 2
Back
Fore
SplineSet
80 516 m 1
 48 516 l 1
 32 519 l 1
 18 528 l 1
 9 542 l 1
 6 558 l 1
 9 574 l 1
 18 588 l 1
 32 597 l 1
 48 600 l 1
 346 600 l 1
 430 573 l 1
 446 563 l 1
 471 539 l 1
 503 478 l 1
 508 460 l 1
 508 411 l 1
 503 392 l 1
 479 343 l 1
 451 312 l 1
 479 282 l 1
 503 233 l 1
 508 214 l 1
 508 140 l 1
 503 122 l 1
 479 72 l 1
 446 37 l 1
 430 27 l 1
 346 0 l 1
 48 0 l 1
 32 3 l 1
 18 12 l 1
 9 26 l 1
 6 42 l 1
 9 58 l 1
 18 72 l 1
 32 81 l 1
 48 84 l 1
 80 84 l 1
 80 516 l 1
188 516 m 1
 188 354 l 1
 333 354 l 1
 367 371 l 1
 382 386 l 1
 399 420 l 1
 399 450 l 1
 382 484 l 1
 367 499 l 1
 333 516 l 1
 188 516 l 1
188 84 m 1
 333 84 l 1
 367 101 l 1
 382 116 l 1
 399 150 l 1
 399 204 l 1
 382 238 l 1
 367 253 l 1
 333 270 l 1
 188 270 l 1
 188 84 l 1
EndSplineSet
EndChar

StartChar: glyph80
Encoding: 258 915 80
Width: 443
VWidth: 0
Flags: W
HStem: 0 84<33 81 189 237> 516 84<33 81 189 357>
VStem: 81 108<84 516>
LayerCount: 2
Back
Fore
SplineSet
81 516 m 1
 49 516 l 1
 33 519 l 1
 19 528 l 1
 10 542 l 1
 7 558 l 1
 10 574 l 1
 19 588 l 1
 33 597 l 1
 49 600 l 1
 418 600 l 1
 434 597 l 1
 447 588 l 1
 456 574 l 1
 460 558 l 1
 460 411 l 1
 457 395 l 1
 448 382 l 1
 436 373 l 1
 421 369 l 1
 406 370 l 1
 392 377 l 1
 381 389 l 1
 376 404 l 1
 357 516 l 1
 189 516 l 1
 189 84 l 1
 221 84 l 1
 237 81 l 1
 251 72 l 1
 260 58 l 1
 263 42 l 1
 260 26 l 1
 251 12 l 1
 237 3 l 1
 221 0 l 1
 49 0 l 1
 33 3 l 1
 19 12 l 1
 10 26 l 1
 7 42 l 1
 10 58 l 1
 19 72 l 1
 33 81 l 1
 49 84 l 1
 81 84 l 1
 81 516 l 1
EndSplineSet
EndChar

StartChar: glyph81
Encoding: 259 916 81
Width: 492
VWidth: 0
Flags: W
HStem: 0 109<119 346> 580 20G<230 262>
LayerCount: 2
Back
Fore
SplineSet
7 41 m 1
 9 57 l 1
 207 575 l 1
 216 589 l 1
 230 597 l 1
 246 600 l 1
 262 596 l 1
 276 587 l 1
 284 573 l 1
 481 57 l 1
 484 41 l 1
 480 25 l 1
 470 11 l 1
 457 3 l 1
 442 0 l 1
 48 0 l 1
 32 3 l 1
 19 12 l 1
 10 26 l 1
 7 41 l 1
119 109 m 1
 346 109 l 1
 231 404 l 1
 119 109 l 1
EndSplineSet
EndChar

StartChar: glyph82
Encoding: 260 917 82
Width: 515
VWidth: 0
Flags: W
HStem: 0 84<32 80 188 381> 270 84<188 252> 516 84<32 80 188 381>
VStem: 80 108<84 270 354 516> 252 84<198 270 354 427>
LayerCount: 2
Back
Fore
SplineSet
80 516 m 1
 48 516 l 1
 32 519 l 1
 18 528 l 1
 9 542 l 1
 6 558 l 1
 9 574 l 1
 18 588 l 1
 32 597 l 1
 48 600 l 1
 441 600 l 1
 457 597 l 1
 471 588 l 1
 480 574 l 1
 483 558 l 1
 483 411 l 1
 480 395 l 1
 472 382 l 1
 459 373 l 1
 444 369 l 1
 429 370 l 1
 415 377 l 1
 405 389 l 1
 400 404 l 1
 381 516 l 1
 188 516 l 1
 188 354 l 1
 252 354 l 1
 252 411 l 1
 255 427 l 1
 264 440 l 1
 277 449 l 1
 294 453 l 1
 310 449 l 1
 323 440 l 1
 332 427 l 1
 336 411 l 1
 336 214 l 1
 332 198 l 1
 323 184 l 1
 310 175 l 1
 294 172 l 1
 277 175 l 1
 264 184 l 1
 255 198 l 1
 252 214 l 1
 252 270 l 1
 188 270 l 1
 188 84 l 1
 381 84 l 1
 400 196 l 1
 405 211 l 1
 415 223 l 1
 429 230 l 1
 444 231 l 1
 459 227 l 1
 472 218 l 1
 480 205 l 1
 483 189 l 1
 483 42 l 1
 480 26 l 1
 471 12 l 1
 457 3 l 1
 441 0 l 1
 48 0 l 1
 32 3 l 1
 18 12 l 1
 9 26 l 1
 6 42 l 1
 9 58 l 1
 18 72 l 1
 32 81 l 1
 48 84 l 1
 80 84 l 1
 80 516 l 1
EndSplineSet
EndChar

StartChar: glyph83
Encoding: 261 918 83
Width: 492
VWidth: 0
Flags: W
HStem: 0 84<174 358> 516 84<134 318>
LayerCount: 2
Back
Fore
SplineSet
134 516 m 1
 115 404 l 1
 110 389 l 1
 100 377 l 1
 86 370 l 1
 71 369 l 1
 56 373 l 1
 43 382 l 1
 35 395 l 1
 32 411 l 1
 32 558 l 1
 35 574 l 1
 44 588 l 1
 58 597 l 1
 74 600 l 1
 418 600 l 1
 440 594 l 1
 452 583 l 1
 460 558 l 1
 454 536 l 1
 174 84 l 1
 358 84 l 1
 377 196 l 1
 382 211 l 1
 392 223 l 1
 406 230 l 1
 421 231 l 1
 436 227 l 1
 449 218 l 1
 457 205 l 1
 460 189 l 1
 460 42 l 1
 457 26 l 1
 448 12 l 1
 434 3 l 1
 418 0 l 1
 74 0 l 1
 52 6 l 1
 40 17 l 1
 32 42 l 1
 38 64 l 1
 318 516 l 1
 134 516 l 1
EndSplineSet
EndChar

StartChar: glyph84
Encoding: 262 919 84
Width: 591
VWidth: 0
Flags: W
HStem: 0 84<33 81 190 237 353 400 509 557> 270 84<190 400> 516 84<33 81 190 237 353 400 509 557>
VStem: 81 109<84 270 354 516> 400 109<84 270 354 516>
LayerCount: 2
Back
Fore
SplineSet
81 516 m 1
 49 516 l 1
 33 519 l 1
 20 528 l 1
 10 542 l 1
 7 558 l 1
 10 574 l 1
 20 588 l 1
 33 597 l 1
 49 600 l 1
 221 600 l 1
 237 597 l 1
 251 588 l 1
 260 574 l 1
 263 558 l 1
 260 542 l 1
 251 528 l 1
 237 519 l 1
 221 516 l 1
 190 516 l 1
 190 354 l 1
 400 354 l 1
 400 516 l 1
 369 516 l 1
 353 519 l 1
 339 528 l 1
 330 542 l 1
 327 558 l 1
 330 574 l 1
 339 588 l 1
 353 597 l 1
 369 600 l 1
 541 600 l 1
 557 597 l 1
 570 588 l 1
 580 574 l 1
 583 558 l 1
 580 542 l 1
 570 528 l 1
 557 519 l 1
 541 516 l 1
 509 516 l 1
 509 84 l 1
 541 84 l 1
 557 81 l 1
 570 72 l 1
 580 58 l 1
 583 42 l 1
 580 26 l 1
 570 12 l 1
 557 3 l 1
 541 0 l 1
 369 0 l 1
 353 3 l 1
 339 12 l 1
 330 26 l 1
 327 42 l 1
 330 58 l 1
 339 72 l 1
 353 81 l 1
 369 84 l 1
 400 84 l 1
 400 270 l 1
 190 270 l 1
 190 84 l 1
 221 84 l 1
 237 81 l 1
 251 72 l 1
 260 58 l 1
 263 42 l 1
 260 26 l 1
 251 12 l 1
 237 3 l 1
 221 0 l 1
 49 0 l 1
 33 3 l 1
 20 12 l 1
 10 26 l 1
 7 42 l 1
 10 58 l 1
 20 72 l 1
 33 81 l 1
 49 84 l 1
 81 84 l 1
 81 516 l 1
EndSplineSet
EndChar

StartChar: glyph85
Encoding: 263 920 85
Width: 541
VWidth: 0
Flags: W
HStem: 0 84<255 285> 246 108<238 302> 408 20G<180 212 328 360> 516 84<255 285>
VStem: 33 107<240 358.667> 154 84<200 246 354 400> 302 84<200 246 354 400> 400 109<240 360>
LayerCount: 2
Back
Fore
SplineSet
296 600 m 1
 382 573 l 1
 398 563 l 1
 455 503 l 1
 483 445 l 1
 507 347 l 1
 509 263 l 1
 480 146 l 1
 447 86 l 1
 398 37 l 1
 382 27 l 1
 308 2 l 1
 242 0 l 1
 158 27 l 1
 142 37 l 1
 85 97 l 1
 57 155 l 1
 33 253 l 1
 31 337 l 1
 60 454 l 1
 93 514 l 1
 142 563 l 1
 158 573 l 1
 232 598 l 1
 296 600 l 1
154 312 m 1
 154 386 l 1
 157 400 l 1
 140 332 l 1
 140 268 l 1
 157 200 l 1
 154 214 l 1
 154 312 l 1
238 354 m 1
 302 354 l 1
 302 386 l 1
 305 402 l 1
 314 416 l 1
 328 425 l 1
 344 428 l 1
 360 425 l 1
 373 416 l 1
 382 402 l 1
 378 420 l 1
 358 459 l 1
 319 499 l 1
 285 516 l 1
 255 516 l 1
 221 499 l 1
 182 459 l 1
 162 420 l 1
 158 402 l 1
 167 416 l 1
 180 425 l 1
 196 428 l 1
 212 425 l 1
 226 416 l 1
 235 402 l 1
 238 386 l 1
 238 354 l 1
285 84 m 1
 319 101 l 1
 358 141 l 1
 378 180 l 1
 382 198 l 1
 373 184 l 1
 360 175 l 1
 344 172 l 1
 328 175 l 1
 314 184 l 1
 305 198 l 1
 302 214 l 1
 302 246 l 1
 238 246 l 1
 238 214 l 1
 235 198 l 1
 226 184 l 1
 212 175 l 1
 196 172 l 1
 180 175 l 1
 167 184 l 1
 158 198 l 1
 162 180 l 1
 182 141 l 1
 221 101 l 1
 255 84 l 1
 285 84 l 1
383 200 m 1
 400 268 l 1
 400 332 l 1
 383 400 l 1
 386 386 l 1
 386 214 l 1
 383 200 l 1
EndSplineSet
EndChar

StartChar: glyph86
Encoding: 264 921 86
Width: 270
VWidth: 0
Flags: W
HStem: 0 84<33 81 190 237> 516 84<33 81 190 237>
VStem: 81 109<84 516>
LayerCount: 2
Back
Fore
SplineSet
81 516 m 1
 49 516 l 1
 33 519 l 1
 20 528 l 1
 10 542 l 1
 7 558 l 1
 10 574 l 1
 20 588 l 1
 33 597 l 1
 49 600 l 1
 221 600 l 1
 237 597 l 1
 251 588 l 1
 260 574 l 1
 263 558 l 1
 260 542 l 1
 251 528 l 1
 237 519 l 1
 221 516 l 1
 190 516 l 1
 190 84 l 1
 221 84 l 1
 237 81 l 1
 251 72 l 1
 260 58 l 1
 263 42 l 1
 260 26 l 1
 251 12 l 1
 237 3 l 1
 221 0 l 1
 49 0 l 1
 33 3 l 1
 20 12 l 1
 10 26 l 1
 7 42 l 1
 10 58 l 1
 20 72 l 1
 33 81 l 1
 49 84 l 1
 81 84 l 1
 81 516 l 1
EndSplineSet
EndChar

StartChar: glyph87
Encoding: 265 922 87
Width: 541
VWidth: 0
Flags: W
HStem: 0 84<33 81 190 237> 516 84<33 81 190 237 353 366 484 532>
VStem: 81 109<84 221 340 516>
LayerCount: 2
Back
Fore
SplineSet
81 516 m 1
 49 516 l 1
 33 519 l 1
 20 528 l 1
 10 542 l 1
 7 558 l 1
 10 574 l 1
 20 588 l 1
 33 597 l 1
 49 600 l 1
 221 600 l 1
 237 597 l 1
 251 588 l 1
 260 574 l 1
 263 558 l 1
 260 542 l 1
 251 528 l 1
 237 519 l 1
 221 516 l 1
 190 516 l 1
 190 340 l 1
 366 517 l 1
 353 519 l 1
 339 528 l 1
 330 542 l 1
 327 558 l 1
 330 574 l 1
 339 588 l 1
 353 597 l 1
 369 600 l 1
 516 600 l 1
 532 597 l 1
 546 588 l 1
 555 574 l 1
 558 558 l 1
 555 542 l 1
 546 528 l 1
 532 519 l 1
 516 516 l 1
 484 516 l 1
 315 346 l 1
 489 84 l 1
 532 81 l 1
 546 72 l 1
 555 58 l 1
 558 42 l 1
 555 26 l 1
 546 12 l 1
 532 3 l 1
 516 0 l 1
 369 0 l 1
 353 3 l 1
 339 12 l 1
 330 26 l 1
 327 42 l 1
 330 58 l 1
 339 72 l 1
 353 81 l 1
 365 83 l 1
 239 271 l 1
 190 221 l 1
 190 84 l 1
 221 84 l 1
 237 81 l 1
 251 72 l 1
 260 58 l 1
 263 42 l 1
 260 26 l 1
 251 12 l 1
 237 3 l 1
 221 0 l 1
 49 0 l 1
 33 3 l 1
 20 12 l 1
 10 26 l 1
 7 42 l 1
 10 58 l 1
 20 72 l 1
 33 81 l 1
 49 84 l 1
 81 84 l 1
 81 516 l 1
EndSplineSet
EndChar

StartChar: glyph88
Encoding: 266 923 88
Width: 491
VWidth: 0
Flags: W
HStem: 0 84<131 187> 580 20G<232 264>
LayerCount: 2
Back
Fore
SplineSet
43 84 m 1
 207 577 l 1
 217 590 l 1
 232 598 l 1
 248 600 l 1
 264 596 l 1
 277 586 l 1
 285 571 l 1
 447 84 l 1
 482 81 l 1
 496 72 l 1
 505 58 l 1
 508 42 l 1
 505 26 l 1
 496 12 l 1
 482 3 l 1
 466 0 l 1
 319 0 l 1
 303 3 l 1
 289 12 l 1
 280 26 l 1
 277 42 l 1
 280 58 l 1
 289 72 l 1
 303 81 l 1
 334 84 l 1
 233 388 l 1
 131 84 l 1
 171 84 l 1
 187 81 l 1
 201 72 l 1
 210 58 l 1
 213 42 l 1
 210 26 l 1
 201 12 l 1
 187 3 l 1
 171 0 l 1
 24 0 l 1
 8 3 l 1
 -6 12 l 1
 -15 26 l 1
 -18 42 l 1
 -15 58 l 1
 -6 72 l 1
 8 81 l 1
 43 84 l 1
EndSplineSet
EndChar

StartChar: glyph89
Encoding: 267 924 89
Width: 614
VWidth: 0
Flags: W
HStem: 0 84<33 81 165 213 377 425 534 581> 516 84<33 81 534 581>
VStem: 81 84<84 299> 425 109<84 299>
LayerCount: 2
Back
Fore
SplineSet
81 516 m 1
 49 516 l 1
 33 519 l 1
 20 528 l 1
 10 542 l 1
 7 558 l 1
 10 574 l 1
 20 588 l 1
 33 597 l 1
 49 600 l 1
 148 600 l 1
 166 596 l 1
 179 586 l 1
 187 571 l 1
 307 212 l 1
 427 571 l 1
 435 586 l 1
 451 597 l 1
 467 600 l 1
 565 600 l 1
 581 597 l 1
 595 588 l 1
 604 574 l 1
 607 558 l 1
 604 542 l 1
 595 528 l 1
 581 519 l 1
 565 516 l 1
 534 516 l 1
 534 84 l 1
 565 84 l 1
 581 81 l 1
 595 72 l 1
 604 58 l 1
 607 42 l 1
 604 26 l 1
 595 12 l 1
 581 3 l 1
 565 0 l 1
 393 0 l 1
 377 3 l 1
 364 12 l 1
 354 26 l 1
 351 42 l 1
 354 58 l 1
 364 72 l 1
 377 81 l 1
 393 84 l 1
 425 84 l 1
 425 299 l 1
 333 23 l 1
 323 10 l 1
 308 2 l 1
 292 0 l 1
 276 4 l 1
 263 14 l 1
 255 29 l 1
 165 299 l 1
 165 84 l 1
 197 84 l 1
 213 81 l 1
 226 72 l 1
 236 58 l 1
 239 42 l 1
 236 26 l 1
 226 12 l 1
 213 3 l 1
 197 0 l 1
 49 0 l 1
 33 3 l 1
 20 12 l 1
 10 26 l 1
 7 42 l 1
 10 58 l 1
 20 72 l 1
 33 81 l 1
 49 84 l 1
 81 84 l 1
 81 516 l 1
EndSplineSet
EndChar

StartChar: glyph90
Encoding: 268 925 90
Width: 565
VWidth: 0
Flags: W
HStem: 0 84<32 80 164 211> 516 84<32 80 351 399 483 531>
VStem: 80 84<84 403> 399 84<236 516>
LayerCount: 2
Back
Fore
SplineSet
80 516 m 1
 48 516 l 1
 32 519 l 1
 18 528 l 1
 9 542 l 1
 6 558 l 1
 9 574 l 1
 18 588 l 1
 32 597 l 1
 48 600 l 1
 146 600 l 1
 162 597 l 1
 176 588 l 1
 399 236 l 1
 399 516 l 1
 367 516 l 1
 351 519 l 1
 338 528 l 1
 328 542 l 1
 325 558 l 1
 328 574 l 1
 338 588 l 1
 351 597 l 1
 367 600 l 1
 515 600 l 1
 531 597 l 1
 544 588 l 1
 554 574 l 1
 557 558 l 1
 554 542 l 1
 544 528 l 1
 531 519 l 1
 515 516 l 1
 483 516 l 1
 483 42 l 1
 480 26 l 1
 463 6 l 1
 448 1 l 1
 432 1 l 1
 417 8 l 1
 405 20 l 1
 164 403 l 1
 164 84 l 1
 195 84 l 1
 211 81 l 1
 225 72 l 1
 234 58 l 1
 237 42 l 1
 234 26 l 1
 225 12 l 1
 211 3 l 1
 195 0 l 1
 48 0 l 1
 32 3 l 1
 18 12 l 1
 9 26 l 1
 6 42 l 1
 9 58 l 1
 18 72 l 1
 32 81 l 1
 48 84 l 1
 80 84 l 1
 80 516 l 1
EndSplineSet
EndChar

StartChar: glyph91
Encoding: 269 926 91
Width: 541
VWidth: 0
Flags: W
HStem: 25 108<139 401> 246 108<237 303> 467 108<139 401>
CounterMasks: 1 e0
LayerCount: 2
Back
Fore
SplineSet
32 468 m 1
 57 591 l 1
 63 606 l 1
 75 618 l 1
 90 624 l 1
 106 624 l 1
 121 617 l 1
 133 606 l 1
 139 591 l 1
 139 575 l 1
 422 575 l 1
 432 606 l 1
 443 618 l 1
 458 624 l 1
 475 624 l 1
 490 617 l 1
 502 606 l 1
 508 591 l 1
 508 574 l 1
 483 451 l 1
 477 436 l 1
 465 425 l 1
 450 419 l 1
 434 419 l 1
 419 425 l 1
 407 436 l 1
 401 452 l 1
 401 467 l 1
 118 467 l 1
 108 436 l 1
 97 425 l 1
 82 419 l 1
 65 419 l 1
 50 425 l 1
 38 436 l 1
 32 452 l 1
 32 468 l 1
32 26 m 1
 57 149 l 1
 63 164 l 1
 75 175 l 1
 90 181 l 1
 106 181 l 1
 121 175 l 1
 133 164 l 1
 139 148 l 1
 139 133 l 1
 422 133 l 1
 432 164 l 1
 443 175 l 1
 458 181 l 1
 475 181 l 1
 490 175 l 1
 502 164 l 1
 508 148 l 1
 508 132 l 1
 483 9 l 1
 477 -6 l 1
 465 -18 l 1
 450 -24 l 1
 434 -24 l 1
 419 -17 l 1
 407 -6 l 1
 401 9 l 1
 401 25 l 1
 118 25 l 1
 108 -6 l 1
 97 -18 l 1
 82 -24 l 1
 65 -24 l 1
 50 -17 l 1
 38 -6 l 1
 32 9 l 1
 32 26 l 1
131 247 m 1
 155 370 l 1
 161 385 l 1
 173 396 l 1
 188 403 l 1
 205 403 l 1
 220 396 l 1
 231 385 l 1
 237 370 l 1
 237 354 l 1
 324 354 l 1
 333 385 l 1
 345 396 l 1
 360 403 l 1
 377 403 l 1
 392 396 l 1
 403 385 l 1
 409 370 l 1
 409 353 l 1
 385 230 l 1
 379 215 l 1
 367 204 l 1
 352 197 l 1
 335 197 l 1
 320 204 l 1
 309 215 l 1
 303 230 l 1
 303 246 l 1
 216 246 l 1
 207 215 l 1
 195 204 l 1
 180 197 l 1
 163 197 l 1
 148 204 l 1
 137 215 l 1
 131 230 l 1
 131 247 l 1
EndSplineSet
EndChar

StartChar: glyph92
Encoding: 270 927 92
Width: 540
VWidth: 0
Flags: W
HStem: 0 84<254 284> 516 84<254 284>
VStem: 32 107<240 360> 399 109<240 360>
LayerCount: 2
Back
Fore
SplineSet
157 573 m 1
 241 600 l 1
 294 600 l 1
 381 573 l 1
 397 563 l 1
 446 514 l 1
 482 445 l 1
 506 347 l 1
 508 263 l 1
 479 146 l 1
 446 86 l 1
 397 37 l 1
 381 27 l 1
 307 2 l 1
 241 0 l 1
 157 27 l 1
 141 37 l 1
 92 86 l 1
 56 155 l 1
 32 253 l 1
 32 347 l 1
 56 445 l 1
 84 503 l 1
 141 563 l 1
 157 573 l 1
284 84 m 1
 318 101 l 1
 357 141 l 1
 377 180 l 1
 399 268 l 1
 399 332 l 1
 377 420 l 1
 357 459 l 1
 318 499 l 1
 284 516 l 1
 254 516 l 1
 220 499 l 1
 181 459 l 1
 161 420 l 1
 139 332 l 1
 139 268 l 1
 161 180 l 1
 181 141 l 1
 220 101 l 1
 254 84 l 1
 284 84 l 1
EndSplineSet
EndChar

StartChar: glyph93
Encoding: 271 928 93
Width: 591
VWidth: 0
Flags: W
HStem: 0 84<33 81 190 237 353 400 509 557> 516 84<33 81 190 400 509 557>
VStem: 81 109<84 516> 400 109<84 516>
LayerCount: 2
Back
Fore
SplineSet
81 516 m 1
 49 516 l 1
 33 519 l 1
 20 528 l 1
 10 542 l 1
 7 558 l 1
 10 574 l 1
 20 588 l 1
 33 597 l 1
 49 600 l 1
 541 600 l 1
 557 597 l 1
 570 588 l 1
 580 574 l 1
 583 558 l 1
 580 542 l 1
 570 528 l 1
 557 519 l 1
 541 516 l 1
 509 516 l 1
 509 84 l 1
 541 84 l 1
 557 81 l 1
 570 72 l 1
 580 58 l 1
 583 42 l 1
 580 26 l 1
 570 12 l 1
 557 3 l 1
 541 0 l 1
 369 0 l 1
 353 3 l 1
 339 12 l 1
 330 26 l 1
 327 42 l 1
 330 58 l 1
 339 72 l 1
 353 81 l 1
 369 84 l 1
 400 84 l 1
 400 516 l 1
 190 516 l 1
 190 84 l 1
 221 84 l 1
 237 81 l 1
 251 72 l 1
 260 58 l 1
 263 42 l 1
 260 26 l 1
 251 12 l 1
 237 3 l 1
 221 0 l 1
 49 0 l 1
 33 3 l 1
 20 12 l 1
 10 26 l 1
 7 42 l 1
 10 58 l 1
 20 72 l 1
 33 81 l 1
 49 84 l 1
 81 84 l 1
 81 516 l 1
EndSplineSet
EndChar

StartChar: glyph94
Encoding: 272 929 94
Width: 540
VWidth: 0
Flags: W
HStem: 0 84<32 80 188 236> 246 84<188 333> 516 84<32 80 188 333>
VStem: 80 108<84 246 330 516> 399 109<396 450>
LayerCount: 2
Back
Fore
SplineSet
80 516 m 1
 48 516 l 1
 32 519 l 1
 18 528 l 1
 9 542 l 1
 6 558 l 1
 9 574 l 1
 18 588 l 1
 32 597 l 1
 48 600 l 1
 346 600 l 1
 430 573 l 1
 446 563 l 1
 479 528 l 1
 503 478 l 1
 508 460 l 1
 508 386 l 1
 503 367 l 1
 479 318 l 1
 446 283 l 1
 430 272 l 1
 346 246 l 1
 188 246 l 1
 188 84 l 1
 220 84 l 1
 236 81 l 1
 250 72 l 1
 259 58 l 1
 262 42 l 1
 259 26 l 1
 250 12 l 1
 236 3 l 1
 220 0 l 1
 48 0 l 1
 32 3 l 1
 18 12 l 1
 9 26 l 1
 6 42 l 1
 9 58 l 1
 18 72 l 1
 32 81 l 1
 48 84 l 1
 80 84 l 1
 80 516 l 1
188 516 m 1
 188 330 l 1
 333 330 l 1
 367 347 l 1
 382 362 l 1
 399 396 l 1
 399 450 l 1
 382 484 l 1
 367 499 l 1
 333 516 l 1
 188 516 l 1
EndSplineSet
EndChar

StartChar: glyph95
Encoding: 273 931 95
Width: 517
VWidth: 0
Flags: W
HStem: 0 109<150 371> 516 84<155 363>
LayerCount: 2
Back
Fore
SplineSet
8 39 m 1
 9 52 l 1
 15 67 l 1
 182 296 l 1
 15 534 l 1
 7 558 l 1
 14 581 l 1
 25 592 l 1
 49 600 l 1
 418 600 l 1
 432 597 l 1
 445 590 l 1
 455 579 l 1
 459 565 l 1
 484 417 l 1
 484 402 l 1
 478 388 l 1
 467 376 l 1
 453 370 l 1
 437 369 l 1
 422 374 l 1
 410 384 l 1
 403 397 l 1
 363 516 l 1
 155 516 l 1
 280 336 l 1
 287 321 l 1
 287 303 l 1
 280 288 l 1
 150 109 l 1
 371 109 l 1
 403 203 l 1
 410 216 l 1
 422 226 l 1
 437 231 l 1
 453 230 l 1
 467 224 l 1
 478 212 l 1
 484 198 l 1
 484 183 l 1
 459 35 l 1
 455 21 l 1
 445 10 l 1
 432 3 l 1
 418 0 l 1
 49 0 l 1
 33 3 l 1
 20 12 l 1
 11 26 l 1
 8 39 l 1
EndSplineSet
EndChar

StartChar: glyph96
Encoding: 274 932 96
Width: 468
VWidth: 0
Flags: W
HStem: 0 84<131 179 288 335> 516 84<109 179 288 357>
VStem: 179 109<84 516>
LayerCount: 2
Back
Fore
SplineSet
109 516 m 1
 90 404 l 1
 85 389 l 1
 75 377 l 1
 61 370 l 1
 46 369 l 1
 31 373 l 1
 18 382 l 1
 10 395 l 1
 7 411 l 1
 7 558 l 1
 10 574 l 1
 19 588 l 1
 33 597 l 1
 49 600 l 1
 418 600 l 1
 434 597 l 1
 447 588 l 1
 456 574 l 1
 460 558 l 1
 460 411 l 1
 457 395 l 1
 448 382 l 1
 436 373 l 1
 421 369 l 1
 406 370 l 1
 392 377 l 1
 381 389 l 1
 376 404 l 1
 357 516 l 1
 288 516 l 1
 288 84 l 1
 319 84 l 1
 335 81 l 1
 349 72 l 1
 358 58 l 1
 361 42 l 1
 358 26 l 1
 349 12 l 1
 335 3 l 1
 319 0 l 1
 147 0 l 1
 131 3 l 1
 118 12 l 1
 108 26 l 1
 105 42 l 1
 108 58 l 1
 118 72 l 1
 131 81 l 1
 147 84 l 1
 179 84 l 1
 179 516 l 1
 109 516 l 1
EndSplineSet
EndChar

StartChar: glyph97
Encoding: 275 933 97
Width: 468
VWidth: 0
Flags: W
HStem: 0 84<131 179 288 335> 580 20G<82 163 303 385>
VStem: 7 84<419 467> 179 109<84 409.7> 376 84<419 467>
CounterMasks: 1 38
LayerCount: 2
Back
Fore
SplineSet
7 484 m 1
 11 503 l 1
 44 563 l 1
 68 588 l 1
 82 597 l 1
 98 600 l 1
 147 600 l 1
 163 597 l 1
 177 588 l 1
 209 552 l 1
 233 504 l 1
 265 563 l 1
 290 588 l 1
 303 597 l 1
 319 600 l 1
 368 600 l 1
 385 597 l 1
 398 588 l 1
 423 563 l 1
 455 503 l 1
 460 484 l 1
 460 435 l 1
 456 419 l 1
 447 405 l 1
 434 396 l 1
 418 393 l 1
 401 396 l 1
 388 405 l 1
 379 419 l 1
 376 435 l 1
 376 467 l 1
 351 491 l 1
 337 491 l 1
 308 463 l 1
 288 381 l 1
 288 84 l 1
 319 84 l 1
 335 81 l 1
 349 72 l 1
 358 58 l 1
 361 42 l 1
 358 26 l 1
 349 12 l 1
 335 3 l 1
 319 0 l 1
 147 0 l 1
 131 3 l 1
 118 12 l 1
 108 26 l 1
 105 42 l 1
 108 58 l 1
 118 72 l 1
 131 81 l 1
 147 84 l 1
 179 84 l 1
 179 381 l 1
 159 463 l 1
 130 491 l 1
 116 491 l 1
 91 467 l 1
 91 435 l 1
 88 419 l 1
 79 405 l 1
 65 396 l 1
 49 393 l 1
 33 396 l 1
 19 405 l 1
 10 419 l 1
 7 435 l 1
 7 484 l 1
EndSplineSet
EndChar

StartChar: glyph98
Encoding: 276 934 98
Width: 517
VWidth: 0
Flags: W
HStem: 0 84<156 204 313 360> 516 84<156 204 313 360>
VStem: 32 109<273 327> 204 109<84 123 208 392 477 516> 376 109<273 327>
CounterMasks: 1 38
LayerCount: 2
Back
Fore
SplineSet
110 450 m 1
 184 475 l 1
 204 477 l 1
 204 516 l 1
 172 516 l 1
 156 519 l 1
 143 528 l 1
 133 542 l 1
 130 558 l 1
 133 574 l 1
 143 588 l 1
 156 597 l 1
 172 600 l 1
 344 600 l 1
 360 597 l 1
 374 588 l 1
 383 574 l 1
 386 558 l 1
 383 542 l 1
 374 528 l 1
 360 519 l 1
 344 516 l 1
 313 516 l 1
 313 477 l 1
 333 475 l 1
 407 450 l 1
 423 440 l 1
 448 416 l 1
 480 356 l 1
 485 337 l 1
 485 263 l 1
 480 244 l 1
 456 195 l 1
 423 160 l 1
 407 150 l 1
 333 125 l 1
 313 123 l 1
 313 84 l 1
 344 84 l 1
 360 81 l 1
 374 72 l 1
 383 58 l 1
 386 42 l 1
 383 26 l 1
 374 12 l 1
 360 3 l 1
 344 0 l 1
 172 0 l 1
 156 3 l 1
 143 12 l 1
 133 26 l 1
 130 42 l 1
 133 58 l 1
 143 72 l 1
 156 81 l 1
 172 84 l 1
 204 84 l 1
 204 123 l 1
 184 125 l 1
 110 150 l 1
 93 160 l 1
 61 195 l 1
 36 244 l 1
 32 263 l 1
 32 337 l 1
 36 356 l 1
 69 416 l 1
 93 440 l 1
 110 450 l 1
204 208 m 1
 204 392 l 1
 173 376 l 1
 158 361 l 1
 141 327 l 1
 141 273 l 1
 158 239 l 1
 173 224 l 1
 204 208 l 1
313 208 m 1
 344 224 l 1
 359 239 l 1
 376 273 l 1
 376 327 l 1
 359 361 l 1
 344 376 l 1
 313 392 l 1
 313 208 l 1
EndSplineSet
EndChar

StartChar: glyph99
Encoding: 277 935 99
Width: 491
VWidth: 0
Flags: W
HStem: 0 21G<8 187 303 482> 580 20G<8 187 303 482>
LayerCount: 2
Back
Fore
SplineSet
51 84 m 1
 189 291 l 1
 50 516 l 1
 8 519 l 1
 -6 528 l 1
 -15 542 l 1
 -18 558 l 1
 -15 574 l 1
 -6 588 l 1
 8 597 l 1
 24 600 l 1
 171 600 l 1
 187 597 l 1
 201 588 l 1
 210 574 l 1
 213 558 l 1
 210 542 l 1
 201 528 l 1
 187 519 l 1
 173 516 l 1
 253 387 l 1
 339 516 l 1
 303 519 l 1
 289 528 l 1
 280 542 l 1
 277 558 l 1
 280 574 l 1
 289 588 l 1
 303 597 l 1
 319 600 l 1
 466 600 l 1
 482 597 l 1
 496 588 l 1
 505 574 l 1
 508 558 l 1
 505 542 l 1
 496 528 l 1
 482 519 l 1
 439 516 l 1
 301 309 l 1
 440 84 l 1
 482 81 l 1
 496 72 l 1
 505 58 l 1
 508 42 l 1
 505 26 l 1
 496 12 l 1
 482 3 l 1
 466 0 l 1
 319 0 l 1
 303 3 l 1
 289 12 l 1
 280 26 l 1
 277 42 l 1
 280 58 l 1
 289 72 l 1
 303 81 l 1
 317 84 l 1
 237 213 l 1
 151 84 l 1
 187 81 l 1
 201 72 l 1
 210 58 l 1
 213 42 l 1
 210 26 l 1
 201 12 l 1
 187 3 l 1
 171 0 l 1
 24 0 l 1
 8 3 l 1
 -6 12 l 1
 -15 26 l 1
 -18 42 l 1
 -15 58 l 1
 -6 72 l 1
 8 81 l 1
 51 84 l 1
EndSplineSet
EndChar

StartChar: glyph100
Encoding: 278 936 100
Width: 565
VWidth: 0
Flags: W
HStem: 0 84<179 227 336 383> 516 84<179 227 336 383>
VStem: 227 109<84 151 245 516>
LayerCount: 2
Back
Fore
SplineSet
43 440 m 1
 57 450 l 1
 72 453 l 1
 89 449 l 1
 140 424 l 1
 154 412 l 1
 162 396 l 1
 186 302 l 1
 205 263 l 1
 227 245 l 1
 227 516 l 1
 195 516 l 1
 179 519 l 1
 166 528 l 1
 156 542 l 1
 153 558 l 1
 156 574 l 1
 166 588 l 1
 179 597 l 1
 195 600 l 1
 367 600 l 1
 383 597 l 1
 397 588 l 1
 406 574 l 1
 409 558 l 1
 406 542 l 1
 397 528 l 1
 383 519 l 1
 367 516 l 1
 336 516 l 1
 336 245 l 1
 357 263 l 1
 377 302 l 1
 400 396 l 1
 408 412 l 1
 422 424 l 1
 474 449 l 1
 488 453 l 1
 506 449 l 1
 520 440 l 1
 544 416 l 1
 554 402 l 1
 557 386 l 1
 554 370 l 1
 544 356 l 1
 531 347 l 1
 515 344 l 1
 499 347 l 1
 479 269 l 1
 446 209 l 1
 422 184 l 1
 405 174 l 1
 336 151 l 1
 336 84 l 1
 367 84 l 1
 383 81 l 1
 397 72 l 1
 406 58 l 1
 409 42 l 1
 406 26 l 1
 397 12 l 1
 383 3 l 1
 367 0 l 1
 195 0 l 1
 179 3 l 1
 166 12 l 1
 156 26 l 1
 153 42 l 1
 156 58 l 1
 166 72 l 1
 179 81 l 1
 195 84 l 1
 227 84 l 1
 227 151 l 1
 157 174 l 1
 141 184 l 1
 116 209 l 1
 84 269 l 1
 63 347 l 1
 48 344 l 1
 32 347 l 1
 18 356 l 1
 9 370 l 1
 6 386 l 1
 9 402 l 1
 18 416 l 1
 43 440 l 1
EndSplineSet
EndChar

StartChar: glyph101
Encoding: 279 937 101
Width: 541
VWidth: 0
Flags: W
HStem: 0 21G<81 213 327 459> 516 84<231 309>
VStem: 34 106<289.304 425.368> 400 106<289.304 425.368>
LayerCount: 2
Back
Fore
SplineSet
58 29 m 1
 34 102 l 1
 32 119 l 1
 36 134 l 1
 46 147 l 1
 60 156 l 1
 76 158 l 1
 95 151 l 1
 58 225 l 1
 34 299 l 1
 31 411 l 1
 58 498 l 1
 68 514 l 1
 117 563 l 1
 134 573 l 1
 218 600 l 1
 322 600 l 1
 406 573 l 1
 423 563 l 1
 472 514 l 1
 482 498 l 1
 509 411 l 1
 506 299 l 1
 482 225 l 1
 445 151 l 1
 464 158 l 1
 480 156 l 1
 494 147 l 1
 504 134 l 1
 508 119 l 1
 506 102 l 1
 482 29 l 1
 473 14 l 1
 459 4 l 1
 442 0 l 1
 344 0 l 1
 327 3 l 1
 313 13 l 1
 304 28 l 1
 302 44 l 1
 306 61 l 1
 354 156 l 1
 377 226 l 1
 400 317 l 1
 400 404 l 1
 381 462 l 1
 343 499 l 1
 309 516 l 1
 231 516 l 1
 197 499 l 1
 159 462 l 1
 140 404 l 1
 140 317 l 1
 163 226 l 1
 186 156 l 1
 234 61 l 1
 238 44 l 1
 236 28 l 1
 227 13 l 1
 213 3 l 1
 196 0 l 1
 98 0 l 1
 81 4 l 1
 67 14 l 1
 58 29 l 1
EndSplineSet
EndChar

StartChar: glyph102
Encoding: 280 945 102
Width: 565
VWidth: 0
Flags: W
HStem: 0 84<182 211> 408 20G<179.778 311 448 480>
VStem: 31 109<126 204.333>
LayerCount: 2
Back
Fore
SplineSet
158 401 m 1
 242 428 l 1
 295 428 l 1
 311 425 l 1
 373 391 l 1
 405 333 l 1
 427 399 l 1
 435 414 l 1
 448 424 l 1
 464 428 l 1
 480 426 l 1
 494 418 l 1
 504 405 l 1
 508 389 l 1
 506 373 l 1
 480 294 l 1
 437 209 l 1
 457 130 l 1
 477 91 l 1
 484 84 l 1
 507 81 l 1
 521 72 l 1
 530 58 l 1
 533 42 l 1
 530 26 l 1
 521 12 l 1
 507 3 l 1
 491 0 l 1
 467 0 l 1
 448 4 l 1
 388 37 l 1
 357 94 l 1
 289 29 l 1
 240 4 l 1
 221 0 l 1
 158 2 l 1
 85 27 l 1
 70 35 l 1
 60 48 l 1
 36 97 l 1
 31 116 l 1
 34 203 l 1
 58 276 l 1
 85 331 l 1
 142 391 l 1
 158 401 l 1
277 344 m 1
 255 344 l 1
 221 327 l 1
 182 287 l 1
 161 247 l 1
 140 183 l 1
 140 126 l 1
 154 98 l 1
 182 84 l 1
 211 84 l 1
 245 101 l 1
 311 167 l 1
 330 195 l 1
 304 298 l 1
 285 337 l 1
 277 344 l 1
EndSplineSet
EndChar

StartChar: glyph103
Encoding: 281 946 103
Width: 516
VWidth: 0
Flags: W
HStem: -172 21G<28 62> 0 84<231 260> 580 20G<306 384>
VStem: 326 109<150 204> 375 109<445 491>
LayerCount: 2
Back
Fore
SplineSet
62 -170 m 1xf0
 44 -172 l 1
 28 -167 l 1
 16 -156 l 1
 8 -141 l 1
 7 -125 l 1
 32 72 l 1
 57 221 l 1
 82 322 l 1
 110 405 l 1
 159 503 l 1
 216 563 l 1
 232 573 l 1
 306 598 l 1
 368 600 l 1
 384 597 l 1
 447 563 l 1
 472 539 l 1
 481 525 l 1
 484 509 l 1
 484 435 l 1xe8
 480 416 l 1
 455 367 l 1
 423 332 l 1
 406 322 l 1
 378 312 l 1
 406 282 l 1
 430 233 l 1
 435 214 l 1
 435 140 l 1
 430 122 l 1
 406 72 l 1
 373 37 l 1
 357 27 l 1
 283 2 l 1
 221 0 l 1
 202 4 l 1
 153 29 l 1
 137 42 l 1
 115 -135 l 1
 110 -151 l 1
 99 -163 l 1
 85 -170 l 1
 62 -170 l 1xf0
309 379 m 1
 343 396 l 1
 358 411 l 1
 375 445 l 1
 375 491 l 1
 351 516 l 1
 329 516 l 1
 295 499 l 1
 255 459 l 1
 215 378 l 1
 309 379 l 1
260 84 m 1
 294 101 l 1
 309 116 l 1
 326 150 l 1
 326 204 l 1xf0
 309 238 l 1
 272 276 l 1
 205 298 l 1
 190 309 l 1
 160 183 l 1
 184 114 l 1
 197 101 l 1
 231 84 l 1
 260 84 l 1
EndSplineSet
EndChar

StartChar: glyph104
Encoding: 282 947 104
Width: 491
VWidth: 0
Flags: W
HStem: -172 21G<128 160 160 189> 319 109<107 186>
LayerCount: 2
Back
Fore
SplineSet
73 302 m 1
 54 283 l 1
 40 273 l 1
 24 270 l 1
 8 273 l 1
 -6 283 l 1
 -15 296 l 1
 -18 312 l 1
 -15 328 l 1
 -6 342 l 1
 43 391 l 1
 103 424 l 1
 122 428 l 1
 171 428 l 1
 190 424 l 1
 250 391 l 1
 277 364 l 1
 285 350 l 1
 309 276 l 1
 312 249 l 1
 354 328 l 1
 377 399 l 1
 385 414 l 1
 398 424 l 1
 414 428 l 1
 455 426 l 1
 469 418 l 1
 479 405 l 1
 483 389 l 1
 481 373 l 1
 457 299 l 1
 430 244 l 1
 305 68 l 1
 267 5 l 1
 211 -145 l 1
 202 -159 l 1
 189 -168 l 1
 173 -172 l 1
 160 -170 l 1
 144 -172 l 1
 128 -168 l 1
 115 -158 l 1
 107 -143 l 1
 105 -127 l 1
 109 -111 l 1
 158 -13 l 1
 191 41 l 1
 205 79 l 1
 228 170 l 1
 228 256 l 1
 211 307 l 1
 186 319 l 1
 107 319 l 1
 73 302 l 1
EndSplineSet
EndChar

StartChar: glyph105
Encoding: 283 948 105
Width: 466
VWidth: 0
Flags: W
HStem: 0 84<181 210>
VStem: 31 108<126 207> 301 108<221 302>
LayerCount: 2
Back
Fore
SplineSet
93 36 m 1
 60 72 l 1
 35 122 l 1
 31 140 l 1
 33 227 l 1
 57 301 l 1
 111 385 l 1
 121 395 l 1
 133 401 l 1
 216 428 l 1
 182 490 l 1
 178 509 l 1
 178 558 l 1
 181 574 l 1
 190 588 l 1
 215 612 l 1
 228 621 l 1
 245 625 l 1
 294 625 l 1
 312 620 l 1
 373 588 l 1
 422 539 l 1
 433 517 l 1
 433 501 l 1
 422 479 l 1
 408 470 l 1
 392 467 l 1
 369 474 l 1
 306 516 l 1
 287 516 l 1
 287 494 l 1
 306 456 l 1
 328 423 l 1
 376 363 l 1
 405 306 l 1
 409 288 l 1
 409 214 l 1
 383 127 l 1
 329 43 l 1
 319 33 l 1
 233 2 l 1
 171 0 l 1
 152 4 l 1
 93 36 l 1
210 84 m 1
 240 99 l 1
 280 159 l 1
 301 221 l 1
 301 302 l 1
 287 330 l 1
 259 344 l 1
 230 344 l 1
 200 329 l 1
 160 269 l 1
 139 207 l 1
 139 126 l 1
 153 98 l 1
 181 84 l 1
 210 84 l 1
EndSplineSet
EndChar

StartChar: glyph106
Encoding: 284 949 106
Width: 441
VWidth: 0
Flags: W
HStem: 2 82<181 235> 344 84<188 259>
LayerCount: 2
Back
Fore
SplineSet
113 255 m 1
 118 256 l 1
 92 283 l 1
 83 296 l 1
 80 312 l 1
 80 361 l 1
 83 377 l 1
 91 390 l 1
 103 399 l 1
 155 425 l 1
 171 428 l 1
 269 428 l 1
 288 424 l 1
 337 399 l 1
 397 342 l 1
 406 328 l 1
 409 312 l 1
 406 296 l 1
 397 283 l 1
 384 273 l 1
 367 270 l 1
 351 273 l 1
 338 283 l 1
 293 327 l 1
 259 344 l 1
 188 344 l 1
 188 330 l 1
 220 298 l 1
 266 275 l 1
 276 266 l 1
 285 249 l 1
 286 230 l 1
 276 211 l 1
 263 201 l 1
 168 176 l 1
 139 147 l 1
 139 126 l 1
 153 98 l 1
 181 84 l 1
 235 84 l 1
 269 101 l 1
 313 145 l 1
 327 155 l 1
 343 158 l 1
 359 155 l 1
 373 145 l 1
 382 132 l 1
 385 116 l 1
 382 100 l 1
 373 86 l 1
 323 37 l 1
 263 4 l 1
 245 0 l 1
 158 2 l 1
 84 27 l 1
 70 35 l 1
 60 48 l 1
 35 97 l 1
 31 116 l 1
 31 165 l 1
 34 181 l 1
 43 195 l 1
 92 244 l 1
 113 255 l 1
EndSplineSet
EndChar

StartChar: glyph107
Encoding: 285 950 107
Width: 442
VWidth: 0
Flags: W
HStem: -172 21G<179 261> 580 20G<250 282>
LayerCount: 2
Back
Fore
SplineSet
316 375 m 1
 223 305 l 1
 158 240 l 1
 139 183 l 1
 139 150 l 1
 156 116 l 1
 198 75 l 1
 268 28 l 1
 282 12 l 1
 307 -38 l 1
 311 -56 l 1
 311 -105 l 1
 308 -122 l 1
 299 -135 l 1
 274 -160 l 1
 261 -169 l 1
 245 -172 l 1
 195 -172 l 1
 179 -169 l 1
 166 -160 l 1
 141 -135 l 1
 132 -122 l 1
 129 -105 l 1
 132 -89 l 1
 141 -76 l 1
 155 -67 l 1
 171 -63 l 1
 187 -67 l 1
 213 -88 l 1
 227 -88 l 1
 227 -66 l 1
 212 -36 l 1
 74 56 l 1
 60 72 l 1
 35 122 l 1
 31 140 l 1
 33 203 l 1
 57 276 l 1
 67 293 l 1
 141 367 l 1
 215 417 l 1
 190 430 l 1
 166 455 l 1
 157 468 l 1
 153 484 l 1
 157 525 l 1
 166 539 l 1
 201 571 l 1
 250 596 l 1
 266 600 l 1
 282 598 l 1
 297 590 l 1
 307 577 l 1
 311 561 l 1
 309 545 l 1
 301 530 l 1
 288 520 l 1
 243 496 l 1
 301 477 l 1
 336 477 l 1
 403 500 l 1
 419 502 l 1
 434 498 l 1
 447 489 l 1
 456 475 l 1
 459 435 l 1
 455 419 l 1
 446 405 l 1
 433 396 l 1
 417 393 l 1
 353 393 l 1
 316 375 l 1
EndSplineSet
EndChar

StartChar: glyph108
Encoding: 286 951 108
Width: 540
VWidth: 0
Flags: W
HStem: -172 21G<308 365> 0 21G<86 143> 344 84<115 130 329 351>
VStem: 375 108<231.391 319>
LayerCount: 2
Back
Fore
SplineSet
83 312 m 1
 62 269 l 1
 52 256 l 1
 38 248 l 1
 21 246 l 1
 6 250 l 1
 -7 260 l 1
 -16 274 l 1
 -18 291 l 1
 -13 306 l 1
 19 367 l 1
 68 416 l 1
 82 425 l 1
 98 428 l 1
 172 428 l 1
 188 425 l 1
 201 416 l 1
 232 383 l 1
 251 399 l 1
 300 424 l 1
 319 428 l 1
 368 428 l 1
 384 425 l 1
 436 399 l 1
 472 367 l 1
 481 353 l 1
 484 337 l 1
 483 255 l 1
 459 132 l 1
 384 -141 l 1
 377 -156 l 1
 365 -166 l 1
 349 -172 l 1
 308 -171 l 1
 293 -163 l 1
 283 -151 l 1
 277 -135 l 1
 279 -119 l 1
 352 150 l 1
 375 267 l 1
 375 319 l 1
 351 344 l 1
 329 344 l 1
 295 327 l 1
 255 287 l 1
 211 199 l 1
 163 30 l 1
 155 16 l 1
 143 5 l 1
 127 0 l 1
 86 2 l 1
 72 9 l 1
 61 22 l 1
 56 37 l 1
 58 54 l 1
 107 225 l 1
 130 317 l 1
 130 344 l 1
 115 344 l 1
 83 312 l 1
EndSplineSet
EndChar

StartChar: glyph109
Encoding: 287 952 109
Width: 565
VWidth: 0
Flags: W
HStem: 0 21G<202 288> 408 20G<81 187> 580 20G<327 408>
VStem: 105 108<126 220.56> 129 109<281.583 344> 399 108<352 474>
LayerCount: 2
Back
Fore
SplineSet
83 312 m 1xec
 61 269 l 1
 51 256 l 1
 37 248 l 1
 21 246 l 1
 5 250 l 1
 -8 260 l 1
 -16 274 l 1
 -18 291 l 1
 -14 306 l 1
 11 356 l 1
 68 416 l 1
 81 425 l 1
 97 428 l 1
 171 428 l 1
 187 425 l 1
 201 416 l 1
 225 391 l 1
 235 378 l 1
 238 361 l 1
 238 312 l 1xec
 213 185 l 1
 213 126 l 1xf4
 230 91 l 1
 238 84 l 1xec
 260 84 l 1
 290 99 l 1
 331 161 l 1
 353 206 l 1
 369 252 l 1
 333 289 l 1
 279 373 l 1
 252 460 l 1
 252 509 l 1
 255 525 l 1
 264 539 l 1
 313 588 l 1
 327 597 l 1
 343 600 l 1
 392 600 l 1
 408 597 l 1
 460 571 l 1
 471 563 l 1
 479 552 l 1
 504 503 l 1
 508 484 l 1
 507 378 l 1
 485 268 l 1
 514 249 l 1
 525 237 l 1
 532 222 l 1
 532 206 l 1
 526 191 l 1
 514 179 l 1
 499 173 l 1
 482 173 l 1
 459 184 l 1
 452 166 l 1
 403 92 l 1
 342 32 l 1
 288 4 l 1
 269 0 l 1
 220 0 l 1
 202 4 l 1
 141 37 l 1
 109 97 l 1
 105 116 l 1
 105 198 l 1xf4
 129 316 l 1
 129 344 l 1
 115 344 l 1
 83 312 l 1xec
392 352 m 1
 399 390 l 1
 399 474 l 1
 382 509 l 1
 375 516 l 1
 361 516 l 1
 336 491 l 1
 336 467 l 1
 357 405 l 1
 392 352 l 1
EndSplineSet
EndChar

StartChar: glyph110
Encoding: 288 953 110
Width: 294
VWidth: 0
Flags: W
HStem: 0 21G<82 188> 408 20G<127 183>
VStem: 31 109<84 139>
LayerCount: 2
Back
Fore
SplineSet
57 226 m 1
 107 398 l 1
 114 412 l 1
 127 423 l 1
 142 428 l 1
 183 426 l 1
 198 419 l 1
 208 406 l 1
 213 391 l 1
 212 374 l 1
 163 203 l 1
 140 111 l 1
 140 84 l 1
 154 84 l 1
 186 116 l 1
 208 159 l 1
 218 172 l 1
 232 180 l 1
 248 182 l 1
 264 178 l 1
 277 168 l 1
 285 154 l 1
 287 137 l 1
 283 122 l 1
 250 61 l 1
 201 12 l 1
 188 3 l 1
 172 0 l 1
 98 0 l 1
 82 3 l 1
 68 12 l 1
 44 37 l 1
 34 50 l 1
 31 67 l 1
 33 126 l 1
 57 226 l 1
EndSplineSet
EndChar

StartChar: glyph111
Encoding: 289 954 111
Width: 492
VWidth: 0
Flags: W
HStem: 0 21G<37 93 253 337> 408 20G<126 183 349 433>
LayerCount: 2
Back
Fore
SplineSet
8 54 m 1
 106 398 l 1
 114 412 l 1
 126 423 l 1
 142 428 l 1
 183 426 l 1
 197 419 l 1
 208 406 l 1
 213 391 l 1
 212 374 l 1
 189 294 l 1
 196 298 l 1
 289 391 l 1
 349 424 l 1
 368 428 l 1
 417 428 l 1
 433 425 l 1
 447 416 l 1
 471 391 l 1
 480 378 l 1
 484 361 l 1
 480 345 l 1
 471 332 l 1
 458 323 l 1
 417 319 l 1
 401 323 l 1
 376 343 l 1
 344 327 l 1
 254 238 l 1
 260 227 l 1
 306 89 l 1
 311 85 l 1
 339 99 l 1
 382 164 l 1
 394 175 l 1
 409 181 l 1
 425 181 l 1
 440 175 l 1
 452 164 l 1
 458 149 l 1
 458 132 l 1
 452 117 l 1
 403 43 l 1
 387 29 l 1
 337 4 l 1
 319 0 l 1
 270 0 l 1
 253 3 l 1
 240 12 l 1
 215 37 l 1
 205 53 l 1
 159 191 l 1
 113 30 l 1
 106 16 l 1
 93 5 l 1
 78 0 l 1
 37 2 l 1
 22 9 l 1
 12 22 l 1
 7 37 l 1
 8 54 l 1
EndSplineSet
EndChar

StartChar: glyph112
Encoding: 290 955 112
Width: 492
VWidth: 0
Flags: W
HStem: 0 21G<28 61 61 86 398 458> 516 84<57 105>
LayerCount: 2
Back
Fore
SplineSet
12 63 m 1
 188 371 l 1
 137 484 l 1
 105 516 l 1
 73 516 l 1
 57 519 l 1
 43 528 l 1
 34 542 l 1
 31 558 l 1
 34 574 l 1
 43 588 l 1
 57 597 l 1
 73 600 l 1
 122 600 l 1
 138 597 l 1
 201 563 l 1
 233 528 l 1
 259 476 l 1
 406 133 l 1
 427 91 l 1
 434 84 l 1
 458 81 l 1
 471 72 l 1
 480 58 l 1
 484 42 l 1
 480 26 l 1
 471 12 l 1
 458 3 l 1
 417 0 l 1
 398 4 l 1
 338 37 l 1
 305 99 l 1
 233 267 l 1
 111 23 l 1
 101 10 l 1
 86 2 l 1
 70 0 l 1
 61 2 l 1
 43 0 l 1
 28 6 l 1
 15 16 l 1
 8 31 l 1
 7 47 l 1
 12 63 l 1
EndSplineSet
EndChar

StartChar: glyph113
Encoding: 291 956 113
Width: 565
VWidth: 0
Flags: W
HStem: -172 21G<12 69> 0 84<213 235 434 449> 408 20G<151 207 421 477>
LayerCount: 2
Back
Fore
SplineSet
-17 -118 m 1
 131 398 l 1
 138 412 l 1
 151 423 l 1
 166 428 l 1
 207 426 l 1
 222 419 l 1
 232 406 l 1
 237 391 l 1
 236 374 l 1
 207 274 l 1
 189 161 l 1
 189 109 l 1
 213 84 l 1
 235 84 l 1
 269 101 l 1
 311 142 l 1
 346 196 l 1
 401 397 l 1
 408 412 l 1
 421 422 l 1
 436 428 l 1
 477 427 l 1
 492 419 l 1
 502 407 l 1
 508 391 l 1
 507 375 l 1
 434 110 l 1
 434 84 l 1
 449 84 l 1
 481 116 l 1
 502 159 l 1
 512 172 l 1
 526 180 l 1
 543 182 l 1
 558 178 l 1
 571 168 l 1
 580 154 l 1
 582 137 l 1
 577 122 l 1
 545 61 l 1
 496 12 l 1
 482 3 l 1
 466 0 l 1
 392 0 l 1
 376 3 l 1
 363 12 l 1
 332 45 l 1
 313 29 l 1
 264 4 l 1
 245 0 l 1
 196 0 l 1
 180 3 l 1
 166 12 l 1
 140 38 l 1
 89 -142 l 1
 81 -156 l 1
 69 -167 l 1
 53 -172 l 1
 12 -170 l 1
 -2 -163 l 1
 -13 -150 l 1
 -18 -135 l 1
 -17 -118 l 1
EndSplineSet
EndChar

StartChar: glyph114
Encoding: 292 957 114
Width: 492
VWidth: 0
Flags: W
HStem: 0 21G<71 109> 408 20G<58 195 396 456>
LayerCount: 2
Back
Fore
SplineSet
57 48 m 1
 99 344 l 1
 58 347 l 1
 44 356 l 1
 35 370 l 1
 32 386 l 1
 35 402 l 1
 44 416 l 1
 58 425 l 1
 74 428 l 1
 172 428 l 1
 195 422 l 1
 211 402 l 1
 214 379 l 1
 189 232 l 1
 165 110 l 1
 200 128 l 1
 268 173 l 1
 310 214 l 1
 354 302 l 1
 377 396 l 1
 384 411 l 1
 396 422 l 1
 412 428 l 1
 456 426 l 1
 470 418 l 1
 480 405 l 1
 484 389 l 1
 482 373 l 1
 456 294 l 1
 428 240 l 1
 379 166 l 1
 325 111 l 1
 240 54 l 1
 186 27 l 1
 109 1 l 1
 93 0 l 1
 71 10 l 1
 59 29 l 1
 57 48 l 1
EndSplineSet
EndChar

StartChar: glyph115
Encoding: 293 958 115
Width: 417
VWidth: 0
Flags: W
HStem: -172 84<155 210> 172 84<254 334> 393 84<301 384> 580 20G<250 282>
LayerCount: 2
Back
Fore
SplineSet
125 226 m 1
 92 258 l 1
 83 272 l 1
 80 288 l 1
 80 337 l 1
 84 356 l 1
 117 416 l 1
 174 447 l 1
 157 468 l 1
 153 484 l 1
 157 525 l 1
 166 539 l 1
 201 571 l 1
 250 596 l 1
 266 600 l 1
 282 598 l 1
 297 590 l 1
 307 577 l 1
 311 561 l 1
 309 545 l 1
 301 530 l 1
 288 520 l 1
 243 497 l 1
 301 477 l 1
 367 477 l 1
 384 474 l 1
 397 465 l 1
 406 451 l 1
 409 435 l 1
 406 419 l 1
 397 405 l 1
 384 396 l 1
 367 393 l 1
 301 393 l 1
 236 372 l 1
 202 355 l 1
 188 327 l 1
 188 305 l 1
 220 273 l 1
 254 256 l 1
 318 256 l 1
 334 253 l 1
 348 244 l 1
 357 230 l 1
 360 214 l 1
 357 198 l 1
 348 184 l 1
 334 175 l 1
 318 172 l 1
 251 172 l 1
 187 151 l 1
 153 134 l 1
 139 106 l 1
 139 84 l 1
 171 52 l 1
 263 6 l 1
 299 -27 l 1
 308 -40 l 1
 311 -56 l 1
 311 -105 l 1
 308 -121 l 1
 300 -134 l 1
 288 -143 l 1
 239 -168 l 1
 220 -172 l 1
 171 -172 l 1
 155 -169 l 1
 141 -160 l 1
 132 -146 l 1
 129 -130 l 1
 132 -114 l 1
 141 -100 l 1
 155 -91 l 1
 171 -88 l 1
 210 -88 l 1
 227 -79 l 1
 227 -74 l 1
 221 -68 l 1
 106 -22 l 1
 92 -12 l 1
 43 37 l 1
 34 50 l 1
 31 67 l 1
 31 116 l 1
 35 134 l 1
 60 184 l 1
 67 195 l 1
 78 202 l 1
 125 226 l 1
EndSplineSet
EndChar

StartChar: glyph116
Encoding: 294 959 116
Width: 441
VWidth: 0
Flags: W
HStem: 0 84<181 210> 344 84<230 259>
VStem: 31 108<126 207> 301 108<221 302>
LayerCount: 2
Back
Fore
SplineSet
93 36 m 1
 60 72 l 1
 35 122 l 1
 31 140 l 1
 31 214 l 1
 57 301 l 1
 111 385 l 1
 121 395 l 1
 133 401 l 1
 217 428 l 1
 269 428 l 1
 288 424 l 1
 346 393 l 1
 380 356 l 1
 405 306 l 1
 409 288 l 1
 409 214 l 1
 383 127 l 1
 329 43 l 1
 319 33 l 1
 307 27 l 1
 220 0 l 1
 171 0 l 1
 152 4 l 1
 93 36 l 1
153 98 m 1
 181 84 l 1
 210 84 l 1
 240 99 l 1
 280 159 l 1
 301 221 l 1
 301 302 l 1
 287 330 l 1
 259 344 l 1
 230 344 l 1
 200 329 l 1
 160 269 l 1
 139 207 l 1
 139 126 l 1
 153 98 l 1
EndSplineSet
EndChar

StartChar: glyph117
Encoding: 295 960 117
Width: 540
VWidth: 0
Flags: W
HStem: 0 21G<110 169 352 380 380 412> 319 109<254 326 414 507>
VStem: 326 88<227.667 319>
LayerCount: 2
Back
Fore
SplineSet
7 311 m 1
 9 326 l 1
 17 340 l 1
 68 391 l 1
 85 401 l 1
 172 428 l 1
 491 428 l 1
 507 425 l 1
 521 416 l 1
 530 402 l 1
 533 386 l 1
 530 345 l 1
 521 332 l 1
 507 323 l 1
 491 319 l 1
 414 319 l 1
 435 45 l 1
 433 29 l 1
 425 15 l 1
 412 5 l 1
 396 0 l 1
 380 2 l 1
 368 0 l 1
 352 3 l 1
 339 12 l 1
 329 26 l 1
 326 42 l 1
 326 319 l 1
 254 319 l 1
 188 33 l 1
 181 18 l 1
 169 6 l 1
 154 1 l 1
 110 2 l 1
 96 10 l 1
 85 22 l 1
 81 38 l 1
 82 54 l 1
 162 314 l 1
 114 298 l 1
 65 273 l 1
 49 270 l 1
 33 273 l 1
 19 283 l 1
 10 296 l 1
 7 311 l 1
EndSplineSet
EndChar

StartChar: glyph118
Encoding: 296 961 118
Width: 466
VWidth: 0
Flags: W
HStem: -172 21G<11 44> 0 84<206 235> 344 84<255 284>
VStem: 326 106<221 302>
LayerCount: 2
Back
Fore
SplineSet
11 -170 m 1
 -12 -170 l 1
 -27 -163 l 1
 -37 -150 l 1
 -42 -135 l 1
 -41 -118 l 1
 57 226 l 1
 87 311 l 1
 146 395 l 1
 232 426 l 1
 294 428 l 1
 313 424 l 1
 362 399 l 1
 398 367 l 1
 405 356 l 1
 430 306 l 1
 434 288 l 1
 432 201 l 1
 403 117 l 1
 344 33 l 1
 258 2 l 1
 196 0 l 1
 177 4 l 1
 128 29 l 1
 116 38 l 1
 64 -142 l 1
 57 -156 l 1
 44 -167 l 1
 29 -172 l 1
 11 -170 l 1
255 344 m 1
 225 329 l 1
 185 269 l 1
 147 149 l 1
 159 114 l 1
 172 101 l 1
 206 84 l 1
 235 84 l 1
 265 99 l 1
 305 159 l 1
 326 221 l 1
 326 302 l 1
 312 330 l 1
 284 344 l 1
 255 344 l 1
EndSplineSet
EndChar

StartChar: glyph119
Encoding: 297 963 119
Width: 516
VWidth: 0
Flags: W
HStem: 0 84<182 212> 319 109<400 483> 344 84<231 261>
VStem: 32 109<126 227> 302 107<201 288>
LayerCount: 2
Back
Fore
SplineSet
95 36 m 1xd8
 61 72 l 1
 36 122 l 1
 32 140 l 1
 32 214 l 1
 34 227 l 1
 64 311 l 1
 122 395 l 1
 134 401 l 1
 218 428 l 1xb8
 467 428 l 1
 483 425 l 1
 497 416 l 1
 506 402 l 1
 509 361 l 1
 506 345 l 1
 497 332 l 1
 483 323 l 1
 467 319 l 1
 400 319 l 1
 411 288 l 1
 409 201 l 1
 379 117 l 1
 321 33 l 1
 235 2 l 1
 172 0 l 1
 154 4 l 1
 95 36 l 1xd8
231 344 m 1
 201 329 l 1
 161 269 l 1
 141 207 l 1
 141 126 l 1
 154 98 l 1
 182 84 l 1
 212 84 l 1
 242 99 l 1
 282 159 l 1
 302 221 l 1
 302 302 l 1
 288 330 l 1
 261 344 l 1
 231 344 l 1
EndSplineSet
EndChar

StartChar: glyph120
Encoding: 298 964 120
Width: 492
VWidth: 0
Flags: W
HStem: 1 21G<171 245> 319 109<156.667 217 306 458>
LayerCount: 2
Back
Fore
SplineSet
7 311 m 1
 9 326 l 1
 17 340 l 1
 68 391 l 1
 84 401 l 1
 171 428 l 1
 442 428 l 1
 458 425 l 1
 471 416 l 1
 480 402 l 1
 484 386 l 1
 480 345 l 1
 471 332 l 1
 458 323 l 1
 442 319 l 1
 306 319 l 1
 262 36 l 1
 256 20 l 1
 245 8 l 1
 230 1 l 1
 186 1 l 1
 171 8 l 1
 160 20 l 1
 154 35 l 1
 155 51 l 1
 217 319 l 1
 178 319 l 1
 114 298 l 1
 65 273 l 1
 51 270 l 1
 35 272 l 1
 21 281 l 1
 11 294 l 1
 7 311 l 1
EndSplineSet
EndChar

StartChar: glyph121
Encoding: 299 965 121
Width: 492
VWidth: 0
Flags: W
HStem: 0 21G<180 234> 408 20G<81 187 376 407>
VStem: 80 109<109 158>
LayerCount: 2
Back
Fore
SplineSet
83 312 m 1
 61 269 l 1
 51 256 l 1
 37 248 l 1
 21 246 l 1
 5 250 l 1
 -8 260 l 1
 -16 274 l 1
 -18 291 l 1
 -14 306 l 1
 11 356 l 1
 68 416 l 1
 81 425 l 1
 98 428 l 1
 171 428 l 1
 187 425 l 1
 201 416 l 1
 226 391 l 1
 235 378 l 1
 238 361 l 1
 236 299 l 1
 189 158 l 1
 189 109 l 1
 213 84 l 1
 271 103 l 1
 311 142 l 1
 352 205 l 1
 366 284 l 1
 356 314 l 1
 329 345 l 1
 326 361 l 1
 329 378 l 1
 338 391 l 1
 363 416 l 1
 376 425 l 1
 391 428 l 1
 407 425 l 1
 420 417 l 1
 430 405 l 1
 458 346 l 1
 459 260 l 1
 428 167 l 1
 378 92 l 1
 324 37 l 1
 307 27 l 1
 234 2 l 1
 196 0 l 1
 180 3 l 1
 128 29 l 1
 92 61 l 1
 83 75 l 1
 80 91 l 1
 82 178 l 1
 129 319 l 1
 129 344 l 1
 115 344 l 1
 83 312 l 1
EndSplineSet
EndChar

StartChar: glyph122
Encoding: 300 966 122
Width: 541
VWidth: 0
Flags: W
HStem: -171 21G<135 194> 408 20G<352 434>
VStem: 31 84<158 207> 425 84<270 311>
LayerCount: 2
Back
Fore
SplineSet
31 140 m 1
 34 227 l 1
 58 301 l 1
 68 317 l 1
 117 367 l 1
 178 399 l 1
 193 403 l 1
 210 401 l 1
 224 393 l 1
 234 380 l 1
 238 364 l 1
 236 348 l 1
 228 334 l 1
 215 324 l 1
 172 302 l 1
 135 265 l 1
 115 207 l 1
 115 158 l 1
 147 126 l 1
 176 112 l 1
 231 254 l 1
 282 356 l 1
 339 416 l 1
 352 425 l 1
 368 428 l 1
 417 428 l 1
 434 425 l 1
 447 416 l 1
 496 367 l 1
 505 353 l 1
 509 337 l 1
 509 263 l 1
 506 250 l 1
 477 166 l 1
 428 92 l 1
 416 81 l 1
 332 27 l 1
 259 2 l 1
 244 0 l 1
 213 -139 l 1
 206 -154 l 1
 194 -165 l 1
 179 -171 l 1
 135 -170 l 1
 121 -163 l 1
 110 -150 l 1
 105 -134 l 1
 107 -118 l 1
 145 8 l 1
 104 29 l 1
 68 61 l 1
 36 122 l 1
 31 140 l 1
405 212 m 1
 425 270 l 1
 425 311 l 1
 408 319 l 1
 386 319 l 1
 352 286 l 1
 308 220 l 1
 275 121 l 1
 301 129 l 1
 366 173 l 1
 405 212 l 1
EndSplineSet
EndChar

StartChar: glyph123
Encoding: 301 967 123
Width: 441
VWidth: 0
Flags: W
HStem: -172 84<360 408> 344 84<32 80>
LayerCount: 2
Back
Fore
SplineSet
80 344 m 1
 48 344 l 1
 32 347 l 1
 18 356 l 1
 9 370 l 1
 6 386 l 1
 9 402 l 1
 18 416 l 1
 32 425 l 1
 48 428 l 1
 97 428 l 1
 116 424 l 1
 176 391 l 1
 211 326 l 1
 246 219 l 1
 310 289 l 1
 356 358 l 1
 379 405 l 1
 389 418 l 1
 403 426 l 1
 420 428 l 1
 435 424 l 1
 448 414 l 1
 456 399 l 1
 458 383 l 1
 454 367 l 1
 427 314 l 1
 374 235 l 1
 277 128 l 1
 333 -40 l 1
 353 -81 l 1
 360 -88 l 1
 392 -88 l 1
 408 -91 l 1
 422 -100 l 1
 431 -114 l 1
 434 -130 l 1
 431 -146 l 1
 422 -160 l 1
 408 -169 l 1
 392 -172 l 1
 343 -172 l 1
 327 -169 l 1
 264 -135 l 1
 229 -70 l 1
 194 37 l 1
 130 -33 l 1
 84 -102 l 1
 61 -149 l 1
 51 -162 l 1
 37 -170 l 1
 20 -172 l 1
 5 -168 l 1
 -8 -158 l 1
 -16 -143 l 1
 -18 -127 l 1
 -14 -111 l 1
 13 -58 l 1
 66 21 l 1
 163 128 l 1
 107 296 l 1
 87 337 l 1
 80 344 l 1
EndSplineSet
EndChar

StartChar: glyph124
Encoding: 302 968 124
Width: 564
VWidth: 0
Flags: W
HStem: -171 21G<184 243> 408 20G<81 187 496 528> 579 20G<345 404>
VStem: 105 108<133 220.56> 129 109<281.583 344>
LayerCount: 2
Back
Fore
SplineSet
83 312 m 1xe8
 61 269 l 1
 51 256 l 1
 37 248 l 1
 21 246 l 1
 5 250 l 1
 -8 260 l 1
 -16 274 l 1
 -18 291 l 1
 -14 306 l 1
 11 356 l 1
 68 416 l 1
 81 425 l 1
 97 428 l 1
 171 428 l 1
 187 425 l 1
 201 416 l 1
 225 391 l 1
 235 378 l 1
 238 361 l 1
 238 312 l 1xe8
 213 185 l 1
 213 133 l 1
 224 122 l 1
 253 224 l 1
 327 567 l 1
 333 582 l 1
 345 593 l 1
 360 599 l 1
 404 598 l 1
 418 591 l 1
 429 578 l 1
 434 563 l 1
 433 546 l 1
 335 204 l 1
 318 126 l 1
 384 192 l 1
 428 257 l 1
 475 399 l 1
 483 414 l 1
 496 424 l 1
 512 428 l 1
 528 426 l 1
 543 418 l 1
 553 405 l 1
 557 389 l 1
 555 373 l 1
 506 225 l 1
 479 171 l 1
 427 92 l 1
 373 37 l 1
 313 4 l 1
 291 0 l 1
 261 -139 l 1
 255 -154 l 1
 243 -165 l 1
 228 -171 l 1
 184 -170 l 1
 170 -163 l 1
 159 -150 l 1
 154 -135 l 1
 155 -118 l 1
 192 9 l 1
 141 37 l 1
 109 97 l 1
 105 116 l 1
 105 198 l 1xf0
 129 316 l 1
 129 344 l 1
 115 344 l 1
 83 312 l 1xe8
EndSplineSet
EndChar

StartChar: glyph125
Encoding: 303 969 125
Width: 565
VWidth: 0
Flags: W
HStem: 0 109<140 162 337 359> 408 20G<178 212 426 459>
VStem: 32 84<150 227> 450 81<221 278>
LayerCount: 2
Back
Fore
SplineSet
32 139 m 1
 34 227 l 1
 60 304 l 1
 113 385 l 1
 129 399 l 1
 178 424 l 1
 195 428 l 1
 212 425 l 1
 226 416 l 1
 251 391 l 1
 260 377 l 1
 263 360 l 1
 259 344 l 1
 249 330 l 1
 235 322 l 1
 170 300 l 1
 135 265 l 1
 116 207 l 1
 116 150 l 1
 133 116 l 1
 140 109 l 1
 162 109 l 1
 196 126 l 1
 228 158 l 1
 228 214 l 1
 232 230 l 1
 241 244 l 1
 254 253 l 1
 270 256 l 1
 308 254 l 1
 323 246 l 1
 333 233 l 1
 337 217 l 1
 335 201 l 1
 316 144 l 1
 330 116 l 1
 337 109 l 1
 359 109 l 1
 393 126 l 1
 430 163 l 1
 450 221 l 1
 450 278 l 1
 436 306 l 1
 399 324 l 1
 387 333 l 1
 378 347 l 1
 376 363 l 1
 379 378 l 1
 388 391 l 1
 413 416 l 1
 426 425 l 1
 442 428 l 1
 459 425 l 1
 472 416 l 1
 497 391 l 1
 507 375 l 1
 533 291 l 1
 531 201 l 1
 506 124 l 1
 453 43 l 1
 437 29 l 1
 387 4 l 1
 369 0 l 1
 320 0 l 1
 303 3 l 1
 290 12 l 1
 265 37 l 1
 259 47 l 1
 240 29 l 1
 191 4 l 1
 172 0 l 1
 123 0 l 1
 107 3 l 1
 93 12 l 1
 69 37 l 1
 59 53 l 1
 32 139 l 1
EndSplineSet
EndChar

StartChar: glyph126
Encoding: 304 1040 126
Width: 491
VWidth: 0
Flags: W
HStem: 0 84<131 187> 147 84<180 285> 580 20G<232 264>
LayerCount: 2
Back
Fore
SplineSet
43 84 m 1
 207 577 l 1
 217 590 l 1
 232 598 l 1
 248 600 l 1
 264 596 l 1
 277 586 l 1
 285 571 l 1
 447 84 l 1
 482 81 l 1
 496 72 l 1
 505 58 l 1
 508 42 l 1
 505 26 l 1
 496 12 l 1
 482 3 l 1
 466 0 l 1
 319 0 l 1
 303 3 l 1
 289 12 l 1
 280 26 l 1
 277 42 l 1
 280 58 l 1
 289 72 l 1
 303 81 l 1
 334 84 l 1
 313 147 l 1
 152 147 l 1
 131 84 l 1
 171 84 l 1
 187 81 l 1
 201 72 l 1
 210 58 l 1
 213 42 l 1
 210 26 l 1
 201 12 l 1
 187 3 l 1
 171 0 l 1
 24 0 l 1
 8 3 l 1
 -6 12 l 1
 -15 26 l 1
 -18 42 l 1
 -15 58 l 1
 -6 72 l 1
 8 81 l 1
 43 84 l 1
233 388 m 1
 180 231 l 1
 285 231 l 1
 233 388 l 1
EndSplineSet
EndChar

StartChar: glyph127
Encoding: 305 1041 127
Width: 540
VWidth: 0
Flags: W
HStem: 0 84<32 80 188 333> 270 84<188 333> 516 84<32 80 188 381>
VStem: 80 108<84 270 354 516> 399 109<150 204>
LayerCount: 2
Back
Fore
SplineSet
80 516 m 1
 48 516 l 1
 32 519 l 1
 18 528 l 1
 9 542 l 1
 6 558 l 1
 9 574 l 1
 18 588 l 1
 32 597 l 1
 48 600 l 1
 441 600 l 1
 457 597 l 1
 471 588 l 1
 480 574 l 1
 483 558 l 1
 483 411 l 1
 480 395 l 1
 472 382 l 1
 459 373 l 1
 444 369 l 1
 429 370 l 1
 415 377 l 1
 405 389 l 1
 400 404 l 1
 381 516 l 1
 188 516 l 1
 188 354 l 1
 356 352 l 1
 430 328 l 1
 446 317 l 1
 479 282 l 1
 503 233 l 1
 508 214 l 1
 508 140 l 1
 503 122 l 1
 479 72 l 1
 446 37 l 1
 430 27 l 1
 346 0 l 1
 48 0 l 1
 32 3 l 1
 18 12 l 1
 9 26 l 1
 6 42 l 1
 9 58 l 1
 18 72 l 1
 32 81 l 1
 48 84 l 1
 80 84 l 1
 80 516 l 1
188 84 m 1
 333 84 l 1
 367 101 l 1
 382 116 l 1
 399 150 l 1
 399 204 l 1
 382 238 l 1
 367 253 l 1
 333 270 l 1
 188 270 l 1
 188 84 l 1
EndSplineSet
EndChar

StartChar: glyph128
Encoding: 306 1042 128
Width: 540
VWidth: 0
Flags: W
HStem: 0 84<32 80 188 333> 270 84<188 333> 516 84<32 80 188 333>
VStem: 80 108<84 270 354 516> 399 109<150 204 420 450>
LayerCount: 2
Back
Fore
SplineSet
80 516 m 1
 48 516 l 1
 32 519 l 1
 18 528 l 1
 9 542 l 1
 6 558 l 1
 9 574 l 1
 18 588 l 1
 32 597 l 1
 48 600 l 1
 346 600 l 1
 430 573 l 1
 446 563 l 1
 471 539 l 1
 503 478 l 1
 508 460 l 1
 508 411 l 1
 503 392 l 1
 479 343 l 1
 451 312 l 1
 479 282 l 1
 503 233 l 1
 508 214 l 1
 508 140 l 1
 503 122 l 1
 479 72 l 1
 446 37 l 1
 430 27 l 1
 346 0 l 1
 48 0 l 1
 32 3 l 1
 18 12 l 1
 9 26 l 1
 6 42 l 1
 9 58 l 1
 18 72 l 1
 32 81 l 1
 48 84 l 1
 80 84 l 1
 80 516 l 1
188 516 m 1
 188 354 l 1
 333 354 l 1
 367 371 l 1
 382 386 l 1
 399 420 l 1
 399 450 l 1
 382 484 l 1
 367 499 l 1
 333 516 l 1
 188 516 l 1
188 84 m 1
 333 84 l 1
 367 101 l 1
 382 116 l 1
 399 150 l 1
 399 204 l 1
 382 238 l 1
 367 253 l 1
 333 270 l 1
 188 270 l 1
 188 84 l 1
EndSplineSet
EndChar

StartChar: glyph129
Encoding: 307 1043 129
Width: 443
VWidth: 0
Flags: W
HStem: 0 84<33 81 189 237> 516 84<33 81 189 357>
VStem: 81 108<84 516>
LayerCount: 2
Back
Fore
SplineSet
81 516 m 1
 49 516 l 1
 33 519 l 1
 19 528 l 1
 10 542 l 1
 7 558 l 1
 10 574 l 1
 19 588 l 1
 33 597 l 1
 49 600 l 1
 418 600 l 1
 434 597 l 1
 447 588 l 1
 456 574 l 1
 460 558 l 1
 460 411 l 1
 457 395 l 1
 448 382 l 1
 436 373 l 1
 421 369 l 1
 406 370 l 1
 392 377 l 1
 381 389 l 1
 376 404 l 1
 357 516 l 1
 189 516 l 1
 189 84 l 1
 221 84 l 1
 237 81 l 1
 251 72 l 1
 260 58 l 1
 263 42 l 1
 260 26 l 1
 251 12 l 1
 237 3 l 1
 221 0 l 1
 49 0 l 1
 33 3 l 1
 19 12 l 1
 10 26 l 1
 7 42 l 1
 10 58 l 1
 19 72 l 1
 33 81 l 1
 49 84 l 1
 81 84 l 1
 81 516 l 1
EndSplineSet
EndChar

StartChar: glyph130
Encoding: 308 1044 130
Width: 590
VWidth: 0
Flags: W
HStem: -172 21G<8 40 524 556> 0 84<178 399> 516 84<106 154 238 399 508 556>
VStem: 154 83<357.292 516> 399 109<84 516>
LayerCount: 2
Back
Fore
SplineSet
-18 42 m 1
 -15 58 l 1
 -6 72 l 1
 8 81 l 1
 24 84 l 1
 80 84 l 1
 87 91 l 1
 107 130 l 1
 130 222 l 1
 154 413 l 1
 154 516 l 1
 122 516 l 1
 106 519 l 1
 92 528 l 1
 83 542 l 1
 80 558 l 1
 83 574 l 1
 92 588 l 1
 106 597 l 1
 122 600 l 1
 540 600 l 1
 556 597 l 1
 569 588 l 1
 579 574 l 1
 582 558 l 1
 579 542 l 1
 569 528 l 1
 556 519 l 1
 540 516 l 1
 508 516 l 1
 508 84 l 1
 540 84 l 1
 556 81 l 1
 569 72 l 1
 579 58 l 1
 582 42 l 1
 582 -130 l 1
 579 -146 l 1
 569 -160 l 1
 556 -169 l 1
 540 -172 l 1
 524 -169 l 1
 510 -160 l 1
 504 -151 l 1
 498 -136 l 1
 479 0 l 1
 85 0 l 1
 63 -146 l 1
 53 -160 l 1
 40 -169 l 1
 24 -172 l 1
 8 -169 l 1
 -10 -155 l 1
 -15 -146 l 1
 -18 -130 l 1
 -18 42 l 1
238 516 m 1
 237 405 l 1
 213 209 l 1
 187 106 l 1
 178 84 l 1
 399 84 l 1
 399 516 l 1
 238 516 l 1
EndSplineSet
EndChar

StartChar: glyph131
Encoding: 309 1045 131
Width: 515
VWidth: 0
Flags: W
HStem: 0 84<32 80 188 381> 270 84<188 252> 516 84<32 80 188 381>
VStem: 80 108<84 270 354 516> 252 84<198 270 354 427>
LayerCount: 2
Back
Fore
SplineSet
80 516 m 1
 48 516 l 1
 32 519 l 1
 18 528 l 1
 9 542 l 1
 6 558 l 1
 9 574 l 1
 18 588 l 1
 32 597 l 1
 48 600 l 1
 441 600 l 1
 457 597 l 1
 471 588 l 1
 480 574 l 1
 483 558 l 1
 483 411 l 1
 480 395 l 1
 472 382 l 1
 459 373 l 1
 444 369 l 1
 429 370 l 1
 415 377 l 1
 405 389 l 1
 400 404 l 1
 381 516 l 1
 188 516 l 1
 188 354 l 1
 252 354 l 1
 252 411 l 1
 255 427 l 1
 264 440 l 1
 277 449 l 1
 294 453 l 1
 310 449 l 1
 323 440 l 1
 332 427 l 1
 336 411 l 1
 336 214 l 1
 332 198 l 1
 323 184 l 1
 310 175 l 1
 294 172 l 1
 277 175 l 1
 264 184 l 1
 255 198 l 1
 252 214 l 1
 252 270 l 1
 188 270 l 1
 188 84 l 1
 381 84 l 1
 400 196 l 1
 405 211 l 1
 415 223 l 1
 429 230 l 1
 444 231 l 1
 459 227 l 1
 472 218 l 1
 480 205 l 1
 483 189 l 1
 483 42 l 1
 480 26 l 1
 471 12 l 1
 457 3 l 1
 441 0 l 1
 48 0 l 1
 32 3 l 1
 18 12 l 1
 9 26 l 1
 6 42 l 1
 9 58 l 1
 18 72 l 1
 32 81 l 1
 48 84 l 1
 80 84 l 1
 80 516 l 1
EndSplineSet
EndChar

StartChar: glyph132
Encoding: 310 1046 132
Width: 762
VWidth: 0
Flags: W
HStem: 0 84<278 326 435 482> 270 84<287 326 435 473> 516 84<278 326 435 482>
VStem: 326 109<84 270 354 516>
LayerCount: 2
Back
Fore
SplineSet
134 461 m 1
 114 445 l 1
 98 442 l 1
 82 445 l 1
 68 455 l 1
 43 479 l 1
 34 493 l 1
 31 509 l 1
 34 550 l 1
 43 563 l 1
 68 588 l 1
 82 597 l 1
 122 600 l 1
 138 597 l 1
 152 588 l 1
 184 552 l 1
 209 503 l 1
 236 401 l 1
 252 368 l 1
 280 354 l 1
 326 354 l 1
 326 516 l 1
 294 516 l 1
 278 519 l 1
 265 528 l 1
 255 542 l 1
 252 558 l 1
 255 574 l 1
 265 588 l 1
 278 597 l 1
 294 600 l 1
 466 600 l 1
 482 597 l 1
 496 588 l 1
 505 574 l 1
 508 558 l 1
 505 542 l 1
 496 528 l 1
 482 519 l 1
 466 516 l 1
 435 516 l 1
 435 354 l 1
 481 354 l 1
 509 368 l 1
 525 401 l 1
 548 494 l 1
 584 563 l 1
 609 588 l 1
 622 597 l 1
 663 600 l 1
 679 597 l 1
 693 588 l 1
 717 563 l 1
 726 550 l 1
 729 509 l 1
 726 493 l 1
 717 479 l 1
 693 455 l 1
 679 445 l 1
 663 442 l 1
 647 445 l 1
 627 461 l 1
 605 376 l 1
 573 312 l 1
 602 257 l 1
 629 129 l 1
 651 89 l 1
 674 134 l 1
 684 147 l 1
 699 156 l 1
 715 158 l 1
 731 153 l 1
 744 143 l 1
 752 129 l 1
 754 113 l 1
 750 97 l 1
 725 48 l 1
 693 12 l 1
 679 3 l 1
 663 0 l 1
 614 0 l 1
 598 3 l 1
 584 12 l 1
 552 48 l 1
 527 97 l 1
 500 225 l 1
 481 263 l 1
 473 270 l 1
 435 270 l 1
 435 84 l 1
 466 84 l 1
 482 81 l 1
 496 72 l 1
 505 58 l 1
 508 42 l 1
 505 26 l 1
 496 12 l 1
 482 3 l 1
 466 0 l 1
 294 0 l 1
 278 3 l 1
 265 12 l 1
 255 26 l 1
 252 42 l 1
 255 58 l 1
 265 72 l 1
 278 81 l 1
 294 84 l 1
 326 84 l 1
 326 270 l 1
 287 270 l 1
 280 263 l 1
 261 225 l 1
 234 97 l 1
 201 37 l 1
 177 12 l 1
 163 3 l 1
 147 0 l 1
 98 0 l 1
 82 3 l 1
 68 12 l 1
 36 48 l 1
 11 97 l 1
 7 113 l 1
 9 129 l 1
 17 143 l 1
 30 153 l 1
 46 158 l 1
 62 156 l 1
 76 147 l 1
 86 134 l 1
 110 89 l 1
 131 129 l 1
 155 247 l 1
 187 312 l 1
 155 376 l 1
 134 461 l 1
EndSplineSet
EndChar

StartChar: glyph133
Encoding: 311 1047 133
Width: 492
VWidth: 0
Flags: W
HStem: 0 84<182 285> 295 84<205 285> 516 84<207 285>
VStem: 327 108<420 474> 351 109<150 228.368>
LayerCount: 2
Back
Fore
SplineSet
117 562 m 1xf0
 129 571 l 1
 178 596 l 1
 197 600 l 1
 298 600 l 1
 382 573 l 1
 396 565 l 1
 406 552 l 1
 431 503 l 1
 435 484 l 1
 435 411 l 1xf0
 431 392 l 1
 406 343 l 1
 390 326 l 1
 431 282 l 1
 456 233 l 1
 460 214 l 1
 460 140 l 1
 456 122 l 1
 431 72 l 1
 399 37 l 1
 382 27 l 1
 298 0 l 1
 172 0 l 1
 154 4 l 1
 104 29 l 1
 69 61 l 1
 36 122 l 1
 32 140 l 1
 35 181 l 1
 44 195 l 1
 69 219 l 1
 82 228 l 1
 99 231 l 1
 115 228 l 1
 128 219 l 1
 153 195 l 1
 162 181 l 1
 165 165 l 1
 162 149 l 1
 153 135 l 1
 133 116 l 1
 148 101 l 1
 182 84 l 1
 285 84 l 1
 319 101 l 1
 334 116 l 1
 351 150 l 1
 351 207 l 1xe8
 332 265 l 1
 319 278 l 1
 285 295 l 1
 221 295 l 1
 205 298 l 1
 192 307 l 1
 183 321 l 1
 179 337 l 1
 183 353 l 1
 192 367 l 1
 205 376 l 1
 221 379 l 1
 285 379 l 1
 313 393 l 1
 327 420 l 1
 327 474 l 1
 313 502 l 1
 285 516 l 1
 207 516 l 1
 173 499 l 1
 135 462 l 1
 114 397 l 1
 105 383 l 1
 92 373 l 1
 76 369 l 1
 59 371 l 1
 45 380 l 1
 35 394 l 1
 32 411 l 1
 32 558 l 1
 35 574 l 1
 45 588 l 1
 59 597 l 1
 76 600 l 1
 92 596 l 1
 105 586 l 1
 117 562 l 1xf0
EndSplineSet
EndChar

StartChar: glyph134
Encoding: 312 1048 134
Width: 591
VWidth: 0
Flags: W
HStem: 0 84<33 81 194 237 353 400 509 557> 516 84<33 81 190 237 353 396 509 557>
VStem: 81 109<223 516> 400 109<84 377>
LayerCount: 2
Back
Fore
SplineSet
81 516 m 1
 49 516 l 1
 33 519 l 1
 20 528 l 1
 10 542 l 1
 7 558 l 1
 10 574 l 1
 20 588 l 1
 33 597 l 1
 49 600 l 1
 221 600 l 1
 237 597 l 1
 251 588 l 1
 260 574 l 1
 263 558 l 1
 260 542 l 1
 251 528 l 1
 237 519 l 1
 221 516 l 1
 190 516 l 1
 190 223 l 1
 396 516 l 1
 369 516 l 1
 353 519 l 1
 339 528 l 1
 330 542 l 1
 327 558 l 1
 330 574 l 1
 339 588 l 1
 353 597 l 1
 369 600 l 1
 541 600 l 1
 557 597 l 1
 570 588 l 1
 580 574 l 1
 583 558 l 1
 580 542 l 1
 570 528 l 1
 557 519 l 1
 541 516 l 1
 509 516 l 1
 509 84 l 1
 541 84 l 1
 557 81 l 1
 570 72 l 1
 580 58 l 1
 583 42 l 1
 580 26 l 1
 570 12 l 1
 557 3 l 1
 541 0 l 1
 369 0 l 1
 353 3 l 1
 339 12 l 1
 330 26 l 1
 327 42 l 1
 330 58 l 1
 339 72 l 1
 353 81 l 1
 369 84 l 1
 400 84 l 1
 400 377 l 1
 194 84 l 1
 221 84 l 1
 237 81 l 1
 251 72 l 1
 260 58 l 1
 263 42 l 1
 260 26 l 1
 251 12 l 1
 237 3 l 1
 221 0 l 1
 49 0 l 1
 33 3 l 1
 20 12 l 1
 10 26 l 1
 7 42 l 1
 10 58 l 1
 20 72 l 1
 33 81 l 1
 49 84 l 1
 81 84 l 1
 81 516 l 1
EndSplineSet
EndChar

StartChar: glyph135
Encoding: 313 1049 135
Width: 591
VWidth: 0
Flags: W
HStem: 0 84<33 81 194 237 353 400 509 557> 516 84<33 81 190 215 375 396 509 557> 590 84<256 334>
VStem: 81 109<223 516> 400 109<84 377>
LayerCount: 2
Back
Fore
SplineSet
81 516 m 1xd8
 49 516 l 1
 33 519 l 1
 20 528 l 1
 10 542 l 1
 7 558 l 1
 10 574 l 1
 20 588 l 1
 33 597 l 1
 49 600 l 1
 215 600 l 1xd8
 167 627 l 1
 135 687 l 1
 130 705 l 1
 133 746 l 1
 142 760 l 1
 156 769 l 1
 197 772 l 1
 213 769 l 1
 226 760 l 1
 236 746 l 1
 239 730 l 1
 239 705 l 1
 233 685 l 1
 256 674 l 1
 334 674 l 1xb8
 362 688 l 1
 380 724 l 1
 390 737 l 1
 405 745 l 1
 421 747 l 1
 437 743 l 1
 450 733 l 1
 458 719 l 1
 460 702 l 1
 455 687 l 1
 431 638 l 1
 423 627 l 1
 412 619 l 1
 375 600 l 1
 541 600 l 1
 557 597 l 1
 570 588 l 1
 580 574 l 1
 583 558 l 1
 580 542 l 1
 570 528 l 1
 557 519 l 1
 541 516 l 1
 509 516 l 1
 509 84 l 1
 541 84 l 1
 557 81 l 1
 570 72 l 1
 580 58 l 1
 583 42 l 1
 580 26 l 1
 570 12 l 1
 557 3 l 1
 541 0 l 1
 369 0 l 1
 353 3 l 1
 339 12 l 1
 330 26 l 1
 327 42 l 1
 330 58 l 1
 339 72 l 1
 353 81 l 1
 369 84 l 1
 400 84 l 1
 400 377 l 1
 194 84 l 1
 221 84 l 1
 237 81 l 1
 251 72 l 1
 260 58 l 1
 263 42 l 1
 260 26 l 1
 251 12 l 1
 237 3 l 1
 221 0 l 1
 49 0 l 1
 33 3 l 1
 20 12 l 1
 10 26 l 1
 7 42 l 1
 10 58 l 1
 20 72 l 1
 33 81 l 1
 49 84 l 1
 81 84 l 1
 81 516 l 1xd8
190 516 m 1
 190 223 l 1
 396 516 l 1
 369 516 l 1xd8
 353 519 l 1
 339 528 l 1
 330 542 l 1
 327 558 l 1
 330 574 l 1
 342 590 l 1
 248 590 l 1xb8
 260 574 l 1
 263 558 l 1
 260 542 l 1
 251 528 l 1
 237 519 l 1
 221 516 l 1
 190 516 l 1
EndSplineSet
EndChar

StartChar: glyph136
Encoding: 314 1050 136
Width: 591
VWidth: 0
Flags: W
HStem: 0 84<33 81 190 237> 270 84<190 302> 516 84<33 81 190 237>
VStem: 81 109<84 270 354 516>
LayerCount: 2
Back
Fore
SplineSet
81 516 m 1
 49 516 l 1
 33 519 l 1
 20 528 l 1
 10 542 l 1
 7 558 l 1
 10 574 l 1
 20 588 l 1
 33 597 l 1
 49 600 l 1
 221 600 l 1
 237 597 l 1
 251 588 l 1
 260 574 l 1
 263 558 l 1
 260 542 l 1
 251 528 l 1
 237 519 l 1
 221 516 l 1
 190 516 l 1
 190 354 l 1
 310 354 l 1
 337 368 l 1
 354 401 l 1
 380 503 l 1
 405 552 l 1
 437 588 l 1
 451 597 l 1
 467 600 l 1
 508 597 l 1
 521 588 l 1
 546 563 l 1
 555 550 l 1
 558 533 l 1
 555 493 l 1
 546 479 l 1
 521 455 l 1
 508 445 l 1
 492 442 l 1
 475 445 l 1
 455 461 l 1
 434 376 l 1
 402 312 l 1
 434 247 l 1
 458 129 l 1
 477 91 l 1
 479 89 l 1
 482 91 l 1
 503 134 l 1
 513 147 l 1
 527 156 l 1
 544 158 l 1
 559 153 l 1
 572 143 l 1
 581 129 l 1
 583 113 l 1
 578 97 l 1
 554 48 l 1
 521 12 l 1
 508 3 l 1
 492 0 l 1
 442 0 l 1
 426 3 l 1
 413 12 l 1
 388 37 l 1
 356 97 l 1
 329 225 l 1
 310 263 l 1
 302 270 l 1
 190 270 l 1
 190 84 l 1
 221 84 l 1
 237 81 l 1
 251 72 l 1
 260 58 l 1
 263 42 l 1
 260 26 l 1
 251 12 l 1
 237 3 l 1
 221 0 l 1
 49 0 l 1
 33 3 l 1
 20 12 l 1
 10 26 l 1
 7 42 l 1
 10 58 l 1
 20 72 l 1
 33 81 l 1
 49 84 l 1
 81 84 l 1
 81 516 l 1
EndSplineSet
EndChar

StartChar: glyph137
Encoding: 315 1051 137
Width: 614
VWidth: 0
Flags: W
HStem: 0 84<376 423 532 580> 516 84<105 153 237 423 532 580>
VStem: 153 84<357.292 516> 423 109<84 516>
LayerCount: 2
Back
Fore
SplineSet
109 139 m 1
 129 222 l 1
 153 413 l 1
 153 516 l 1
 121 516 l 1
 105 519 l 1
 92 528 l 1
 83 542 l 1
 79 558 l 1
 83 574 l 1
 92 588 l 1
 105 597 l 1
 121 600 l 1
 564 600 l 1
 580 597 l 1
 593 588 l 1
 603 574 l 1
 606 558 l 1
 603 542 l 1
 593 528 l 1
 580 519 l 1
 564 516 l 1
 532 516 l 1
 532 84 l 1
 564 84 l 1
 580 81 l 1
 593 72 l 1
 603 58 l 1
 606 42 l 1
 603 26 l 1
 593 12 l 1
 580 3 l 1
 564 0 l 1
 392 0 l 1
 376 3 l 1
 362 12 l 1
 353 26 l 1
 350 42 l 1
 353 58 l 1
 362 72 l 1
 376 81 l 1
 392 84 l 1
 423 84 l 1
 423 516 l 1
 237 516 l 1
 237 405 l 1
 212 209 l 1
 187 106 l 1
 159 48 l 1
 127 12 l 1
 113 3 l 1
 97 0 l 1
 56 3 l 1
 43 12 l 1
 18 37 l 1
 9 50 l 1
 6 67 l 1
 9 107 l 1
 18 121 l 1
 43 145 l 1
 56 155 l 1
 72 158 l 1
 88 155 l 1
 109 139 l 1
EndSplineSet
EndChar

StartChar: glyph138
Encoding: 316 1052 138
Width: 614
VWidth: 0
Flags: W
HStem: 0 84<33 81 165 213 377 425 534 581> 516 84<33 81 534 581>
VStem: 81 84<84 299> 425 109<84 299>
LayerCount: 2
Back
Fore
SplineSet
81 516 m 1
 49 516 l 1
 33 519 l 1
 20 528 l 1
 10 542 l 1
 7 558 l 1
 10 574 l 1
 20 588 l 1
 33 597 l 1
 49 600 l 1
 148 600 l 1
 166 596 l 1
 179 586 l 1
 187 571 l 1
 307 212 l 1
 427 571 l 1
 435 586 l 1
 451 597 l 1
 467 600 l 1
 565 600 l 1
 581 597 l 1
 595 588 l 1
 604 574 l 1
 607 558 l 1
 604 542 l 1
 595 528 l 1
 581 519 l 1
 565 516 l 1
 534 516 l 1
 534 84 l 1
 565 84 l 1
 581 81 l 1
 595 72 l 1
 604 58 l 1
 607 42 l 1
 604 26 l 1
 595 12 l 1
 581 3 l 1
 565 0 l 1
 393 0 l 1
 377 3 l 1
 364 12 l 1
 354 26 l 1
 351 42 l 1
 354 58 l 1
 364 72 l 1
 377 81 l 1
 393 84 l 1
 425 84 l 1
 425 299 l 1
 333 23 l 1
 323 10 l 1
 308 2 l 1
 292 0 l 1
 276 4 l 1
 263 14 l 1
 255 29 l 1
 165 299 l 1
 165 84 l 1
 197 84 l 1
 213 81 l 1
 226 72 l 1
 236 58 l 1
 239 42 l 1
 236 26 l 1
 226 12 l 1
 213 3 l 1
 197 0 l 1
 49 0 l 1
 33 3 l 1
 20 12 l 1
 10 26 l 1
 7 42 l 1
 10 58 l 1
 20 72 l 1
 33 81 l 1
 49 84 l 1
 81 84 l 1
 81 516 l 1
EndSplineSet
EndChar

StartChar: glyph139
Encoding: 317 1053 139
Width: 591
VWidth: 0
Flags: W
HStem: 0 84<33 81 190 237 353 400 509 557> 270 84<190 400> 516 84<33 81 190 237 353 400 509 557>
VStem: 81 109<84 270 354 516> 400 109<84 270 354 516>
LayerCount: 2
Back
Fore
SplineSet
81 516 m 1
 49 516 l 1
 33 519 l 1
 20 528 l 1
 10 542 l 1
 7 558 l 1
 10 574 l 1
 20 588 l 1
 33 597 l 1
 49 600 l 1
 221 600 l 1
 237 597 l 1
 251 588 l 1
 260 574 l 1
 263 558 l 1
 260 542 l 1
 251 528 l 1
 237 519 l 1
 221 516 l 1
 190 516 l 1
 190 354 l 1
 400 354 l 1
 400 516 l 1
 369 516 l 1
 353 519 l 1
 339 528 l 1
 330 542 l 1
 327 558 l 1
 330 574 l 1
 339 588 l 1
 353 597 l 1
 369 600 l 1
 541 600 l 1
 557 597 l 1
 570 588 l 1
 580 574 l 1
 583 558 l 1
 580 542 l 1
 570 528 l 1
 557 519 l 1
 541 516 l 1
 509 516 l 1
 509 84 l 1
 541 84 l 1
 557 81 l 1
 570 72 l 1
 580 58 l 1
 583 42 l 1
 580 26 l 1
 570 12 l 1
 557 3 l 1
 541 0 l 1
 369 0 l 1
 353 3 l 1
 339 12 l 1
 330 26 l 1
 327 42 l 1
 330 58 l 1
 339 72 l 1
 353 81 l 1
 369 84 l 1
 400 84 l 1
 400 270 l 1
 190 270 l 1
 190 84 l 1
 221 84 l 1
 237 81 l 1
 251 72 l 1
 260 58 l 1
 263 42 l 1
 260 26 l 1
 251 12 l 1
 237 3 l 1
 221 0 l 1
 49 0 l 1
 33 3 l 1
 20 12 l 1
 10 26 l 1
 7 42 l 1
 10 58 l 1
 20 72 l 1
 33 81 l 1
 49 84 l 1
 81 84 l 1
 81 516 l 1
EndSplineSet
EndChar

StartChar: glyph140
Encoding: 318 1054 140
Width: 540
VWidth: 0
Flags: W
HStem: 0 84<254 284> 516 84<254 284>
VStem: 32 107<240 360> 399 109<240 360>
LayerCount: 2
Back
Fore
SplineSet
157 573 m 1
 241 600 l 1
 294 600 l 1
 381 573 l 1
 397 563 l 1
 446 514 l 1
 482 445 l 1
 506 347 l 1
 508 263 l 1
 479 146 l 1
 446 86 l 1
 397 37 l 1
 381 27 l 1
 307 2 l 1
 241 0 l 1
 157 27 l 1
 141 37 l 1
 92 86 l 1
 56 155 l 1
 32 253 l 1
 32 347 l 1
 56 445 l 1
 84 503 l 1
 141 563 l 1
 157 573 l 1
284 84 m 1
 318 101 l 1
 357 141 l 1
 377 180 l 1
 399 268 l 1
 399 332 l 1
 377 420 l 1
 357 459 l 1
 318 499 l 1
 284 516 l 1
 254 516 l 1
 220 499 l 1
 181 459 l 1
 161 420 l 1
 139 332 l 1
 139 268 l 1
 161 180 l 1
 181 141 l 1
 220 101 l 1
 254 84 l 1
 284 84 l 1
EndSplineSet
EndChar

StartChar: glyph141
Encoding: 319 1055 141
Width: 591
VWidth: 0
Flags: W
HStem: 0 84<33 81 190 237 353 400 509 557> 516 84<33 81 190 400 509 557>
VStem: 81 109<84 516> 400 109<84 516>
LayerCount: 2
Back
Fore
SplineSet
81 516 m 1
 49 516 l 1
 33 519 l 1
 20 528 l 1
 10 542 l 1
 7 558 l 1
 10 574 l 1
 20 588 l 1
 33 597 l 1
 49 600 l 1
 541 600 l 1
 557 597 l 1
 570 588 l 1
 580 574 l 1
 583 558 l 1
 580 542 l 1
 570 528 l 1
 557 519 l 1
 541 516 l 1
 509 516 l 1
 509 84 l 1
 541 84 l 1
 557 81 l 1
 570 72 l 1
 580 58 l 1
 583 42 l 1
 580 26 l 1
 570 12 l 1
 557 3 l 1
 541 0 l 1
 369 0 l 1
 353 3 l 1
 339 12 l 1
 330 26 l 1
 327 42 l 1
 330 58 l 1
 339 72 l 1
 353 81 l 1
 369 84 l 1
 400 84 l 1
 400 516 l 1
 190 516 l 1
 190 84 l 1
 221 84 l 1
 237 81 l 1
 251 72 l 1
 260 58 l 1
 263 42 l 1
 260 26 l 1
 251 12 l 1
 237 3 l 1
 221 0 l 1
 49 0 l 1
 33 3 l 1
 20 12 l 1
 10 26 l 1
 7 42 l 1
 10 58 l 1
 20 72 l 1
 33 81 l 1
 49 84 l 1
 81 84 l 1
 81 516 l 1
EndSplineSet
EndChar

StartChar: glyph142
Encoding: 320 1056 142
Width: 540
VWidth: 0
Flags: W
HStem: 0 84<32 80 188 236> 246 84<188 333> 516 84<32 80 188 333>
VStem: 80 108<84 246 330 516> 399 109<396 450>
LayerCount: 2
Back
Fore
SplineSet
80 516 m 1
 48 516 l 1
 32 519 l 1
 18 528 l 1
 9 542 l 1
 6 558 l 1
 9 574 l 1
 18 588 l 1
 32 597 l 1
 48 600 l 1
 346 600 l 1
 430 573 l 1
 446 563 l 1
 479 528 l 1
 503 478 l 1
 508 460 l 1
 508 386 l 1
 503 367 l 1
 479 318 l 1
 446 283 l 1
 430 272 l 1
 346 246 l 1
 188 246 l 1
 188 84 l 1
 220 84 l 1
 236 81 l 1
 250 72 l 1
 259 58 l 1
 262 42 l 1
 259 26 l 1
 250 12 l 1
 236 3 l 1
 220 0 l 1
 48 0 l 1
 32 3 l 1
 18 12 l 1
 9 26 l 1
 6 42 l 1
 9 58 l 1
 18 72 l 1
 32 81 l 1
 48 84 l 1
 80 84 l 1
 80 516 l 1
188 516 m 1
 188 330 l 1
 333 330 l 1
 367 347 l 1
 382 362 l 1
 399 396 l 1
 399 450 l 1
 382 484 l 1
 367 499 l 1
 333 516 l 1
 188 516 l 1
EndSplineSet
EndChar

StartChar: glyph143
Encoding: 321 1057 143
Width: 516
VWidth: 0
Flags: W
HStem: 2 82<255 309.368> 516 83<255 308>
VStem: 31 109<223.667 376.333>
LayerCount: 2
Back
Fore
SplineSet
239 599 m 1
 308 598 l 1
 382 573 l 1
 399 562 l 1
 411 586 l 1
 424 596 l 1
 440 600 l 1
 457 597 l 1
 471 588 l 1
 481 574 l 1
 484 558 l 1
 484 411 l 1
 481 394 l 1
 471 380 l 1
 457 371 l 1
 440 369 l 1
 424 373 l 1
 411 383 l 1
 402 397 l 1
 381 462 l 1
 346 497 l 1
 288 516 l 1
 255 516 l 1
 221 499 l 1
 182 459 l 1
 161 419 l 1
 140 355 l 1
 140 245 l 1
 161 181 l 1
 182 141 l 1
 221 101 l 1
 255 84 l 1
 288 84 l 1
 346 103 l 1
 383 141 l 1
 404 184 l 1
 414 197 l 1
 429 205 l 1
 445 207 l 1
 461 202 l 1
 474 192 l 1
 482 178 l 1
 484 162 l 1
 480 146 l 1
 455 97 l 1
 398 37 l 1
 382 27 l 1
 295 0 l 1
 232 2 l 1
 158 27 l 1
 142 37 l 1
 85 97 l 1
 58 152 l 1
 31 239 l 1
 34 375 l 1
 58 448 l 1
 85 503 l 1
 142 563 l 1
 158 573 l 1
 239 599 l 1
EndSplineSet
EndChar

StartChar: glyph144
Encoding: 322 1058 144
Width: 468
VWidth: 0
Flags: W
HStem: 0 84<131 179 288 335> 516 84<109 179 288 357>
VStem: 179 109<84 516>
LayerCount: 2
Back
Fore
SplineSet
109 516 m 1
 90 404 l 1
 85 389 l 1
 75 377 l 1
 61 370 l 1
 46 369 l 1
 31 373 l 1
 18 382 l 1
 10 395 l 1
 7 411 l 1
 7 558 l 1
 10 574 l 1
 19 588 l 1
 33 597 l 1
 49 600 l 1
 418 600 l 1
 434 597 l 1
 447 588 l 1
 456 574 l 1
 460 558 l 1
 460 411 l 1
 457 395 l 1
 448 382 l 1
 436 373 l 1
 421 369 l 1
 406 370 l 1
 392 377 l 1
 381 389 l 1
 376 404 l 1
 357 516 l 1
 288 516 l 1
 288 84 l 1
 319 84 l 1
 335 81 l 1
 349 72 l 1
 358 58 l 1
 361 42 l 1
 358 26 l 1
 349 12 l 1
 335 3 l 1
 319 0 l 1
 147 0 l 1
 131 3 l 1
 118 12 l 1
 108 26 l 1
 105 42 l 1
 108 58 l 1
 118 72 l 1
 131 81 l 1
 147 84 l 1
 179 84 l 1
 179 516 l 1
 109 516 l 1
EndSplineSet
EndChar

StartChar: glyph145
Encoding: 323 1059 145
Width: 516
VWidth: 0
Flags: W
HStem: 0 21G<106 165> 516 84<327 377>
LayerCount: 2
Back
Fore
SplineSet
46 516 m 1
 8 519 l 1
 -6 528 l 1
 -15 542 l 1
 -18 558 l 1
 -15 574 l 1
 -6 588 l 1
 8 597 l 1
 24 600 l 1
 171 600 l 1
 187 597 l 1
 201 588 l 1
 210 574 l 1
 213 558 l 1
 210 542 l 1
 201 528 l 1
 187 519 l 1
 162 516 l 1
 270 270 l 1
 377 516 l 1
 343 516 l 1
 327 519 l 1
 314 528 l 1
 304 542 l 1
 301 558 l 1
 304 574 l 1
 314 588 l 1
 327 597 l 1
 343 600 l 1
 491 600 l 1
 507 597 l 1
 520 588 l 1
 530 574 l 1
 533 558 l 1
 530 542 l 1
 520 528 l 1
 507 519 l 1
 469 516 l 1
 308 148 l 1
 255 68 l 1
 215 29 l 1
 165 4 l 1
 147 0 l 1
 106 3 l 1
 92 12 l 1
 68 37 l 1
 59 50 l 1
 56 67 l 1
 59 107 l 1
 68 121 l 1
 92 145 l 1
 106 155 l 1
 122 158 l 1
 138 155 l 1
 152 145 l 1
 182 112 l 1
 207 147 l 1
 46 516 l 1
EndSplineSet
EndChar

StartChar: glyph146
Encoding: 324 1060 146
Width: 614
VWidth: 0
Flags: W
HStem: 0 21G<204 408> 580 20G<204 408>
VStem: 31 108<270 330> 252 109<158 442> 473 109<248.632 350>
LayerCount: 2
Back
Fore
SplineSet
136 500 m 1
 208 518 l 1
 191 528 l 1
 181 542 l 1
 178 558 l 1
 181 574 l 1
 191 588 l 1
 204 597 l 1
 220 600 l 1
 392 600 l 1
 408 597 l 1
 422 588 l 1
 431 574 l 1
 434 558 l 1
 431 542 l 1
 422 528 l 1
 404 518 l 1
 476 500 l 1
 496 489 l 1
 545 440 l 1
 555 424 l 1
 580 350 l 1
 582 263 l 1
 555 176 l 1
 545 160 l 1
 496 111 l 1
 476 100 l 1
 404 82 l 1
 422 72 l 1
 431 58 l 1
 434 42 l 1
 431 26 l 1
 422 12 l 1
 408 3 l 1
 392 0 l 1
 220 0 l 1
 204 3 l 1
 191 12 l 1
 181 26 l 1
 178 42 l 1
 181 58 l 1
 191 72 l 1
 208 82 l 1
 136 100 l 1
 117 111 l 1
 68 160 l 1
 58 176 l 1
 31 263 l 1
 33 350 l 1
 58 424 l 1
 68 440 l 1
 117 489 l 1
 136 500 l 1
252 158 m 1
 252 442 l 1
 194 423 l 1
 159 388 l 1
 139 330 l 1
 139 270 l 1
 159 212 l 1
 194 177 l 1
 252 158 l 1
361 158 m 1
 419 177 l 1
 454 212 l 1
 473 270 l 1
 473 330 l 1
 454 388 l 1
 419 423 l 1
 361 442 l 1
 361 158 l 1
EndSplineSet
EndChar

StartChar: glyph147
Encoding: 325 1061 147
Width: 491
VWidth: 0
Flags: W
HStem: 0 21G<8 187 303 482> 580 20G<8 187 303 482>
LayerCount: 2
Back
Fore
SplineSet
51 84 m 1
 189 291 l 1
 50 516 l 1
 8 519 l 1
 -6 528 l 1
 -15 542 l 1
 -18 558 l 1
 -15 574 l 1
 -6 588 l 1
 8 597 l 1
 24 600 l 1
 171 600 l 1
 187 597 l 1
 201 588 l 1
 210 574 l 1
 213 558 l 1
 210 542 l 1
 201 528 l 1
 187 519 l 1
 173 516 l 1
 253 387 l 1
 339 516 l 1
 303 519 l 1
 289 528 l 1
 280 542 l 1
 277 558 l 1
 280 574 l 1
 289 588 l 1
 303 597 l 1
 319 600 l 1
 466 600 l 1
 482 597 l 1
 496 588 l 1
 505 574 l 1
 508 558 l 1
 505 542 l 1
 496 528 l 1
 482 519 l 1
 439 516 l 1
 301 309 l 1
 440 84 l 1
 482 81 l 1
 496 72 l 1
 505 58 l 1
 508 42 l 1
 505 26 l 1
 496 12 l 1
 482 3 l 1
 466 0 l 1
 319 0 l 1
 303 3 l 1
 289 12 l 1
 280 26 l 1
 277 42 l 1
 280 58 l 1
 289 72 l 1
 303 81 l 1
 317 84 l 1
 237 213 l 1
 151 84 l 1
 187 81 l 1
 201 72 l 1
 210 58 l 1
 213 42 l 1
 210 26 l 1
 201 12 l 1
 187 3 l 1
 171 0 l 1
 24 0 l 1
 8 3 l 1
 -6 12 l 1
 -15 26 l 1
 -18 42 l 1
 -15 58 l 1
 -6 72 l 1
 8 81 l 1
 51 84 l 1
EndSplineSet
EndChar

StartChar: glyph148
Encoding: 326 1062 148
Width: 591
VWidth: 0
Flags: W
HStem: -172 21G<525 562> 0 84<33 81 190 400> 516 84<33 81 190 237 353 400 509 557>
VStem: 81 109<84 516> 400 109<84 516>
LayerCount: 2
Back
Fore
SplineSet
81 516 m 1
 49 516 l 1
 33 519 l 1
 20 528 l 1
 10 542 l 1
 7 558 l 1
 10 574 l 1
 20 588 l 1
 33 597 l 1
 49 600 l 1
 221 600 l 1
 237 597 l 1
 251 588 l 1
 260 574 l 1
 263 558 l 1
 260 542 l 1
 251 528 l 1
 237 519 l 1
 221 516 l 1
 190 516 l 1
 190 84 l 1
 400 84 l 1
 400 516 l 1
 369 516 l 1
 353 519 l 1
 339 528 l 1
 330 542 l 1
 327 558 l 1
 330 574 l 1
 339 588 l 1
 353 597 l 1
 369 600 l 1
 541 600 l 1
 557 597 l 1
 570 588 l 1
 580 574 l 1
 583 558 l 1
 580 542 l 1
 570 528 l 1
 557 519 l 1
 541 516 l 1
 509 516 l 1
 509 84 l 1
 541 84 l 1
 557 81 l 1
 570 72 l 1
 579 58 l 1
 583 42 l 1
 583 -130 l 1
 581 -140 l 1
 574 -155 l 1
 562 -166 l 1
 547 -172 l 1
 525 -169 l 1
 511 -160 l 1
 502 -146 l 1
 480 0 l 1
 49 0 l 1
 33 3 l 1
 20 12 l 1
 10 26 l 1
 7 42 l 1
 10 58 l 1
 20 72 l 1
 33 81 l 1
 49 84 l 1
 81 84 l 1
 81 516 l 1
EndSplineSet
EndChar

StartChar: glyph149
Encoding: 327 1063 149
Width: 565
VWidth: 0
Flags: W
HStem: 0 84<328 376 484 532> 172 84<231 309.368> 516 84<33 81 190 237 328 376 484 532>
VStem: 81 109<298 516> 376 108<84 197 305 516>
LayerCount: 2
Back
Fore
SplineSet
81 516 m 1
 49 516 l 1
 33 519 l 1
 20 528 l 1
 10 542 l 1
 7 558 l 1
 10 574 l 1
 20 588 l 1
 33 597 l 1
 49 600 l 1
 221 600 l 1
 237 597 l 1
 251 588 l 1
 260 574 l 1
 263 558 l 1
 260 542 l 1
 251 528 l 1
 237 519 l 1
 221 516 l 1
 190 516 l 1
 190 298 l 1
 203 270 l 1
 231 256 l 1
 288 256 l 1
 346 275 l 1
 376 305 l 1
 376 516 l 1
 344 516 l 1
 328 519 l 1
 314 528 l 1
 305 542 l 1
 302 558 l 1
 305 574 l 1
 314 588 l 1
 328 597 l 1
 344 600 l 1
 516 600 l 1
 532 597 l 1
 546 588 l 1
 555 574 l 1
 558 558 l 1
 555 542 l 1
 546 528 l 1
 532 519 l 1
 516 516 l 1
 484 516 l 1
 484 84 l 1
 516 84 l 1
 532 81 l 1
 546 72 l 1
 555 58 l 1
 558 42 l 1
 555 26 l 1
 546 12 l 1
 532 3 l 1
 516 0 l 1
 344 0 l 1
 328 3 l 1
 314 12 l 1
 305 26 l 1
 302 42 l 1
 305 58 l 1
 314 72 l 1
 328 81 l 1
 344 84 l 1
 376 84 l 1
 376 197 l 1
 295 172 l 1
 218 172 l 1
 134 199 l 1
 120 207 l 1
 110 220 l 1
 85 269 l 1
 81 288 l 1
 81 516 l 1
EndSplineSet
EndChar

StartChar: glyph150
Encoding: 328 1064 150
Width: 812
VWidth: 0
Flags: W
HStem: 0 84<33 81 189 351 460 621 730 778> 516 84<33 81 189 237 303 351 460 507 573 621 730 778>
VStem: 81 108<84 516> 351 109<84 516> 621 109<84 516>
LayerCount: 2
Back
Fore
SplineSet
81 516 m 1
 49 516 l 1
 33 519 l 1
 19 528 l 1
 10 542 l 1
 7 558 l 1
 10 574 l 1
 19 588 l 1
 33 597 l 1
 49 600 l 1
 221 600 l 1
 237 597 l 1
 251 588 l 1
 260 574 l 1
 263 558 l 1
 260 542 l 1
 251 528 l 1
 237 519 l 1
 221 516 l 1
 189 516 l 1
 189 84 l 1
 351 84 l 1
 351 516 l 1
 319 516 l 1
 303 519 l 1
 290 528 l 1
 280 542 l 1
 277 558 l 1
 280 574 l 1
 290 588 l 1
 303 597 l 1
 319 600 l 1
 491 600 l 1
 507 597 l 1
 521 588 l 1
 530 574 l 1
 533 558 l 1
 530 542 l 1
 521 528 l 1
 507 519 l 1
 491 516 l 1
 460 516 l 1
 460 84 l 1
 621 84 l 1
 621 516 l 1
 590 516 l 1
 573 519 l 1
 560 528 l 1
 551 542 l 1
 548 558 l 1
 551 574 l 1
 560 588 l 1
 573 597 l 1
 590 600 l 1
 762 600 l 1
 778 597 l 1
 791 588 l 1
 800 574 l 1
 804 558 l 1
 800 542 l 1
 791 528 l 1
 778 519 l 1
 762 516 l 1
 730 516 l 1
 730 84 l 1
 762 84 l 1
 778 81 l 1
 791 72 l 1
 800 58 l 1
 804 42 l 1
 800 26 l 1
 791 12 l 1
 778 3 l 1
 762 0 l 1
 49 0 l 1
 33 3 l 1
 19 12 l 1
 10 26 l 1
 7 42 l 1
 10 58 l 1
 19 72 l 1
 33 81 l 1
 49 84 l 1
 81 84 l 1
 81 516 l 1
EndSplineSet
EndChar

StartChar: glyph151
Encoding: 329 1065 151
Width: 812
VWidth: 0
Flags: W
HStem: -172 21G<745 778> 0 84<33 81 189 351 460 621> 516 84<33 81 189 237 303 351 460 507 573 621 730 778>
VStem: 81 108<84 516> 351 109<84 516> 621 109<84 516>
LayerCount: 2
Back
Fore
SplineSet
81 516 m 1
 49 516 l 1
 33 519 l 1
 19 528 l 1
 10 542 l 1
 7 558 l 1
 10 574 l 1
 19 588 l 1
 33 597 l 1
 49 600 l 1
 221 600 l 1
 237 597 l 1
 251 588 l 1
 260 574 l 1
 263 558 l 1
 260 542 l 1
 251 528 l 1
 237 519 l 1
 221 516 l 1
 189 516 l 1
 189 84 l 1
 351 84 l 1
 351 516 l 1
 319 516 l 1
 303 519 l 1
 290 528 l 1
 280 542 l 1
 277 558 l 1
 280 574 l 1
 290 588 l 1
 303 597 l 1
 319 600 l 1
 491 600 l 1
 507 597 l 1
 521 588 l 1
 530 574 l 1
 533 558 l 1
 530 542 l 1
 521 528 l 1
 507 519 l 1
 491 516 l 1
 460 516 l 1
 460 84 l 1
 621 84 l 1
 621 516 l 1
 590 516 l 1
 573 519 l 1
 560 528 l 1
 551 542 l 1
 548 558 l 1
 551 574 l 1
 560 588 l 1
 573 597 l 1
 590 600 l 1
 762 600 l 1
 778 597 l 1
 791 588 l 1
 800 574 l 1
 804 558 l 1
 800 542 l 1
 791 528 l 1
 778 519 l 1
 762 516 l 1
 730 516 l 1
 730 84 l 1
 762 84 l 1
 778 81 l 1
 791 72 l 1
 800 58 l 1
 804 42 l 1
 804 -130 l 1
 800 -146 l 1
 791 -160 l 1
 778 -169 l 1
 762 -172 l 1
 745 -169 l 1
 732 -160 l 1
 725 -151 l 1
 720 -136 l 1
 701 0 l 1
 49 0 l 1
 33 3 l 1
 19 12 l 1
 10 26 l 1
 7 42 l 1
 10 58 l 1
 19 72 l 1
 33 81 l 1
 49 84 l 1
 81 84 l 1
 81 516 l 1
EndSplineSet
EndChar

StartChar: glyph152
Encoding: 330 1066 152
Width: 639
VWidth: 0
Flags: W
HStem: 0 84<156 204 312 433> 270 84<312 433> 516 84<109 204 312 360>
VStem: 204 108<84 270 354 516> 499 108<150 204>
LayerCount: 2
Back
Fore
SplineSet
109 516 m 1
 91 404 l 1
 85 389 l 1
 75 377 l 1
 61 370 l 1
 46 369 l 1
 31 373 l 1
 18 382 l 1
 10 395 l 1
 7 411 l 1
 7 558 l 1
 10 574 l 1
 20 588 l 1
 33 597 l 1
 49 600 l 1
 344 600 l 1
 360 597 l 1
 374 588 l 1
 383 574 l 1
 386 558 l 1
 383 542 l 1
 374 528 l 1
 360 519 l 1
 344 516 l 1
 312 516 l 1
 312 354 l 1
 456 352 l 1
 529 328 l 1
 546 317 l 1
 570 293 l 1
 603 233 l 1
 607 214 l 1
 607 140 l 1
 603 122 l 1
 578 72 l 1
 546 37 l 1
 529 27 l 1
 445 0 l 1
 172 0 l 1
 156 3 l 1
 142 12 l 1
 133 26 l 1
 130 42 l 1
 133 58 l 1
 142 72 l 1
 156 81 l 1
 172 84 l 1
 204 84 l 1
 204 516 l 1
 109 516 l 1
312 270 m 1
 312 84 l 1
 433 84 l 1
 467 101 l 1
 482 116 l 1
 499 150 l 1
 499 204 l 1
 482 238 l 1
 467 253 l 1
 433 270 l 1
 312 270 l 1
EndSplineSet
EndChar

StartChar: glyph153
Encoding: 331 1067 153
Width: 737
VWidth: 0
Flags: W
HStem: 0 84<32 80 189 309 499 547 656 704> 270 84<189 309> 516 84<32 80 189 237 499 547 656 704>
VStem: 80 109<84 270 354 516> 375 109<150 204> 547 109<84 516>
LayerCount: 2
Back
Fore
SplineSet
547 516 m 1
 515 516 l 1
 499 519 l 1
 486 528 l 1
 477 542 l 1
 473 558 l 1
 477 574 l 1
 486 588 l 1
 499 597 l 1
 515 600 l 1
 687 600 l 1
 704 597 l 1
 717 588 l 1
 726 574 l 1
 729 558 l 1
 726 542 l 1
 717 528 l 1
 704 519 l 1
 687 516 l 1
 656 516 l 1
 656 84 l 1
 687 84 l 1
 704 81 l 1
 717 72 l 1
 726 58 l 1
 729 42 l 1
 726 26 l 1
 717 12 l 1
 704 3 l 1
 687 0 l 1
 515 0 l 1
 499 3 l 1
 486 12 l 1
 477 26 l 1
 473 42 l 1
 477 58 l 1
 486 72 l 1
 499 81 l 1
 515 84 l 1
 547 84 l 1
 547 516 l 1
80 516 m 1
 49 516 l 1
 32 519 l 1
 19 528 l 1
 10 542 l 1
 7 558 l 1
 10 574 l 1
 19 588 l 1
 32 597 l 1
 49 600 l 1
 221 600 l 1
 237 597 l 1
 250 588 l 1
 259 574 l 1
 263 558 l 1
 259 542 l 1
 250 528 l 1
 237 519 l 1
 221 516 l 1
 189 516 l 1
 189 354 l 1
 332 352 l 1
 406 328 l 1
 422 317 l 1
 447 293 l 1
 479 233 l 1
 484 214 l 1
 484 140 l 1
 479 122 l 1
 455 72 l 1
 422 37 l 1
 406 27 l 1
 322 0 l 1
 49 0 l 1
 32 3 l 1
 19 12 l 1
 10 26 l 1
 7 42 l 1
 10 58 l 1
 19 72 l 1
 32 81 l 1
 49 84 l 1
 80 84 l 1
 80 516 l 1
189 84 m 1
 309 84 l 1
 343 101 l 1
 358 116 l 1
 375 150 l 1
 375 204 l 1
 358 238 l 1
 343 253 l 1
 309 270 l 1
 189 270 l 1
 189 84 l 1
EndSplineSet
EndChar

StartChar: glyph154
Encoding: 332 1068 154
Width: 517
VWidth: 0
Flags: W
HStem: 0 84<33 81 190 310> 270 84<190 310> 516 84<33 81 190 238>
VStem: 81 109<84 270 354 516> 376 109<150 204>
LayerCount: 2
Back
Fore
SplineSet
81 516 m 1
 49 516 l 1
 33 519 l 1
 20 528 l 1
 11 542 l 1
 7 558 l 1
 11 574 l 1
 20 588 l 1
 33 597 l 1
 49 600 l 1
 221 600 l 1
 238 597 l 1
 251 588 l 1
 260 574 l 1
 263 558 l 1
 260 542 l 1
 251 528 l 1
 238 519 l 1
 221 516 l 1
 190 516 l 1
 190 354 l 1
 333 352 l 1
 407 328 l 1
 423 317 l 1
 448 293 l 1
 480 233 l 1
 485 214 l 1
 485 140 l 1
 480 122 l 1
 456 72 l 1
 423 37 l 1
 407 27 l 1
 323 0 l 1
 49 0 l 1
 33 3 l 1
 20 12 l 1
 11 26 l 1
 7 42 l 1
 11 58 l 1
 20 72 l 1
 33 81 l 1
 49 84 l 1
 81 84 l 1
 81 516 l 1
190 84 m 1
 310 84 l 1
 344 101 l 1
 359 116 l 1
 376 150 l 1
 376 204 l 1
 359 238 l 1
 344 253 l 1
 310 270 l 1
 190 270 l 1
 190 84 l 1
EndSplineSet
EndChar

StartChar: glyph155
Encoding: 333 1069 155
Width: 517
VWidth: 0
Flags: W
HStem: 0 84<184 261> 270 84<181 376> 516 82<208 261> 580 20G<59 92>
VStem: 376 106<223.667 270>
LayerCount: 2
Back
Fore
SplineSet
117 562 m 1xd8
 134 573 l 1
 208 598 l 1xe8
 271 600 l 1xd8
 284 598 l 1
 358 573 l 1
 374 563 l 1
 423 514 l 1
 456 454 l 1
 485 361 l 1
 482 225 l 1
 458 152 l 1
 431 97 l 1
 374 37 l 1
 358 27 l 1
 274 0 l 1
 184 2 l 1
 110 27 l 1
 93 37 l 1
 61 72 l 1
 36 122 l 1
 32 140 l 1
 35 181 l 1
 44 195 l 1
 69 219 l 1
 82 228 l 1
 99 231 l 1
 115 228 l 1
 128 219 l 1
 153 195 l 1
 162 181 l 1
 165 165 l 1
 162 149 l 1
 153 135 l 1
 133 116 l 1
 146 103 l 1
 204 84 l 1
 261 84 l 1
 295 101 l 1
 334 141 l 1
 355 181 l 1
 376 245 l 1
 376 270 l 1
 197 270 l 1
 181 273 l 1
 167 283 l 1
 158 296 l 1
 155 312 l 1
 158 328 l 1
 167 342 l 1
 181 351 l 1
 197 354 l 1
 376 354 l 1
 355 419 l 1
 334 459 l 1
 295 499 l 1
 261 516 l 1
 228 516 l 1xe8
 170 497 l 1
 135 462 l 1
 114 397 l 1
 105 383 l 1
 92 373 l 1
 76 369 l 1
 59 371 l 1
 45 380 l 1
 35 394 l 1
 32 411 l 1
 32 558 l 1
 35 574 l 1
 45 588 l 1
 59 597 l 1
 76 600 l 1
 92 596 l 1
 105 586 l 1
 117 562 l 1xd8
EndSplineSet
EndChar

StartChar: glyph156
Encoding: 334 1070 156
Width: 761
VWidth: 0
Flags: W
HStem: 0 84<32 80 189 237 476 506> 270 84<189 252> 516 84<32 80 189 237 476 506>
VStem: 80 109<84 270 354 516> 621 107<240 360>
LayerCount: 2
Back
Fore
SplineSet
80 516 m 1
 49 516 l 1
 32 519 l 1
 19 528 l 1
 10 542 l 1
 7 558 l 1
 10 574 l 1
 19 588 l 1
 32 597 l 1
 49 600 l 1
 221 600 l 1
 237 597 l 1
 250 588 l 1
 259 574 l 1
 263 558 l 1
 259 542 l 1
 250 528 l 1
 237 519 l 1
 221 516 l 1
 189 516 l 1
 189 354 l 1
 255 354 l 1
 278 445 l 1
 306 503 l 1
 363 563 l 1
 379 573 l 1
 463 600 l 1
 518 600 l 1
 602 573 l 1
 619 563 l 1
 668 514 l 1
 700 454 l 1
 729 337 l 1
 728 253 l 1
 704 155 l 1
 676 97 l 1
 619 37 l 1
 602 27 l 1
 529 2 l 1
 463 0 l 1
 379 27 l 1
 363 37 l 1
 306 97 l 1
 278 155 l 1
 254 253 l 1
 252 270 l 1
 189 270 l 1
 189 84 l 1
 221 84 l 1
 237 81 l 1
 250 72 l 1
 259 58 l 1
 263 42 l 1
 259 26 l 1
 250 12 l 1
 237 3 l 1
 221 0 l 1
 49 0 l 1
 32 3 l 1
 19 12 l 1
 10 26 l 1
 7 42 l 1
 10 58 l 1
 19 72 l 1
 32 81 l 1
 49 84 l 1
 80 84 l 1
 80 516 l 1
506 84 m 1
 540 101 l 1
 579 141 l 1
 599 180 l 1
 621 268 l 1
 621 332 l 1
 599 420 l 1
 579 459 l 1
 540 499 l 1
 506 516 l 1
 476 516 l 1
 442 499 l 1
 403 459 l 1
 383 420 l 1
 361 332 l 1
 361 268 l 1
 383 180 l 1
 403 141 l 1
 442 101 l 1
 476 84 l 1
 506 84 l 1
EndSplineSet
EndChar

StartChar: glyph157
Encoding: 335 1071 157
Width: 539
VWidth: 0
Flags: W
HStem: 0 84<302 350 458 506> 270 84<279 350> 516 84<205 350 458 506>
VStem: 350 108<84 270 354 516>
LayerCount: 2
Back
Fore
SplineSet
6 91 m 1
 9 132 l 1
 18 145 l 1
 32 155 l 1
 48 158 l 1
 64 155 l 1
 78 145 l 1
 87 132 l 1
 89 121 l 1
 157 281 l 1
 108 297 l 1
 92 307 l 1
 67 332 l 1
 35 392 l 1
 30 411 l 1
 30 460 l 1
 35 478 l 1
 59 528 l 1
 92 563 l 1
 108 573 l 1
 192 600 l 1
 490 600 l 1
 506 597 l 1
 520 588 l 1
 529 574 l 1
 532 558 l 1
 529 542 l 1
 520 528 l 1
 506 519 l 1
 490 516 l 1
 458 516 l 1
 458 84 l 1
 490 84 l 1
 506 81 l 1
 520 72 l 1
 529 58 l 1
 532 42 l 1
 529 26 l 1
 520 12 l 1
 506 3 l 1
 490 0 l 1
 318 0 l 1
 302 3 l 1
 288 12 l 1
 279 26 l 1
 276 42 l 1
 279 58 l 1
 288 72 l 1
 302 81 l 1
 318 84 l 1
 350 84 l 1
 350 270 l 1
 279 270 l 1
 251 256 l 1
 235 223 l 1
 187 55 l 1
 176 37 l 1
 151 12 l 1
 138 3 l 1
 122 0 l 1
 72 0 l 1
 57 3 l 1
 44 11 l 1
 35 23 l 1
 10 72 l 1
 6 91 l 1
350 354 m 1
 350 516 l 1
 205 516 l 1
 171 499 l 1
 156 484 l 1
 139 450 l 1
 139 420 l 1
 156 386 l 1
 171 371 l 1
 205 354 l 1
 350 354 l 1
EndSplineSet
EndChar

StartChar: glyph158
Encoding: 336 1072 158
Width: 490
VWidth: 0
Flags: W
HStem: 0 84<181 235> 344 84<181 259>
VStem: 301 108<133 218 305 306>
LayerCount: 2
Back
Fore
SplineSet
164 335 m 1
 161 296 l 1
 151 283 l 1
 138 273 l 1
 97 270 l 1
 81 273 l 1
 67 283 l 1
 58 296 l 1
 55 337 l 1
 58 353 l 1
 67 367 l 1
 103 399 l 1
 152 424 l 1
 171 428 l 1
 269 428 l 1
 288 424 l 1
 337 399 l 1
 373 367 l 1
 405 306 l 1
 409 288 l 1
 409 126 l 1
 427 91 l 1
 434 84 l 1
 457 81 l 1
 471 72 l 1
 480 58 l 1
 483 42 l 1
 480 26 l 1
 471 12 l 1
 457 3 l 1
 441 0 l 1
 400 3 l 1
 349 29 l 1
 332 45 l 1
 312 29 l 1
 263 4 l 1
 245 0 l 1
 168 0 l 1
 84 27 l 1
 70 35 l 1
 60 48 l 1
 35 97 l 1
 31 116 l 1
 31 165 l 1
 35 184 l 1
 60 233 l 1
 70 246 l 1
 84 254 l 1
 158 278 l 1
 298 302 l 1
 301 305 l 1
 301 319 l 1
 293 327 l 1
 259 344 l 1
 181 344 l 1
 164 335 l 1
184 198 m 1
 153 183 l 1
 139 155 l 1
 139 126 l 1
 153 98 l 1
 181 84 l 1
 235 84 l 1
 269 101 l 1
 301 133 l 1
 301 218 l 1
 184 198 l 1
EndSplineSet
EndChar

StartChar: glyph159
Encoding: 337 1073 159
Width: 492
VWidth: 0
Flags: W
HStem: 0 84<231 261> 580 20G<380 410>
VStem: 32 109<174.632 253.368> 351 109<174.632 252>
LayerCount: 2
Back
Fore
SplineSet
268 428 m 1
 284 426 l 1
 358 401 l 1
 374 391 l 1
 423 342 l 1
 433 326 l 1
 458 252 l 1
 460 189 l 1
 433 102 l 1
 423 86 l 1
 374 37 l 1
 358 27 l 1
 284 2 l 1
 218 0 l 1
 134 27 l 1
 118 37 l 1
 69 86 l 1
 59 102 l 1
 32 189 l 1
 32 288 l 1
 59 375 l 1
 113 458 l 1
 124 470 l 1
 198 519 l 1
 346 570 l 1
 366 590 l 1
 380 598 l 1
 393 600 l 1
 410 597 l 1
 423 588 l 1
 433 571 l 1
 435 555 l 1
 431 539 l 1
 399 479 l 1
 338 447 l 1
 268 428 l 1
261 84 m 1
 295 101 l 1
 332 138 l 1
 351 196 l 1
 351 232 l 1
 332 290 l 1
 295 327 l 1
 261 344 l 1
 231 344 l 1
 197 327 l 1
 160 290 l 1
 141 232 l 1
 141 196 l 1
 160 138 l 1
 197 101 l 1
 231 84 l 1
 261 84 l 1
EndSplineSet
EndChar

StartChar: glyph160
Encoding: 338 1074 160
Width: 492
VWidth: 0
Flags: W
HStem: 0 84<33 81 190 310> 172 84<190 310> 344 84<33 81 190 310>
VStem: 81 109<84 172 256 344>
CounterMasks: 1 e0
LayerCount: 2
Back
Fore
SplineSet
81 344 m 1
 49 344 l 1
 33 347 l 1
 20 356 l 1
 11 370 l 1
 7 386 l 1
 11 402 l 1
 20 416 l 1
 33 425 l 1
 49 428 l 1
 323 428 l 1
 407 401 l 1
 421 393 l 1
 431 380 l 1
 456 331 l 1
 460 312 l 1
 460 288 l 1
 456 269 l 1
 427 214 l 1
 456 159 l 1
 460 140 l 1
 460 116 l 1
 456 97 l 1
 431 48 l 1
 421 35 l 1
 407 27 l 1
 323 0 l 1
 49 0 l 1
 33 3 l 1
 20 12 l 1
 11 26 l 1
 7 42 l 1
 11 58 l 1
 20 72 l 1
 33 81 l 1
 49 84 l 1
 81 84 l 1
 81 344 l 1
190 344 m 1
 190 256 l 1
 310 256 l 1
 338 270 l 1
 351 298 l 1
 338 330 l 1
 310 344 l 1
 190 344 l 1
190 84 m 1
 310 84 l 1
 338 98 l 1
 351 130 l 1
 338 158 l 1
 310 172 l 1
 190 172 l 1
 190 84 l 1
EndSplineSet
EndChar

StartChar: glyph161
Encoding: 339 1075 161
Width: 443
VWidth: 0
Flags: W
HStem: 0 84<33 81 190 238> 344 84<33 81 190 334>
VStem: 81 109<84 344>
LayerCount: 2
Back
Fore
SplineSet
81 344 m 1
 49 344 l 1
 33 347 l 1
 20 356 l 1
 11 370 l 1
 7 386 l 1
 11 402 l 1
 20 416 l 1
 33 425 l 1
 49 428 l 1
 393 428 l 1
 410 425 l 1
 423 416 l 1
 432 402 l 1
 435 386 l 1
 435 263 l 1
 432 246 l 1
 421 232 l 1
 406 223 l 1
 389 221 l 1
 372 227 l 1
 359 239 l 1
 352 255 l 1
 334 344 l 1
 190 344 l 1
 190 84 l 1
 221 84 l 1
 238 81 l 1
 251 72 l 1
 260 58 l 1
 263 42 l 1
 260 26 l 1
 251 12 l 1
 238 3 l 1
 221 0 l 1
 49 0 l 1
 33 3 l 1
 20 12 l 1
 11 26 l 1
 7 42 l 1
 11 58 l 1
 20 72 l 1
 33 81 l 1
 49 84 l 1
 81 84 l 1
 81 344 l 1
EndSplineSet
EndChar

StartChar: glyph162
Encoding: 340 1076 162
Width: 565
VWidth: 0
Flags: W
HStem: 0 84<198 376> 344 84<107 155 239 376 484 532>
VStem: 155 83<249.875 344> 376 108<84 344>
LayerCount: 2
Back
Fore
SplineSet
106 84 m 1
 111 89 l 1
 131 150 l 1
 155 291 l 1
 155 344 l 1
 123 344 l 1
 107 347 l 1
 93 356 l 1
 84 370 l 1
 81 386 l 1
 84 402 l 1
 93 416 l 1
 107 425 l 1
 123 428 l 1
 516 428 l 1
 532 425 l 1
 546 416 l 1
 555 402 l 1
 558 386 l 1
 555 370 l 1
 546 356 l 1
 532 347 l 1
 516 344 l 1
 484 344 l 1
 484 84 l 1
 516 84 l 1
 532 81 l 1
 546 72 l 1
 555 58 l 1
 558 42 l 1
 558 -81 l 1
 554 -98 l 1
 544 -112 l 1
 529 -121 l 1
 511 -123 l 1
 495 -117 l 1
 482 -105 l 1
 475 -89 l 1
 457 0 l 1
 108 0 l 1
 90 -89 l 1
 84 -105 l 1
 71 -117 l 1
 54 -123 l 1
 37 -121 l 1
 21 -112 l 1
 11 -98 l 1
 7 -81 l 1
 7 42 l 1
 10 58 l 1
 20 72 l 1
 33 81 l 1
 49 84 l 1
 106 84 l 1
239 344 m 1
 238 281 l 1
 214 133 l 1
 198 84 l 1
 376 84 l 1
 376 344 l 1
 239 344 l 1
EndSplineSet
EndChar

StartChar: glyph163
Encoding: 341 1077 163
Width: 467
VWidth: 0
Flags: W
HStem: 2 82<231 285.368> 197 84<157 327> 344 84<231 285>
LayerCount: 2
Back
Fore
SplineSet
220 428 m 1
 295 428 l 1
 314 424 l 1
 363 399 l 1
 399 367 l 1
 406 356 l 1
 431 306 l 1
 435 288 l 1
 435 239 l 1
 432 222 l 1
 423 209 l 1
 410 200 l 1
 393 197 l 1
 141 197 l 1
 160 138 l 1
 197 101 l 1
 231 84 l 1
 264 84 l 1
 322 103 l 1
 364 145 l 1
 377 155 l 1
 393 158 l 1
 410 155 l 1
 423 145 l 1
 432 132 l 1
 435 116 l 1
 432 100 l 1
 423 86 l 1
 374 37 l 1
 358 27 l 1
 271 0 l 1
 208 2 l 1
 134 27 l 1
 118 37 l 1
 69 86 l 1
 59 102 l 1
 32 189 l 1
 34 252 l 1
 59 326 l 1
 69 342 l 1
 118 391 l 1
 134 401 l 1
 220 428 l 1
231 344 m 1
 197 327 l 1
 160 290 l 1
 157 281 l 1
 327 281 l 1
 327 302 l 1
 313 330 l 1
 285 344 l 1
 231 344 l 1
EndSplineSet
EndChar

StartChar: glyph164
Encoding: 342 1078 164
Width: 663
VWidth: 0
Flags: W
HStem: 0 84<244 276 385 432> 344 84<228 276 385 432>
VStem: 276 109<84 162 257 344>
LayerCount: 2
Back
Fore
SplineSet
126 307 m 1
 113 298 l 1
 97 295 l 1
 81 298 l 1
 67 307 l 1
 43 332 l 1
 33 345 l 1
 30 361 l 1
 33 378 l 1
 43 391 l 1
 67 416 l 1
 81 425 l 1
 121 428 l 1
 138 425 l 1
 151 416 l 1
 184 380 l 1
 230 288 l 1
 245 273 l 1
 276 257 l 1
 276 344 l 1
 244 344 l 1
 228 347 l 1
 215 356 l 1
 205 370 l 1
 202 386 l 1
 205 402 l 1
 215 416 l 1
 228 425 l 1
 244 428 l 1
 416 428 l 1
 432 425 l 1
 446 416 l 1
 455 402 l 1
 458 386 l 1
 455 370 l 1
 446 356 l 1
 432 347 l 1
 416 344 l 1
 385 344 l 1
 385 257 l 1
 416 273 l 1
 431 288 l 1
 477 380 l 1
 509 416 l 1
 523 425 l 1
 539 428 l 1
 580 425 l 1
 593 416 l 1
 618 391 l 1
 627 378 l 1
 630 361 l 1
 627 345 l 1
 618 332 l 1
 593 307 l 1
 580 298 l 1
 564 295 l 1
 548 298 l 1
 534 307 l 1
 503 244 l 1
 476 214 l 1
 503 184 l 1
 551 89 l 1
 575 134 l 1
 585 147 l 1
 600 156 l 1
 616 158 l 1
 632 153 l 1
 645 143 l 1
 653 129 l 1
 655 113 l 1
 650 97 l 1
 618 37 l 1
 593 12 l 1
 580 3 l 1
 564 0 l 1
 515 0 l 1
 498 3 l 1
 485 12 l 1
 458 40 l 1
 455 26 l 1
 446 12 l 1
 432 3 l 1
 416 0 l 1
 244 0 l 1
 228 3 l 1
 215 12 l 1
 205 26 l 1
 203 40 l 1
 176 12 l 1
 162 3 l 1
 146 0 l 1
 97 0 l 1
 81 3 l 1
 67 12 l 1
 35 48 l 1
 10 97 l 1
 6 113 l 1
 8 129 l 1
 16 143 l 1
 29 153 l 1
 45 158 l 1
 61 156 l 1
 75 147 l 1
 85 134 l 1
 107 91 l 1
 109 89 l 1
 111 91 l 1
 158 184 l 1
 185 214 l 1
 158 244 l 1
 126 307 l 1
276 162 m 1
 254 140 l 1
 223 77 l 1
 244 84 l 1
 276 84 l 1
 276 162 l 1
385 162 m 1
 385 84 l 1
 416 84 l 1
 438 77 l 1
 406 140 l 1
 385 162 l 1
EndSplineSet
EndChar

StartChar: glyph165
Encoding: 343 1079 165
Width: 441
VWidth: 0
Flags: W
HStem: 0 84<156.462 259> 172 84<179 259> 344 84<181 259>
CounterMasks: 1 e0
LayerCount: 2
Back
Fore
SplineSet
111 403 m 1
 152 424 l 1
 171 428 l 1
 272 428 l 1
 356 401 l 1
 370 393 l 1
 380 380 l 1
 405 331 l 1
 409 312 l 1
 409 288 l 1
 405 269 l 1
 376 214 l 1
 405 159 l 1
 409 140 l 1
 409 116 l 1
 405 97 l 1
 380 48 l 1
 370 35 l 1
 356 27 l 1
 272 0 l 1
 171 0 l 1
 84 27 l 1
 70 35 l 1
 60 48 l 1
 35 97 l 1
 31 116 l 1
 31 140 l 1
 34 156 l 1
 43 170 l 1
 67 195 l 1
 81 204 l 1
 97 207 l 1
 113 204 l 1
 127 195 l 1
 151 170 l 1
 161 156 l 1
 164 140 l 1
 161 124 l 1
 138 97 l 1
 178 84 l 1
 259 84 l 1
 287 98 l 1
 301 126 l 1
 287 158 l 1
 259 172 l 1
 195 172 l 1
 179 175 l 1
 166 184 l 1
 157 198 l 1
 153 214 l 1
 157 230 l 1
 166 244 l 1
 179 253 l 1
 195 256 l 1
 259 256 l 1
 287 270 l 1
 301 302 l 1
 287 330 l 1
 259 344 l 1
 181 344 l 1
 147 327 l 1
 132 312 l 1
 110 269 l 1
 100 256 l 1
 87 248 l 1
 71 246 l 1
 55 249 l 1
 42 259 l 1
 34 272 l 1
 31 288 l 1
 31 386 l 1
 34 402 l 1
 42 415 l 1
 55 424 l 1
 71 428 l 1
 87 426 l 1
 100 417 l 1
 111 403 l 1
EndSplineSet
EndChar

StartChar: glyph166
Encoding: 344 1080 166
Width: 539
VWidth: 0
Flags: W
HStem: 0 84<32 80 215 236 302 350 458 506> 344 84<32 80 188 236 302 323 458 506>
VStem: 80 108<183 344> 350 108<84 245>
LayerCount: 2
Back
Fore
SplineSet
80 344 m 1
 48 344 l 1
 32 347 l 1
 18 356 l 1
 9 370 l 1
 6 386 l 1
 9 402 l 1
 18 416 l 1
 32 425 l 1
 48 428 l 1
 220 428 l 1
 236 425 l 1
 250 416 l 1
 259 402 l 1
 262 386 l 1
 259 370 l 1
 250 356 l 1
 236 347 l 1
 220 344 l 1
 188 344 l 1
 188 183 l 1
 323 344 l 1
 302 347 l 1
 288 356 l 1
 279 370 l 1
 276 386 l 1
 279 402 l 1
 288 416 l 1
 302 425 l 1
 318 428 l 1
 490 428 l 1
 506 425 l 1
 520 416 l 1
 529 402 l 1
 532 386 l 1
 529 370 l 1
 520 356 l 1
 506 347 l 1
 490 344 l 1
 458 344 l 1
 458 84 l 1
 490 84 l 1
 506 81 l 1
 520 72 l 1
 529 58 l 1
 532 42 l 1
 529 26 l 1
 520 12 l 1
 506 3 l 1
 490 0 l 1
 318 0 l 1
 302 3 l 1
 288 12 l 1
 279 26 l 1
 276 42 l 1
 279 58 l 1
 288 72 l 1
 302 81 l 1
 318 84 l 1
 350 84 l 1
 350 245 l 1
 215 84 l 1
 236 81 l 1
 250 72 l 1
 259 58 l 1
 262 42 l 1
 259 26 l 1
 250 12 l 1
 236 3 l 1
 220 0 l 1
 48 0 l 1
 32 3 l 1
 18 12 l 1
 9 26 l 1
 6 42 l 1
 9 58 l 1
 18 72 l 1
 32 81 l 1
 48 84 l 1
 80 84 l 1
 80 344 l 1
EndSplineSet
EndChar

StartChar: glyph167
Encoding: 345 1081 167
Width: 539
VWidth: 0
Flags: W
HStem: 0 84<32 80 215 236 302 350 458 506> 344 84<32 80 188 214 458 506> 418 84<254 284> 580 20G<155 211>
VStem: 80 108<183 344> 129 108<515 574> 350 108<84 245>
LayerCount: 2
Back
Fore
SplineSet
80 344 m 1xda
 48 344 l 1
 32 347 l 1
 18 356 l 1
 9 370 l 1
 6 386 l 1
 9 402 l 1
 18 416 l 1
 32 425 l 1
 48 428 l 1
 214 428 l 1xda
 166 455 l 1
 133 515 l 1
 129 533 l 1
 129 558 l 1
 132 574 l 1
 141 588 l 1
 155 597 l 1
 171 600 l 1
 211 597 l 1
 225 588 l 1
 234 574 l 1
 237 558 l 1
 237 533 l 1
 231 513 l 1
 254 502 l 1
 284 502 l 1xb6
 311 516 l 1
 330 552 l 1
 340 565 l 1
 354 573 l 1
 370 575 l 1
 386 571 l 1
 399 561 l 1
 407 547 l 1
 409 530 l 1
 405 515 l 1
 372 455 l 1
 324 428 l 1
 490 428 l 1
 506 425 l 1
 520 416 l 1
 529 402 l 1
 532 386 l 1
 529 370 l 1
 520 356 l 1
 506 347 l 1
 490 344 l 1
 458 344 l 1
 458 84 l 1
 490 84 l 1
 506 81 l 1
 520 72 l 1
 529 58 l 1
 532 42 l 1
 529 26 l 1
 520 12 l 1
 506 3 l 1
 490 0 l 1
 318 0 l 1
 302 3 l 1
 288 12 l 1
 279 26 l 1
 276 42 l 1
 279 58 l 1
 288 72 l 1
 302 81 l 1
 318 84 l 1
 350 84 l 1
 350 245 l 1
 215 84 l 1
 236 81 l 1
 250 72 l 1
 259 58 l 1
 262 42 l 1
 259 26 l 1
 250 12 l 1
 236 3 l 1
 220 0 l 1
 48 0 l 1
 32 3 l 1
 18 12 l 1
 9 26 l 1
 6 42 l 1
 9 58 l 1
 18 72 l 1
 32 81 l 1
 48 84 l 1
 80 84 l 1
 80 344 l 1xda
188 344 m 1
 188 183 l 1
 323 344 l 1xda
 302 347 l 1
 288 356 l 1
 279 370 l 1
 276 386 l 1
 279 402 l 1
 291 418 l 1
 247 418 l 1xba
 259 402 l 1
 262 386 l 1
 259 370 l 1
 250 356 l 1
 236 347 l 1
 220 344 l 1
 188 344 l 1
EndSplineSet
EndChar

StartChar: glyph168
Encoding: 346 1082 168
Width: 492
VWidth: 0
Flags: W
HStem: 0 84<33 81 190 238> 344 84<33 81 190 238>
VStem: 81 109<84 171 256 344>
LayerCount: 2
Back
Fore
SplineSet
81 344 m 1
 49 344 l 1
 33 347 l 1
 20 356 l 1
 11 370 l 1
 7 386 l 1
 11 402 l 1
 20 416 l 1
 33 425 l 1
 49 428 l 1
 221 428 l 1
 238 425 l 1
 251 416 l 1
 260 402 l 1
 263 386 l 1
 260 370 l 1
 251 356 l 1
 238 347 l 1
 221 344 l 1
 190 344 l 1
 190 256 l 1
 248 275 l 1
 261 288 l 1
 307 380 l 1
 339 416 l 1
 353 425 l 1
 393 428 l 1
 410 425 l 1
 423 416 l 1
 448 391 l 1
 457 378 l 1
 460 361 l 1
 457 345 l 1
 448 332 l 1
 423 307 l 1
 410 298 l 1
 393 295 l 1
 377 298 l 1
 364 307 l 1
 333 244 l 1
 305 214 l 1
 333 184 l 1
 381 89 l 1
 405 134 l 1
 415 147 l 1
 429 156 l 1
 446 158 l 1
 461 153 l 1
 474 143 l 1
 482 129 l 1
 484 113 l 1
 480 97 l 1
 448 37 l 1
 423 12 l 1
 410 3 l 1
 393 0 l 1
 344 0 l 1
 328 3 l 1
 315 12 l 1
 282 48 l 1
 236 140 l 1
 221 155 l 1
 190 171 l 1
 190 84 l 1
 221 84 l 1
 238 81 l 1
 251 72 l 1
 260 58 l 1
 263 42 l 1
 260 26 l 1
 251 12 l 1
 238 3 l 1
 221 0 l 1
 49 0 l 1
 33 3 l 1
 20 12 l 1
 11 26 l 1
 7 42 l 1
 11 58 l 1
 20 72 l 1
 33 81 l 1
 49 84 l 1
 81 84 l 1
 81 344 l 1
EndSplineSet
EndChar

StartChar: glyph169
Encoding: 347 1083 169
Width: 539
VWidth: 0
Flags: W
HStem: 0 84<302 350 458 506> 344 84<81 129 213 350 458 506>
VStem: 129 83<249.875 344> 350 108<84 344>
LayerCount: 2
Back
Fore
SplineSet
97 125 m 1
 105 150 l 1
 129 291 l 1
 129 344 l 1
 97 344 l 1
 81 347 l 1
 67 356 l 1
 58 370 l 1
 55 386 l 1
 58 402 l 1
 67 416 l 1
 81 425 l 1
 97 428 l 1
 490 428 l 1
 506 425 l 1
 520 416 l 1
 529 402 l 1
 532 386 l 1
 529 370 l 1
 520 356 l 1
 506 347 l 1
 490 344 l 1
 458 344 l 1
 458 84 l 1
 490 84 l 1
 506 81 l 1
 520 72 l 1
 529 58 l 1
 532 42 l 1
 529 26 l 1
 520 12 l 1
 506 3 l 1
 490 0 l 1
 318 0 l 1
 302 3 l 1
 288 12 l 1
 279 26 l 1
 276 42 l 1
 279 58 l 1
 288 72 l 1
 302 81 l 1
 318 84 l 1
 350 84 l 1
 350 344 l 1
 213 344 l 1
 212 281 l 1
 188 133 l 1
 161 53 l 1
 151 37 l 1
 127 12 l 1
 113 3 l 1
 72 0 l 1
 56 3 l 1
 43 12 l 1
 18 37 l 1
 9 50 l 1
 6 67 l 1
 9 83 l 1
 18 96 l 1
 43 121 l 1
 56 130 l 1
 72 133 l 1
 89 130 l 1
 97 125 l 1
EndSplineSet
EndChar

StartChar: glyph170
Encoding: 348 1084 170
Width: 565
VWidth: 0
Flags: W
HStem: 0 84<32 80 164 206 332 374 483 531> 344 84<32 80 483 531>
VStem: 80 84<84 181> 374 109<84 181>
LayerCount: 2
Back
Fore
SplineSet
80 344 m 1
 48 344 l 1
 32 347 l 1
 18 356 l 1
 9 370 l 1
 6 386 l 1
 9 402 l 1
 18 416 l 1
 32 425 l 1
 48 428 l 1
 146 428 l 1
 162 425 l 1
 176 416 l 1
 185 402 l 1
 280 174 l 1
 378 403 l 1
 387 416 l 1
 401 425 l 1
 416 428 l 1
 515 428 l 1
 531 425 l 1
 544 416 l 1
 554 402 l 1
 557 386 l 1
 554 370 l 1
 544 356 l 1
 531 347 l 1
 515 344 l 1
 483 344 l 1
 483 84 l 1
 515 84 l 1
 531 81 l 1
 544 72 l 1
 554 58 l 1
 557 42 l 1
 554 26 l 1
 544 12 l 1
 531 3 l 1
 515 0 l 1
 343 0 l 1
 327 3 l 1
 313 12 l 1
 306 23 l 1
 298 12 l 1
 286 3 l 1
 268 0 l 1
 252 3 l 1
 240 12 l 1
 232 23 l 1
 225 12 l 1
 211 3 l 1
 195 0 l 1
 48 0 l 1
 32 3 l 1
 18 12 l 1
 9 26 l 1
 6 42 l 1
 9 58 l 1
 18 72 l 1
 32 81 l 1
 48 84 l 1
 80 84 l 1
 80 344 l 1
164 181 m 1
 164 84 l 1
 206 82 l 1
 164 181 l 1
374 181 m 1
 332 82 l 1
 374 84 l 1
 374 181 l 1
EndSplineSet
EndChar

StartChar: glyph171
Encoding: 349 1085 171
Width: 539
VWidth: 0
Flags: W
HStem: 0 84<32 80 188 236 302 350 458 506> 172 84<188 350> 344 84<32 80 188 236 302 350 458 506>
VStem: 80 108<84 172 256 344> 350 108<84 172 256 344>
CounterMasks: 1 e0
LayerCount: 2
Back
Fore
SplineSet
80 344 m 1
 48 344 l 1
 32 347 l 1
 18 356 l 1
 9 370 l 1
 6 386 l 1
 9 402 l 1
 18 416 l 1
 32 425 l 1
 48 428 l 1
 220 428 l 1
 236 425 l 1
 250 416 l 1
 259 402 l 1
 262 386 l 1
 259 370 l 1
 250 356 l 1
 236 347 l 1
 220 344 l 1
 188 344 l 1
 188 256 l 1
 350 256 l 1
 350 344 l 1
 318 344 l 1
 302 347 l 1
 288 356 l 1
 279 370 l 1
 276 386 l 1
 279 402 l 1
 288 416 l 1
 302 425 l 1
 318 428 l 1
 490 428 l 1
 506 425 l 1
 520 416 l 1
 529 402 l 1
 532 386 l 1
 529 370 l 1
 520 356 l 1
 506 347 l 1
 490 344 l 1
 458 344 l 1
 458 84 l 1
 490 84 l 1
 506 81 l 1
 520 72 l 1
 529 58 l 1
 532 42 l 1
 529 26 l 1
 520 12 l 1
 506 3 l 1
 490 0 l 1
 318 0 l 1
 302 3 l 1
 288 12 l 1
 279 26 l 1
 276 42 l 1
 279 58 l 1
 288 72 l 1
 302 81 l 1
 318 84 l 1
 350 84 l 1
 350 172 l 1
 188 172 l 1
 188 84 l 1
 220 84 l 1
 236 81 l 1
 250 72 l 1
 259 58 l 1
 262 42 l 1
 259 26 l 1
 250 12 l 1
 236 3 l 1
 220 0 l 1
 48 0 l 1
 32 3 l 1
 18 12 l 1
 9 26 l 1
 6 42 l 1
 9 58 l 1
 18 72 l 1
 32 81 l 1
 48 84 l 1
 80 84 l 1
 80 344 l 1
EndSplineSet
EndChar

StartChar: glyph172
Encoding: 350 1086 172
Width: 492
VWidth: 0
Flags: W
HStem: 0 84<231 261> 344 84<231 261>
VStem: 34 107<176 252> 351 109<174.632 252>
LayerCount: 2
Back
Fore
SplineSet
134 401 m 1
 218 428 l 1
 284 426 l 1
 358 401 l 1
 374 391 l 1
 423 342 l 1
 433 326 l 1
 458 252 l 1
 460 189 l 1
 433 102 l 1
 423 86 l 1
 374 37 l 1
 358 27 l 1
 284 2 l 1
 218 0 l 1
 134 27 l 1
 118 37 l 1
 69 86 l 1
 59 102 l 1
 34 176 l 1
 32 239 l 1
 34 252 l 1
 59 326 l 1
 69 342 l 1
 118 391 l 1
 134 401 l 1
261 84 m 1
 295 101 l 1
 332 138 l 1
 351 196 l 1
 351 232 l 1
 332 290 l 1
 295 327 l 1
 261 344 l 1
 231 344 l 1
 197 327 l 1
 160 290 l 1
 141 232 l 1
 141 196 l 1
 160 138 l 1
 197 101 l 1
 231 84 l 1
 261 84 l 1
EndSplineSet
EndChar

StartChar: glyph173
Encoding: 351 1087 173
Width: 539
VWidth: 0
Flags: W
HStem: 0 84<32 80 188 236 302 350 458 506> 344 84<32 80 188 350 458 506>
VStem: 80 108<84 344> 350 108<84 344>
LayerCount: 2
Back
Fore
SplineSet
80 344 m 1
 48 344 l 1
 32 347 l 1
 18 356 l 1
 9 370 l 1
 6 386 l 1
 9 402 l 1
 18 416 l 1
 32 425 l 1
 48 428 l 1
 490 428 l 1
 506 425 l 1
 520 416 l 1
 529 402 l 1
 532 386 l 1
 529 370 l 1
 520 356 l 1
 506 347 l 1
 490 344 l 1
 458 344 l 1
 458 84 l 1
 490 84 l 1
 506 81 l 1
 520 72 l 1
 529 58 l 1
 532 42 l 1
 529 26 l 1
 520 12 l 1
 506 3 l 1
 490 0 l 1
 318 0 l 1
 302 3 l 1
 288 12 l 1
 279 26 l 1
 276 42 l 1
 279 58 l 1
 288 72 l 1
 302 81 l 1
 318 84 l 1
 350 84 l 1
 350 344 l 1
 188 344 l 1
 188 84 l 1
 220 84 l 1
 236 81 l 1
 250 72 l 1
 259 58 l 1
 262 42 l 1
 259 26 l 1
 250 12 l 1
 236 3 l 1
 220 0 l 1
 48 0 l 1
 32 3 l 1
 18 12 l 1
 9 26 l 1
 6 42 l 1
 9 58 l 1
 18 72 l 1
 32 81 l 1
 48 84 l 1
 80 84 l 1
 80 344 l 1
EndSplineSet
EndChar

StartChar: glyph174
Encoding: 352 1088 174
Width: 515
VWidth: 0
Flags: W
HStem: -172 84<32 80 188 236> 0 84<254 284> 344 84<32 80 254 284>
VStem: 80 108<-88 23 133 295> 374 109<176 252>
LayerCount: 2
Back
Fore
SplineSet
80 344 m 1
 48 344 l 1
 32 347 l 1
 18 356 l 1
 9 370 l 1
 6 386 l 1
 9 402 l 1
 18 416 l 1
 32 425 l 1
 48 428 l 1
 146 428 l 1
 162 425 l 1
 176 416 l 1
 184 403 l 1
 226 424 l 1
 244 428 l 1
 307 426 l 1
 381 401 l 1
 397 391 l 1
 446 342 l 1
 456 326 l 1
 481 252 l 1
 483 189 l 1
 481 176 l 1
 456 102 l 1
 446 86 l 1
 397 37 l 1
 381 27 l 1
 297 0 l 1
 244 0 l 1
 226 4 l 1
 188 23 l 1
 188 -88 l 1
 220 -88 l 1
 236 -91 l 1
 250 -100 l 1
 259 -114 l 1
 262 -130 l 1
 259 -146 l 1
 250 -160 l 1
 236 -169 l 1
 220 -172 l 1
 48 -172 l 1
 32 -169 l 1
 18 -160 l 1
 9 -146 l 1
 6 -130 l 1
 9 -114 l 1
 18 -100 l 1
 32 -91 l 1
 48 -88 l 1
 80 -88 l 1
 80 344 l 1
188 295 m 1
 188 133 l 1
 220 101 l 1
 254 84 l 1
 284 84 l 1
 318 101 l 1
 355 138 l 1
 374 196 l 1
 374 232 l 1
 355 290 l 1
 318 327 l 1
 284 344 l 1
 254 344 l 1
 220 327 l 1
 188 295 l 1
EndSplineSet
EndChar

StartChar: glyph175
Encoding: 353 1089 175
Width: 467
VWidth: 0
Flags: W
HStem: 2 82<231 285.368> 344 83<231 285>
VStem: 32 109<174.632 252>
LayerCount: 2
Back
Fore
SplineSet
215 427 m 1
 295 428 l 1
 314 424 l 1
 363 399 l 1
 423 342 l 1
 432 328 l 1
 435 312 l 1
 432 272 l 1
 423 258 l 1
 399 233 l 1
 385 224 l 1
 369 221 l 1
 353 224 l 1
 339 233 l 1
 315 258 l 1
 305 272 l 1
 302 288 l 1
 305 304 l 1
 322 325 l 1
 285 344 l 1
 231 344 l 1
 197 327 l 1
 160 290 l 1
 141 232 l 1
 141 196 l 1
 160 138 l 1
 197 101 l 1
 231 84 l 1
 264 84 l 1
 322 103 l 1
 364 145 l 1
 377 155 l 1
 393 158 l 1
 410 155 l 1
 423 145 l 1
 432 132 l 1
 435 116 l 1
 432 100 l 1
 423 86 l 1
 374 37 l 1
 358 27 l 1
 271 0 l 1
 208 2 l 1
 134 27 l 1
 118 37 l 1
 69 86 l 1
 59 102 l 1
 32 189 l 1
 34 252 l 1
 59 326 l 1
 69 342 l 1
 118 391 l 1
 134 401 l 1
 215 427 l 1
EndSplineSet
EndChar

StartChar: glyph176
Encoding: 354 1090 176
Width: 466
VWidth: 0
Flags: W
HStem: 0 84<130 178 287 334> 344 84<132 178 287 333>
VStem: 178 109<84 344>
LayerCount: 2
Back
Fore
SplineSet
132 344 m 1
 114 255 l 1
 107 239 l 1
 94 227 l 1
 77 221 l 1
 60 223 l 1
 45 232 l 1
 34 246 l 1
 31 263 l 1
 31 386 l 1
 34 402 l 1
 43 416 l 1
 56 425 l 1
 73 428 l 1
 392 428 l 1
 408 425 l 1
 422 416 l 1
 431 402 l 1
 434 386 l 1
 434 263 l 1
 430 246 l 1
 420 232 l 1
 405 223 l 1
 387 221 l 1
 371 227 l 1
 358 239 l 1
 351 255 l 1
 333 344 l 1
 287 344 l 1
 287 84 l 1
 318 84 l 1
 334 81 l 1
 348 72 l 1
 357 58 l 1
 360 42 l 1
 357 26 l 1
 348 12 l 1
 334 3 l 1
 318 0 l 1
 146 0 l 1
 130 3 l 1
 117 12 l 1
 107 26 l 1
 104 42 l 1
 107 58 l 1
 117 72 l 1
 130 81 l 1
 146 84 l 1
 178 84 l 1
 178 344 l 1
 132 344 l 1
EndSplineSet
EndChar

StartChar: glyph177
Encoding: 355 1091 177
Width: 443
VWidth: 0
Flags: W
HStem: -172 21G<33 92> 344 84<254 305>
LayerCount: 2
Back
Fore
SplineSet
98 -71 m 1
 137 -31 l 1
 175 43 l 1
 46 344 l 1
 8 347 l 1
 -5 356 l 1
 -14 370 l 1
 -18 386 l 1
 -14 402 l 1
 -5 416 l 1
 8 425 l 1
 24 428 l 1
 172 428 l 1
 188 425 l 1
 202 416 l 1
 211 402 l 1
 214 386 l 1
 211 370 l 1
 202 356 l 1
 188 347 l 1
 161 344 l 1
 232 174 l 1
 305 344 l 1
 270 344 l 1
 254 347 l 1
 240 356 l 1
 231 370 l 1
 228 386 l 1
 231 402 l 1
 240 416 l 1
 254 425 l 1
 270 428 l 1
 418 428 l 1
 434 425 l 1
 447 416 l 1
 456 402 l 1
 460 386 l 1
 456 370 l 1
 447 356 l 1
 434 347 l 1
 396 344 l 1
 260 25 l 1
 202 -86 l 1
 141 -143 l 1
 92 -168 l 1
 74 -172 l 1
 33 -169 l 1
 19 -160 l 1
 -5 -135 l 1
 -14 -122 l 1
 -18 -105 l 1
 -14 -89 l 1
 -5 -76 l 1
 19 -51 l 1
 33 -42 l 1
 49 -39 l 1
 65 -42 l 1
 79 -51 l 1
 98 -71 l 1
EndSplineSet
EndChar

StartChar: glyph178
Encoding: 356 1092 178
Width: 517
VWidth: 0
Flags: W
HStem: -172 84<156 204 313 360> 0 21G<132 204 313 385> 408 20G<130 204 313 385> 516 84<156 204>
VStem: 32 109<125.632 302.368> 204 109<-88 1 126 302 427 516> 376 109<125.632 302.368>
CounterMasks: 1 0e
LayerCount: 2
Back
Fore
SplineSet
130 424 m 1
 148 428 l 1
 204 427 l 1
 204 516 l 1
 172 516 l 1
 156 519 l 1
 143 528 l 1
 133 542 l 1
 130 558 l 1
 133 574 l 1
 143 588 l 1
 156 597 l 1
 172 600 l 1
 271 600 l 1
 287 597 l 1
 300 588 l 1
 309 574 l 1
 313 558 l 1
 313 427 l 1
 369 428 l 1
 385 425 l 1
 437 399 l 1
 450 389 l 1
 458 375 l 1
 485 288 l 1
 485 140 l 1
 458 53 l 1
 450 39 l 1
 437 29 l 1
 385 3 l 1
 369 0 l 1
 313 1 l 1
 313 -88 l 1
 344 -88 l 1
 360 -91 l 1
 374 -100 l 1
 383 -114 l 1
 386 -130 l 1
 383 -146 l 1
 374 -160 l 1
 360 -169 l 1
 344 -172 l 1
 172 -172 l 1
 156 -169 l 1
 143 -160 l 1
 133 -146 l 1
 130 -130 l 1
 133 -114 l 1
 143 -100 l 1
 156 -91 l 1
 172 -88 l 1
 204 -88 l 1
 204 1 l 1
 148 0 l 1
 132 3 l 1
 80 29 l 1
 67 39 l 1
 59 53 l 1
 32 140 l 1
 32 288 l 1
 59 375 l 1
 67 389 l 1
 80 399 l 1
 130 424 l 1
165 344 m 1
 160 339 l 1
 141 281 l 1
 141 147 l 1
 160 89 l 1
 165 84 l 1
 179 84 l 1
 187 91 l 1
 204 126 l 1
 204 302 l 1
 187 337 l 1
 179 344 l 1
 165 344 l 1
313 302 m 1
 313 126 l 1
 330 91 l 1
 337 84 l 1
 351 84 l 1
 357 89 l 1
 376 147 l 1
 376 281 l 1
 357 339 l 1
 351 344 l 1
 337 344 l 1
 330 337 l 1
 313 302 l 1
EndSplineSet
EndChar

StartChar: glyph179
Encoding: 357 1093 179
Width: 493
VWidth: 0
Flags: W
HStem: 0 84<33 79 414 459> 344 84<33 78 413 459>
LayerCount: 2
Back
Fore
SplineSet
79 84 m 1
 185 208 l 1
 78 344 l 1
 49 344 l 1
 33 347 l 1
 20 356 l 1
 11 370 l 1
 7 386 l 1
 11 402 l 1
 20 416 l 1
 33 425 l 1
 49 428 l 1
 197 428 l 1
 213 425 l 1
 227 416 l 1
 236 402 l 1
 239 386 l 1
 236 370 l 1
 227 356 l 1
 208 346 l 1
 254 288 l 1
 302 344 l 1
 279 347 l 1
 265 356 l 1
 256 370 l 1
 253 386 l 1
 256 402 l 1
 265 416 l 1
 279 425 l 1
 295 428 l 1
 443 428 l 1
 459 425 l 1
 472 416 l 1
 481 402 l 1
 485 386 l 1
 481 370 l 1
 472 356 l 1
 459 347 l 1
 443 344 l 1
 413 344 l 1
 307 220 l 1
 414 84 l 1
 443 84 l 1
 459 81 l 1
 472 72 l 1
 481 58 l 1
 485 42 l 1
 481 26 l 1
 472 12 l 1
 459 3 l 1
 443 0 l 1
 295 0 l 1
 279 3 l 1
 265 12 l 1
 256 26 l 1
 253 42 l 1
 256 58 l 1
 265 72 l 1
 284 82 l 1
 238 140 l 1
 190 84 l 1
 213 81 l 1
 227 72 l 1
 236 58 l 1
 239 42 l 1
 236 26 l 1
 227 12 l 1
 213 3 l 1
 197 0 l 1
 49 0 l 1
 33 3 l 1
 20 12 l 1
 11 26 l 1
 7 42 l 1
 11 58 l 1
 20 72 l 1
 33 81 l 1
 49 84 l 1
 79 84 l 1
EndSplineSet
EndChar

StartChar: glyph180
Encoding: 358 1094 180
Width: 539
VWidth: 0
Flags: W
HStem: 0 84<32 80 188 350> 344 84<32 80 188 236 302 350 458 506>
VStem: 80 108<84 344> 350 108<84 344>
LayerCount: 2
Back
Fore
SplineSet
80 344 m 1
 48 344 l 1
 32 347 l 1
 18 356 l 1
 9 370 l 1
 6 386 l 1
 9 402 l 1
 18 416 l 1
 32 425 l 1
 48 428 l 1
 220 428 l 1
 236 425 l 1
 250 416 l 1
 259 402 l 1
 262 386 l 1
 259 370 l 1
 250 356 l 1
 236 347 l 1
 220 344 l 1
 188 344 l 1
 188 84 l 1
 350 84 l 1
 350 344 l 1
 318 344 l 1
 302 347 l 1
 288 356 l 1
 279 370 l 1
 276 386 l 1
 279 402 l 1
 288 416 l 1
 302 425 l 1
 318 428 l 1
 490 428 l 1
 506 425 l 1
 520 416 l 1
 529 402 l 1
 532 386 l 1
 529 370 l 1
 520 356 l 1
 506 347 l 1
 490 344 l 1
 458 344 l 1
 458 84 l 1
 490 84 l 1
 506 81 l 1
 520 72 l 1
 529 58 l 1
 532 42 l 1
 532 -81 l 1
 528 -98 l 1
 518 -112 l 1
 503 -121 l 1
 485 -123 l 1
 469 -117 l 1
 456 -105 l 1
 449 -89 l 1
 431 0 l 1
 48 0 l 1
 32 3 l 1
 18 12 l 1
 9 26 l 1
 6 42 l 1
 9 58 l 1
 18 72 l 1
 32 81 l 1
 48 84 l 1
 80 84 l 1
 80 344 l 1
EndSplineSet
EndChar

StartChar: glyph181
Encoding: 359 1095 181
Width: 539
VWidth: 0
Flags: W
HStem: 0 84<302 350 458 506> 98 84<230 262> 344 84<32 80 188 236 302 350 458 506>
VStem: 80 108<224 344> 350 108<84 123 231 344>
LayerCount: 2
Back
Fore
SplineSet
80 344 m 1
 48 344 l 1
 32 347 l 1
 18 356 l 1
 9 370 l 1
 6 386 l 1
 9 402 l 1
 18 416 l 1
 32 425 l 1
 48 428 l 1
 220 428 l 1
 236 425 l 1
 250 416 l 1
 259 402 l 1
 262 386 l 1
 259 370 l 1
 250 356 l 1
 236 347 l 1
 220 344 l 1
 188 344 l 1
 188 224 l 1
 202 196 l 1
 230 182 l 1
 262 182 l 1
 320 202 l 1
 350 231 l 1
 350 344 l 1
 318 344 l 1
 302 347 l 1
 288 356 l 1
 279 370 l 1
 276 386 l 1
 279 402 l 1
 288 416 l 1
 302 425 l 1
 318 428 l 1
 490 428 l 1
 506 425 l 1
 520 416 l 1
 529 402 l 1
 532 386 l 1
 529 370 l 1
 520 356 l 1
 506 347 l 1
 490 344 l 1
 458 344 l 1
 458 84 l 1
 490 84 l 1
 506 81 l 1
 520 72 l 1
 529 58 l 1
 532 42 l 1
 529 26 l 1
 520 12 l 1
 506 3 l 1
 490 0 l 1
 318 0 l 1
 302 3 l 1
 288 12 l 1
 279 26 l 1
 276 42 l 1
 279 58 l 1
 288 72 l 1
 302 81 l 1
 318 84 l 1
 350 84 l 1
 350 123 l 1
 282 100 l 1
 217 98 l 1
 133 125 l 1
 119 133 l 1
 109 146 l 1
 84 195 l 1
 80 214 l 1
 80 344 l 1
EndSplineSet
EndChar

StartChar: glyph182
Encoding: 360 1096 182
Width: 761
VWidth: 0
Flags: W
HStem: 0 84<32 80 189 326 435 572 680 728> 344 84<32 80 189 237 278 326 435 482 524 572 680 728>
VStem: 80 109<84 344> 326 109<84 344> 572 108<84 344>
LayerCount: 2
Back
Fore
SplineSet
80 344 m 1
 49 344 l 1
 32 347 l 1
 19 356 l 1
 10 370 l 1
 7 386 l 1
 10 402 l 1
 19 416 l 1
 32 425 l 1
 49 428 l 1
 221 428 l 1
 237 425 l 1
 250 416 l 1
 257 405 l 1
 265 416 l 1
 278 425 l 1
 294 428 l 1
 466 428 l 1
 482 425 l 1
 496 416 l 1
 503 405 l 1
 510 416 l 1
 524 425 l 1
 540 428 l 1
 712 428 l 1
 728 425 l 1
 742 416 l 1
 751 402 l 1
 754 386 l 1
 751 370 l 1
 742 356 l 1
 728 347 l 1
 712 344 l 1
 680 344 l 1
 680 84 l 1
 712 84 l 1
 728 81 l 1
 742 72 l 1
 751 58 l 1
 754 42 l 1
 751 26 l 1
 742 12 l 1
 728 3 l 1
 712 0 l 1
 49 0 l 1
 32 3 l 1
 19 12 l 1
 10 26 l 1
 7 42 l 1
 10 58 l 1
 19 72 l 1
 32 81 l 1
 49 84 l 1
 80 84 l 1
 80 344 l 1
189 344 m 1
 189 84 l 1
 326 84 l 1
 326 344 l 1
 294 344 l 1
 278 347 l 1
 265 356 l 1
 257 367 l 1
 250 356 l 1
 237 347 l 1
 221 344 l 1
 189 344 l 1
435 344 m 1
 435 84 l 1
 572 84 l 1
 572 344 l 1
 540 344 l 1
 524 347 l 1
 510 356 l 1
 503 367 l 1
 496 356 l 1
 482 347 l 1
 466 344 l 1
 435 344 l 1
EndSplineSet
EndChar

StartChar: glyph183
Encoding: 361 1097 183
Width: 761
VWidth: 0
Flags: W
HStem: 0 84<32 80 189 326 435 572> 344 84<32 80 189 237 278 326 435 482 524 572 680 728>
VStem: 80 109<84 344> 326 109<84 344> 572 108<84 344>
LayerCount: 2
Back
Fore
SplineSet
80 344 m 1
 49 344 l 1
 32 347 l 1
 19 356 l 1
 10 370 l 1
 7 386 l 1
 10 402 l 1
 19 416 l 1
 32 425 l 1
 49 428 l 1
 221 428 l 1
 237 425 l 1
 250 416 l 1
 257 405 l 1
 265 416 l 1
 278 425 l 1
 294 428 l 1
 466 428 l 1
 482 425 l 1
 496 416 l 1
 503 405 l 1
 510 416 l 1
 524 425 l 1
 540 428 l 1
 712 428 l 1
 728 425 l 1
 742 416 l 1
 751 402 l 1
 754 386 l 1
 751 370 l 1
 742 356 l 1
 728 347 l 1
 712 344 l 1
 680 344 l 1
 680 84 l 1
 712 84 l 1
 728 81 l 1
 742 72 l 1
 751 58 l 1
 754 42 l 1
 754 -81 l 1
 750 -98 l 1
 740 -112 l 1
 725 -121 l 1
 707 -123 l 1
 691 -117 l 1
 678 -105 l 1
 671 -89 l 1
 653 0 l 1
 49 0 l 1
 32 3 l 1
 19 12 l 1
 10 26 l 1
 7 42 l 1
 10 58 l 1
 19 72 l 1
 32 81 l 1
 49 84 l 1
 80 84 l 1
 80 344 l 1
189 344 m 1
 189 84 l 1
 326 84 l 1
 326 344 l 1
 294 344 l 1
 278 347 l 1
 265 356 l 1
 257 367 l 1
 250 356 l 1
 237 347 l 1
 221 344 l 1
 189 344 l 1
435 344 m 1
 435 84 l 1
 572 84 l 1
 572 344 l 1
 540 344 l 1
 524 347 l 1
 510 356 l 1
 503 367 l 1
 496 356 l 1
 482 347 l 1
 466 344 l 1
 435 344 l 1
EndSplineSet
EndChar

StartChar: glyph184
Encoding: 362 1098 184
Width: 517
VWidth: 0
Flags: W
HStem: 0 84<132 179 288 334> 172 84<288 334> 344 84<133 179 288 336>
VStem: 179 109<84 172 256 344>
CounterMasks: 1 e0
LayerCount: 2
Back
Fore
SplineSet
133 344 m 1
 115 255 l 1
 108 239 l 1
 95 227 l 1
 79 221 l 1
 61 223 l 1
 46 232 l 1
 36 246 l 1
 32 263 l 1
 32 386 l 1
 35 402 l 1
 44 416 l 1
 58 425 l 1
 74 428 l 1
 320 428 l 1
 336 425 l 1
 349 416 l 1
 359 402 l 1
 362 386 l 1
 359 370 l 1
 349 356 l 1
 336 347 l 1
 320 344 l 1
 288 344 l 1
 288 256 l 1
 358 254 l 1
 431 229 l 1
 446 221 l 1
 456 208 l 1
 480 159 l 1
 485 140 l 1
 485 116 l 1
 480 97 l 1
 456 48 l 1
 446 35 l 1
 431 27 l 1
 347 0 l 1
 148 0 l 1
 132 3 l 1
 118 12 l 1
 109 26 l 1
 106 42 l 1
 109 58 l 1
 118 72 l 1
 132 81 l 1
 148 84 l 1
 179 84 l 1
 179 344 l 1
 133 344 l 1
288 172 m 1
 288 84 l 1
 334 84 l 1
 362 98 l 1
 376 130 l 1
 362 158 l 1
 334 172 l 1
 288 172 l 1
EndSplineSet
EndChar

StartChar: glyph185
Encoding: 363 1099 185
Width: 637
VWidth: 0
Flags: W
HStem: 0 84<32 79 188 234 400 448 557 604> 172 84<188 234> 344 84<32 79 188 236 400 448 557 604>
VStem: 79 109<84 172 256 344> 448 109<84 344>
CounterMasks: 1 e0
LayerCount: 2
Back
Fore
SplineSet
448 344 m 1
 416 344 l 1
 400 347 l 1
 387 356 l 1
 377 370 l 1
 374 386 l 1
 377 402 l 1
 387 416 l 1
 400 425 l 1
 416 428 l 1
 588 428 l 1
 604 425 l 1
 618 416 l 1
 627 402 l 1
 630 386 l 1
 627 370 l 1
 618 356 l 1
 604 347 l 1
 588 344 l 1
 557 344 l 1
 557 84 l 1
 588 84 l 1
 604 81 l 1
 618 72 l 1
 627 58 l 1
 630 42 l 1
 627 26 l 1
 618 12 l 1
 604 3 l 1
 588 0 l 1
 416 0 l 1
 400 3 l 1
 387 12 l 1
 377 26 l 1
 374 42 l 1
 377 58 l 1
 387 72 l 1
 400 81 l 1
 416 84 l 1
 448 84 l 1
 448 344 l 1
79 344 m 1
 48 344 l 1
 32 347 l 1
 18 356 l 1
 9 370 l 1
 6 386 l 1
 9 402 l 1
 18 416 l 1
 32 425 l 1
 48 428 l 1
 220 428 l 1
 236 425 l 1
 249 416 l 1
 259 402 l 1
 262 386 l 1
 259 370 l 1
 249 356 l 1
 236 347 l 1
 220 344 l 1
 188 344 l 1
 188 256 l 1
 258 254 l 1
 331 229 l 1
 346 221 l 1
 356 208 l 1
 380 159 l 1
 385 140 l 1
 385 116 l 1
 380 97 l 1
 356 48 l 1
 346 35 l 1
 331 27 l 1
 247 0 l 1
 48 0 l 1
 32 3 l 1
 18 12 l 1
 9 26 l 1
 6 42 l 1
 9 58 l 1
 18 72 l 1
 32 81 l 1
 48 84 l 1
 79 84 l 1
 79 344 l 1
188 84 m 1
 234 84 l 1
 262 98 l 1
 276 130 l 1
 262 158 l 1
 234 172 l 1
 188 172 l 1
 188 84 l 1
EndSplineSet
EndChar

StartChar: glyph186
Encoding: 364 1100 186
Width: 417
VWidth: 0
Flags: W
HStem: 0 84<32 80 189 235> 172 84<189 235> 344 84<32 80 189 237>
VStem: 80 109<84 172 256 344>
CounterMasks: 1 e0
LayerCount: 2
Back
Fore
SplineSet
80 344 m 1
 49 344 l 1
 32 347 l 1
 19 356 l 1
 10 370 l 1
 7 386 l 1
 10 402 l 1
 19 416 l 1
 32 425 l 1
 49 428 l 1
 221 428 l 1
 237 425 l 1
 250 416 l 1
 259 402 l 1
 263 386 l 1
 259 370 l 1
 250 356 l 1
 237 347 l 1
 221 344 l 1
 189 344 l 1
 189 256 l 1
 258 254 l 1
 332 229 l 1
 346 221 l 1
 356 208 l 1
 381 159 l 1
 385 140 l 1
 385 116 l 1
 381 97 l 1
 356 48 l 1
 346 35 l 1
 332 27 l 1
 248 0 l 1
 49 0 l 1
 32 3 l 1
 19 12 l 1
 10 26 l 1
 7 42 l 1
 10 58 l 1
 19 72 l 1
 32 81 l 1
 49 84 l 1
 80 84 l 1
 80 344 l 1
189 84 m 1
 235 84 l 1
 263 98 l 1
 277 130 l 1
 263 158 l 1
 235 172 l 1
 189 172 l 1
 189 84 l 1
EndSplineSet
EndChar

StartChar: glyph187
Encoding: 365 1101 187
Width: 466
VWidth: 0
Flags: W
HStem: 0 84<181 235> 172 84<204 317> 344 84<181 235>
CounterMasks: 1 e0
LayerCount: 2
Back
Fore
SplineSet
111 403 m 1
 152 424 l 1
 171 428 l 1
 258 426 l 1
 332 401 l 1
 348 391 l 1
 397 342 l 1
 407 326 l 1
 432 252 l 1
 434 189 l 1
 432 176 l 1
 407 102 l 1
 397 86 l 1
 348 37 l 1
 332 27 l 1
 248 0 l 1
 171 0 l 1
 152 4 l 1
 92 37 l 1
 43 86 l 1
 34 100 l 1
 31 116 l 1
 34 156 l 1
 43 170 l 1
 67 195 l 1
 81 204 l 1
 97 207 l 1
 113 204 l 1
 127 195 l 1
 151 170 l 1
 161 156 l 1
 164 140 l 1
 161 124 l 1
 144 103 l 1
 181 84 l 1
 235 84 l 1
 269 101 l 1
 306 138 l 1
 317 172 l 1
 220 172 l 1
 204 175 l 1
 190 184 l 1
 181 198 l 1
 178 214 l 1
 181 230 l 1
 190 244 l 1
 204 253 l 1
 220 256 l 1
 317 256 l 1
 306 290 l 1
 269 327 l 1
 235 344 l 1
 181 344 l 1
 147 327 l 1
 132 312 l 1
 110 269 l 1
 100 256 l 1
 87 248 l 1
 71 246 l 1
 55 249 l 1
 42 259 l 1
 34 272 l 1
 31 288 l 1
 31 386 l 1
 34 402 l 1
 42 415 l 1
 55 424 l 1
 71 428 l 1
 87 426 l 1
 100 417 l 1
 111 403 l 1
EndSplineSet
EndChar

StartChar: glyph188
Encoding: 366 1102 188
Width: 714
VWidth: 0
Flags: W
HStem: 0 84<33 81 189 237 452 482> 172 84<189 256> 344 84<33 81 189 237 452 482>
VStem: 81 108<84 172 256 344> 572 109<176 252>
CounterMasks: 1 e0
LayerCount: 2
Back
Fore
SplineSet
81 344 m 1
 49 344 l 1
 33 347 l 1
 19 356 l 1
 10 370 l 1
 7 386 l 1
 10 402 l 1
 19 416 l 1
 33 425 l 1
 49 428 l 1
 221 428 l 1
 237 425 l 1
 251 416 l 1
 260 402 l 1
 263 386 l 1
 260 370 l 1
 251 356 l 1
 237 347 l 1
 221 344 l 1
 189 344 l 1
 189 256 l 1
 256 256 l 1
 280 326 l 1
 290 342 l 1
 339 391 l 1
 355 401 l 1
 439 428 l 1
 491 428 l 1
 578 401 l 1
 595 391 l 1
 644 342 l 1
 654 326 l 1
 679 252 l 1
 681 189 l 1
 679 176 l 1
 654 102 l 1
 644 86 l 1
 595 37 l 1
 578 27 l 1
 494 0 l 1
 439 0 l 1
 355 27 l 1
 339 37 l 1
 290 86 l 1
 280 102 l 1
 256 172 l 1
 189 172 l 1
 189 84 l 1
 221 84 l 1
 237 81 l 1
 251 72 l 1
 260 58 l 1
 263 42 l 1
 260 26 l 1
 251 12 l 1
 237 3 l 1
 221 0 l 1
 49 0 l 1
 33 3 l 1
 19 12 l 1
 10 26 l 1
 7 42 l 1
 10 58 l 1
 19 72 l 1
 33 81 l 1
 49 84 l 1
 81 84 l 1
 81 344 l 1
482 84 m 1
 516 101 l 1
 553 138 l 1
 572 196 l 1
 572 232 l 1
 553 290 l 1
 516 327 l 1
 482 344 l 1
 452 344 l 1
 418 327 l 1
 381 290 l 1
 361 232 l 1
 361 196 l 1
 381 138 l 1
 418 101 l 1
 452 84 l 1
 482 84 l 1
EndSplineSet
EndChar

StartChar: glyph189
Encoding: 367 1103 189
Width: 516
VWidth: 0
Flags: W
HStem: 0 84<277 325 434 482> 344 83<205 325 434 482>
VStem: 325 109<84 171 256 344>
LayerCount: 2
Back
Fore
SplineSet
189 427 m 1
 466 428 l 1
 482 425 l 1
 495 416 l 1
 504 402 l 1
 508 386 l 1
 504 370 l 1
 495 356 l 1
 482 347 l 1
 466 344 l 1
 434 344 l 1
 434 84 l 1
 466 84 l 1
 482 81 l 1
 495 72 l 1
 504 58 l 1
 508 42 l 1
 504 26 l 1
 495 12 l 1
 482 3 l 1
 466 0 l 1
 294 0 l 1
 277 3 l 1
 264 12 l 1
 255 26 l 1
 252 42 l 1
 255 58 l 1
 264 72 l 1
 277 81 l 1
 294 84 l 1
 325 84 l 1
 325 171 l 1
 294 155 l 1
 279 140 l 1
 233 48 l 1
 200 12 l 1
 187 3 l 1
 171 0 l 1
 122 0 l 1
 105 3 l 1
 92 12 l 1
 67 37 l 1
 35 97 l 1
 31 113 l 1
 33 129 l 1
 41 143 l 1
 54 153 l 1
 69 158 l 1
 86 156 l 1
 100 147 l 1
 110 134 l 1
 134 89 l 1
 178 175 l 1
 108 199 l 1
 94 207 l 1
 84 220 l 1
 59 269 l 1
 55 288 l 1
 55 312 l 1
 59 331 l 1
 84 380 l 1
 94 393 l 1
 108 401 l 1
 189 427 l 1
325 344 m 1
 205 344 l 1
 177 330 l 1
 164 298 l 1
 177 270 l 1
 205 256 l 1
 325 256 l 1
 325 344 l 1
EndSplineSet
EndChar

StartChar: glyph190
Encoding: 368 1488 190
Width: 492
VWidth: 0
Flags: W
HStem: 0 21G<61 90 402 434>
LayerCount: 2
Back
Fore
SplineSet
32 435 m 1
 32 484 l 1
 34 498 l 1
 42 512 l 1
 58 523 l 1
 74 526 l 1
 90 523 l 1
 102 516 l 1
 112 503 l 1
 133 460 l 1
 283 310 l 1
 326 353 l 1
 307 392 l 1
 302 411 l 1
 302 487 l 1
 307 503 l 1
 317 516 l 1
 328 523 l 1
 341 526 l 1
 363 522 l 1
 376 512 l 1
 400 466 l 1
 437 448 l 1
 449 439 l 1
 457 426 l 1
 460 411 l 1
 460 361 l 1
 457 345 l 1
 448 332 l 1
 434 323 l 1
 411 319 l 1
 342 251 l 1
 423 170 l 1
 456 110 l 1
 460 91 l 1
 460 42 l 1
 457 26 l 1
 448 12 l 1
 434 3 l 1
 418 0 l 1
 402 3 l 1
 390 10 l 1
 380 23 l 1
 359 66 l 1
 185 241 l 1
 141 197 l 1
 141 175 l 1
 161 134 l 1
 165 116 l 1
 165 67 l 1
 162 51 l 1
 155 39 l 1
 142 29 l 1
 90 3 l 1
 74 0 l 1
 61 2 l 1
 44 12 l 1
 36 23 l 1
 32 39 l 1
 35 58 l 1
 47 75 l 1
 36 97 l 1
 32 116 l 1
 34 178 l 1
 69 244 l 1
 125 300 l 1
 61 367 l 1
 36 416 l 1
 32 435 l 1
EndSplineSet
EndChar

StartChar: glyph191
Encoding: 369 8242 191
Width: 195
VWidth: 0
Flags: W
HStem: 344 255
VStem: 31 132
LayerCount: 2
Back
Fore
SplineSet
31 392 m 1
 55 564 l 1
 61 579 l 1
 72 592 l 1
 87 599 l 1
 133 598 l 1
 148 591 l 1
 158 578 l 1
 163 563 l 1
 162 546 l 1
 109 365 l 1
 93 349 l 1
 77 344 l 1
 61 346 l 1
 46 353 l 1
 36 366 l 1
 31 381 l 1
 31 392 l 1
EndSplineSet
EndChar

StartChar: glyph192
Encoding: 370 8243 192
Width: 394
VWidth: 0
Flags: W
HStem: 344 255
VStem: 32 329
LayerCount: 2
Back
Fore
SplineSet
228 392 m 1
 253 564 l 1
 258 579 l 1
 269 592 l 1
 284 599 l 1
 330 598 l 1
 345 591 l 1
 356 578 l 1
 361 563 l 1
 359 546 l 1
 306 365 l 1
 290 349 l 1
 275 344 l 1
 258 346 l 1
 244 353 l 1
 233 366 l 1
 228 381 l 1
 228 392 l 1
32 392 m 1
 56 564 l 1
 62 579 l 1
 73 592 l 1
 87 599 l 1
 134 598 l 1
 148 591 l 1
 159 578 l 1
 164 563 l 1
 163 546 l 1
 109 365 l 1
 98 352 l 1
 84 345 l 1
 62 346 l 1
 47 353 l 1
 36 366 l 1
 32 376 l 1
 32 392 l 1
EndSplineSet
EndChar

StartChar: glyph193
Encoding: 371 9001 193
Width: 344
VWidth: 0
Flags: W
HStem: -172 21G<229 262>
VStem: 34 250
LayerCount: 2
Back
Fore
SplineSet
34 280 m 1
 206 673 l 1
 216 687 l 1
 229 695 l 1
 246 698 l 1
 262 695 l 1
 275 685 l 1
 284 672 l 1
 287 655 l 1
 283 639 l 1
 119 263 l 1
 283 -113 l 1
 287 -129 l 1
 284 -145 l 1
 275 -159 l 1
 262 -168 l 1
 246 -172 l 1
 229 -169 l 1
 216 -160 l 1
 206 -147 l 1
 34 246 l 1
 31 263 l 1
 34 280 l 1
EndSplineSet
EndChar

StartChar: glyph194
Encoding: 372 9002 194
Width: 344
VWidth: 0
Flags: W
HStem: -172 21G<81 114>
VStem: 56 253
LayerCount: 2
Back
Fore
SplineSet
224 263 m 1
 60 639 l 1
 56 655 l 1
 59 672 l 1
 68 685 l 1
 81 695 l 1
 97 698 l 1
 114 695 l 1
 127 687 l 1
 137 673 l 1
 309 280 l 1
 312 263 l 1
 309 246 l 1
 137 -147 l 1
 127 -160 l 1
 114 -169 l 1
 97 -172 l 1
 81 -168 l 1
 68 -159 l 1
 59 -145 l 1
 56 -129 l 1
 60 -113 l 1
 224 263 l 1
EndSplineSet
EndChar

